<?xml version="1.0" encoding="UTF-8" standalone="no"?>
<svg
   xmlns:dc="http://purl.org/dc/elements/1.1/"
   xmlns:cc="http://creativecommons.org/ns#"
   xmlns:rdf="http://www.w3.org/1999/02/22-rdf-syntax-ns#"
   xmlns:svg="http://www.w3.org/2000/svg"
   xmlns="http://www.w3.org/2000/svg"
   xmlns:sodipodi="http://sodipodi.sourceforge.net/DTD/sodipodi-0.dtd"
   xmlns:inkscape="http://www.inkscape.org/namespaces/inkscape"
   width="100mm"
   height="100mm"
   viewBox="0 0 100 100"
   version="1.1"
   id="svg8"
   sodipodi:docname="architektura.svg"
   inkscape:version="1.0.1 (3bc2e813f5, 2020-09-07)">
  <sodipodi:namedview
     pagecolor="#ffffff"
     bordercolor="#666666"
     borderopacity="1"
     objecttolerance="10"
     gridtolerance="10"
     guidetolerance="10"
     inkscape:pageopacity="0"
     inkscape:pageshadow="2"
     inkscape:window-width="1737"
     inkscape:window-height="997"
     id="namedview426"
     showgrid="false"
     inkscape:zoom="0.6746747"
     inkscape:cx="65.497499"
     inkscape:cy="270.37928"
     inkscape:window-x="631"
     inkscape:window-y="492"
     inkscape:window-maximized="0"
     inkscape:current-layer="svg8"
     inkscape:document-rotation="0" />
  <defs
     id="defs2" />
  <metadata
     id="metadata5">
    <rdf:RDF>
      <cc:Work
         rdf:about="">
        <dc:format>image/svg+xml</dc:format>
        <dc:type
           rdf:resource="http://purl.org/dc/dcmitype/StillImage" />
        <dc:title />
      </cc:Work>
    </rdf:RDF>
  </metadata>
  <path
     style="fill:#ffffff;stroke-width:0.237891"
     d="M 5.9681423,92.353166 C 5.8019498,92.152908 5.7799797,91.961643 5.9136511,91.879017 6.2007338,91.701572 91.340636,91.644843 91.517756,91.821974 c 0.07301,0.07296 0.06927,0.297864 -0.0087,0.499768 -0.126249,0.328976 -4.560644,0.367102 -42.701853,0.367102 -36.34824,0 -42.6016537,-0.04904 -42.8395633,-0.335665 z M 5.7947914,89.94281 c -0.07747,-0.201884 -0.089402,-0.418552 -0.026599,-0.481441 0.1446348,-0.144614 85.6306416,-0.137229 85.7753026,0.0074 0.05877,0.05877 0.04349,0.272089 -0.03394,0.473993 -0.126249,0.32898 -4.576,0.367102 -42.857404,0.367102 -38.281401,0 -42.7311545,-0.0381 -42.8573949,-0.367102 z M 14.035274,74.549563 c -0.002,-6.836418 -0.0981,-12.57901 -0.213528,-12.761314 -0.17002,-0.268513 -0.504198,-0.166892 -1.759727,0.535258 -1.655124,0.925595 -2.3051564,1.073945 -2.3051564,0.52608 0,-0.385966 0.8315344,-1.021112 2.3293164,-1.779196 2.111434,-1.068668 1.952742,-0.109972 1.952742,-11.796845 0,-10.170678 0.0078,-10.348298 0.473173,-10.348298 0.463758,0 0.474407,0.197646 0.535258,9.931986 0.06098,9.7527 0.07068,9.931991 0.537867,9.931991 0.546943,0 5.597388,-2.832228 6.448953,-3.616491 0.522921,-0.481592 0.568856,-0.705748 0.568856,-2.775778 0,-2.339993 -0.118201,-3.004467 -0.534476,-3.004467 -0.135131,0 -1.053767,0.485702 -2.041425,1.079332 -0.987657,0.593633 -1.962924,1.047137 -2.167259,1.007785 -0.872455,-0.168045 -0.226986,-0.858518 2.003874,-2.143664 1.306459,-0.752625 2.449737,-1.556285 2.540613,-1.785914 0.09088,-0.229636 0.172755,-2.264146 0.18195,-4.521146 0.01604,-3.939468 0.03576,-4.103634 0.492507,-4.103634 0.456368,0 0.475785,0.158581 0.475785,3.885567 0,2.137065 0.0676,3.953166 0.15025,4.035792 0.08261,0.08261 0.35025,0.04318 0.594728,-0.08767 0.405709,-0.217147 0.444506,-0.570828 0.444506,-4.052334 v -3.814448 l 0.535258,0.07603 c 0.519651,0.07381 0.537209,0.166049 0.602248,3.164238 0.03686,1.698522 0.162038,3.183277 0.278241,3.299453 0.123056,0.123056 1.13785,-0.337425 2.430876,-1.103045 1.2208,-0.722856 4.307139,-2.513649 6.858527,-3.97954 2.551391,-1.465891 4.960048,-2.85407 5.352572,-3.084853 2.256264,-1.326539 2.232221,-1.31679 2.525041,-1.023972 0.475813,0.475815 -0.06455,0.879455 -4.760497,3.555949 -4.072649,2.32124 -5.369687,3.067593 -10.491763,6.037254 -0.981306,0.568938 -1.862837,1.147451 -1.958969,1.285592 -0.09611,0.138134 -0.176396,1.45549 -0.178412,2.927446 -0.0029,2.140854 0.06317,2.676286 0.330395,2.676286 0.18374,0 2.458375,-1.231154 5.054788,-2.735899 2.596419,-1.504741 4.821305,-2.702379 4.944196,-2.661413 0.308682,0.102896 0.398865,0.470491 0.189829,0.773817 -0.09601,0.139306 -1.181828,0.835141 -2.412946,1.546299 -1.231121,0.711149 -3.532724,2.042363 -5.114677,2.958247 l -2.87628,1.665247 -0.123077,16.295598 c -0.06766,8.962579 -0.147967,16.32236 -0.178412,16.355072 -0.03043,0.03271 -0.26946,0.05947 -0.53113,0.05947 -0.471015,0 -0.475783,-0.158582 -0.475783,-15.819811 0,-16.377888 -0.0033,-16.435011 -0.903989,-15.534343 -0.216205,0.216203 -0.285477,4.054733 -0.285477,15.819809 0,15.356373 -0.0054,15.534345 -0.474005,15.534345 -0.467776,0 -0.474815,-0.197851 -0.535259,-15.043431 -0.055,-13.509895 -0.09969,-15.050822 -0.438269,-15.116012 -0.373948,-0.072 -5.901099,2.972712 -6.700262,3.690927 -0.386878,0.347694 -0.416311,1.296563 -0.416311,13.421331 0,12.888589 -0.0056,13.047185 -0.475785,13.047185 -0.469668,0 -0.475829,-0.159816 -0.479428,-12.429854 z m 10.42331,-20.684701 c 0.364625,-0.364628 0.398014,-5.564194 0.03717,-5.787215 -0.136551,-0.08442 -0.404204,-0.02397 -0.594733,0.134041 -0.265596,0.220437 -0.34642,0.909709 -0.34642,2.954485 0,2.977517 0.156875,3.445819 0.903995,2.698696 z m 25.977795,12.417957 c 0,-19.849644 -0.0181,-20.713633 -0.44132,-21.112908 -0.242711,-0.228974 -1.529409,-1.03726 -2.859308,-1.796195 l -2.417988,-1.37988 0.06408,-5.150854 0.06408,-5.150859 2.312701,-1.363042 c 1.271987,-0.74967 2.931282,-1.701665 3.687326,-2.115543 0.756041,-0.413873 1.481673,-0.831752 1.612513,-0.928613 0.130851,-0.09685 0.96049,-0.57362 1.843666,-1.059462 l 1.605763,-0.883345 V 56.160769 86.979417 H 53.172125 50.436367 Z M 57.81103,54.774186 c 0,-26.578551 -0.05554,-32.251309 -0.317804,-32.468982 -0.242429,-0.201225 -0.682181,-0.044 -1.854112,0.662843 -1.537344,0.927217 -10.692492,6.211992 -18.017181,10.400353 -2.141422,1.2245 -4.041585,2.226359 -4.222583,2.226359 -0.180983,0 -0.326003,-0.187319 -0.322249,-0.416312 0.0045,-0.282213 1.058147,-1.020395 3.271016,-2.29191 1.795298,-1.03158 5.672839,-3.265013 8.616751,-4.963189 2.943911,-1.698172 6.930939,-3.99125 8.860055,-5.095729 1.929119,-1.104475 3.615177,-2.209357 3.746798,-2.455294 0.348008,-0.650261 0.292944,-1.662247 -0.09863,-1.812503 -0.309308,-0.118695 -0.822144,0.120834 -3.230446,1.508759 -0.457939,0.263907 -1.635505,0.934089 -2.616807,1.489263 -0.981306,0.555178 -2.747655,1.574769 -3.925218,2.265761 -4.907994,2.87999 -19.061531,10.978214 -19.427977,11.116093 -0.424225,0.159632 -0.835284,-0.480776 -0.503269,-0.784061 0.188245,-0.171932 11.809942,-6.899721 19.693352,-11.400428 4.477669,-2.556336 9.906555,-5.720305 10.110407,-5.892373 0.06544,-0.05521 0.172488,-1.295982 0.237896,-2.757255 0.09625,-2.150189 0.18699,-2.656854 0.475786,-2.656854 0.284933,0 0.370724,0.42173 0.425733,2.092636 0.05081,1.544094 0.15778,2.126747 0.408011,2.222767 0.186518,0.07157 0.979953,-0.25916 1.763198,-0.734957 l 1.424086,-0.865084 0.07106,-1.357681 c 0.0615,-1.175408 0.134902,-1.357681 0.54682,-1.357681 0.35277,0 0.495898,0.184522 0.553565,0.713675 0.110055,1.009773 0.393036,1.206427 1.084285,0.753499 1.431638,-0.938041 2.233413,-1.29071 2.52486,-1.110586 0.545936,0.337407 0.07552,0.868996 -1.58586,1.792049 -0.893907,0.496652 -1.703928,1.019268 -1.800057,1.161373 -0.303987,0.449377 -0.200382,1.812572 0.147947,1.946228 0.181498,0.06965 1.867561,-0.752527 3.746798,-1.82705 4.641837,-2.654135 4.563483,-2.615561 4.810632,-2.368412 0.425001,0.425003 -0.06453,0.875168 -2.346147,2.157458 -1.273896,0.715942 -2.597744,1.464968 -2.941894,1.664502 -0.344151,0.199539 -1.160986,0.67149 -1.815187,1.04879 -0.654207,0.377298 -1.323278,0.85005 -1.486826,1.050554 -0.341091,0.418165 -0.433895,13.725857 -0.0994,14.252797 0.104871,0.165227 2.271027,1.491185 4.81367,2.946607 2.54264,1.455419 5.265291,3.019396 6.050335,3.475508 0.785044,0.456106 1.748508,1.015748 2.141027,1.243644 0.392525,0.227902 1.116023,0.654114 1.607781,0.947152 1.521523,0.906685 1.603764,0.737408 1.603764,-3.30133 0,-3.417423 0.161173,-4.237516 0.722605,-3.676109 0.112956,0.112955 0.237435,2.056011 0.276632,4.317908 0.05793,3.341912 0.138135,4.154708 0.428109,4.337566 0.672964,0.424363 0.832728,0.07218 0.901357,-1.986947 0.06221,-1.866748 0.112976,-2.062355 0.535256,-2.062355 0.43371,0 0.466525,0.175059 0.466525,2.488596 0,2.84167 0.08552,2.99629 2.259972,4.087081 0.654207,0.328173 1.410465,0.80277 1.680578,1.05466 0.270118,0.251888 0.625728,0.457989 0.790263,0.457989 0.529643,0 2.405948,1.223521 2.405948,1.5689 0,0.578714 -0.971267,0.364713 -2.1331,-0.469984 -0.615682,-0.442319 -1.377831,-0.88398 -1.693662,-0.981469 -0.315836,-0.09749 -1.043455,-0.490939 -1.616929,-0.874336 -1.36916,-0.91534 -1.740229,-0.760708 -1.646728,0.686234 0.0798,1.234952 -0.09812,1.088604 4.253605,3.499098 4.710045,2.608984 5.919346,3.378096 5.924208,3.767787 0.0026,0.228973 -0.14737,0.416312 -0.333823,0.416312 -0.354292,0 -4.101493,-2.062619 -7.437244,-4.09378 -1.071344,-0.652354 -2.061573,-1.115845 -2.200493,-1.029983 -0.174709,0.107997 -0.252577,5.908844 -0.252577,18.816588 0,18.483545 -0.0043,18.660476 -0.474383,18.660476 -0.469525,0 -0.475011,-0.197913 -0.535255,-19.30281 -0.05781,-18.329164 -0.08257,-19.316117 -0.491121,-19.566612 -0.659841,-0.40458 -1.001873,0.267168 -0.968171,1.901496 0.02113,1.020402 0.1074,35.506976 0.09214,36.789508 -0.0011,0.09814 -0.226114,0.178412 -0.499906,0.178412 h -0.497776 l 0.07533,-19.685557 c 0.04143,-10.827061 0.0027,-19.801454 -0.08639,-19.943106 -0.08893,-0.141652 -2.093409,-1.367076 -4.45435,-2.723175 -3.581421,-2.057122 -4.292624,-2.555159 -4.292624,-3.006004 0,-0.641898 0.180469,-0.594629 2.259968,0.592005 0.785044,0.44797 1.909084,1.081345 2.49787,1.407497 0.588778,0.326156 1.579292,0.913081 2.201136,1.304282 1.449375,0.911799 1.895119,0.766496 1.797336,-0.585897 l -0.07326,-1.013218 -3.806271,-2.211641 c -2.09345,-1.216403 -3.966846,-2.281312 -4.163105,-2.366463 -0.196248,-0.08514 -1.748508,-0.975423 -3.449436,-1.978379 -1.700933,-1.002955 -3.734912,-2.193064 -4.519953,-2.64469 l -1.427353,-0.821145 -0.06328,-6.756391 c -0.03478,-3.716011 -0.157965,-6.851079 -0.273689,-6.96681 -0.204538,-0.204537 -2.061592,0.720052 -2.934059,1.460802 -0.392766,0.333461 -0.416312,2.208233 -0.416312,33.145675 0,32.633621 -0.0023,32.792217 -0.475784,32.792217 -0.473439,0 -0.475784,-0.158582 -0.475784,-32.205233 z m 24.45765,-8.643664 c 0.08639,-0.890988 -0.300417,-1.733761 -0.795772,-1.733761 -0.257959,0 -0.348471,0.298626 -0.348471,1.149811 0,1.248009 0.135522,1.520898 0.702076,1.413803 0.22092,-0.04178 0.397956,-0.37401 0.442167,-0.829853 z M 60.866719,18.709618 c 1.388175,-0.897221 1.464239,-0.995348 1.464239,-1.889096 0,-0.518494 -0.09952,-1.004222 -0.221151,-1.079397 -0.262709,-0.162367 -2.623467,1.167962 -3.049859,1.718636 -0.314287,0.405895 -0.407139,1.769272 -0.138751,2.037642 0.262018,0.26202 0.420685,0.197769 1.945549,-0.787785 z m 10.167937,67.880987 c -0.194334,-0.506415 -0.112008,-41.377783 0.08397,-41.694899 0.08706,-0.14089 1.635167,0.622836 3.70973,1.830135 l 3.56029,2.071922 0.06844,19.090827 0.06844,19.090827 h -3.670807 c -3.177657,0 -3.690853,-0.05225 -3.820011,-0.388812 z"
     id="path883" />
</svg>
