<?xml version="1.0" encoding="UTF-8" standalone="no"?>
<svg
   xmlns:dc="http://purl.org/dc/elements/1.1/"
   xmlns:cc="http://creativecommons.org/ns#"
   xmlns:rdf="http://www.w3.org/1999/02/22-rdf-syntax-ns#"
   xmlns:svg="http://www.w3.org/2000/svg"
   xmlns="http://www.w3.org/2000/svg"
   xmlns:sodipodi="http://sodipodi.sourceforge.net/DTD/sodipodi-0.dtd"
   xmlns:inkscape="http://www.inkscape.org/namespaces/inkscape"
   width="60mm"
   height="40mm"
   viewBox="0 0 60 40"
   version="1.1"
   id="svg8"
   inkscape:version="1.0.1 (3bc2e813f5, 2020-09-07)"
   sodipodi:docname="architekturaLogo.svg">
  <defs
     id="defs2">
    <inkscape:perspective
       sodipodi:type="inkscape:persp3d"
       inkscape:vp_x="0 : 24.999999 : 1"
       inkscape:vp_y="0 : 999.99997 : 0"
       inkscape:vp_z="50.000001 : 24.999999 : 1"
       inkscape:persp3d-origin="25 : 19.999999 : 1"
       id="perspective833" />
  </defs>
  <sodipodi:namedview
     id="base"
     pagecolor="#ffffff"
     bordercolor="#666666"
     borderopacity="1.0"
     inkscape:pageopacity="0.0"
     inkscape:pageshadow="2"
     inkscape:zoom="3.959798"
     inkscape:cx="140.49945"
     inkscape:cy="85.305102"
     inkscape:document-units="mm"
     inkscape:current-layer="layer1"
     inkscape:document-rotation="0"
     showgrid="false"
     inkscape:window-width="1920"
     inkscape:window-height="1137"
     inkscape:window-x="1912"
     inkscape:window-y="-8"
     inkscape:window-maximized="1" />
  <metadata
     id="metadata5">
    <rdf:RDF>
      <cc:Work
         rdf:about="">
        <dc:format>image/svg+xml</dc:format>
        <dc:type
           rdf:resource="http://purl.org/dc/dcmitype/StillImage" />
        <dc:title></dc:title>
      </cc:Work>
    </rdf:RDF>
  </metadata>
  <g
     inkscape:label="Layer 1"
     inkscape:groupmode="layer"
     id="layer1">
    <path
       style="fill:#ffffff;stroke-width:0.115644"
       d="m 8.1831412,39.564434 c -0.080793,-0.09735 -0.091473,-0.19033 -0.026489,-0.230496 0.1395573,-0.08626 41.5278928,-0.113837 41.6139918,-0.02773 0.03547,0.03547 0.03368,0.144799 -0.0041,0.242948 -0.06137,0.159921 -2.217025,0.178455 -20.758287,0.178455 -17.66966,0 -20.7095791,-0.02383 -20.8252318,-0.163172 z m -0.084275,-1.171728 c -0.037665,-0.09814 -0.043463,-0.203467 -0.012935,-0.234038 0.070311,-0.0703 41.6268928,-0.06671 41.6972148,0.0036 0.02857,0.02857 0.02115,0.132268 -0.01652,0.230419 -0.06137,0.159925 -2.224489,0.178454 -20.833903,0.178454 -18.609411,0 -20.7725321,-0.01853 -20.8339006,-0.178455 z m 4.0058758,-7.482987 c -9.7e-4,-3.32333 -0.04769,-6.114927 -0.103801,-6.203549 -0.08265,-0.13053 -0.245101,-0.08113 -0.855441,0.2602 -0.804591,0.449952 -1.120586,0.522068 -1.120586,0.255739 0,-0.187626 0.404227,-0.496384 1.132331,-0.864905 1.026413,-0.519503 0.94927,-0.05346 0.94927,-5.7347 0,-4.944185 0.0038,-5.03053 0.230019,-5.03053 0.225443,0 0.23062,0.09608 0.260201,4.828152 0.02964,4.740997 0.03436,4.828154 0.261468,4.828154 0.265881,0 2.721011,-1.376807 3.134975,-1.758054 0.254203,-0.234112 0.276533,-0.343079 0.276533,-1.349365 0,-1.137521 -0.05746,-1.460536 -0.25982,-1.460536 -0.06569,0 -0.512259,0.23611 -0.992381,0.524686 -0.480121,0.288578 -0.954219,0.509036 -1.053551,0.489906 -0.424119,-0.08169 -0.110343,-0.417344 0.974126,-1.042081 0.635098,-0.365867 1.19087,-0.756543 1.235047,-0.868171 0.04418,-0.111631 0.08398,-1.10065 0.08845,-2.197826 0.0078,-1.91506 0.01738,-1.994865 0.239418,-1.994865 0.22185,0 0.231289,0.07709 0.231289,1.888858 0,1.038873 0.03286,1.921719 0.07304,1.961885 0.04016,0.04016 0.170264,0.02099 0.28911,-0.04262 0.197224,-0.10556 0.216084,-0.277492 0.216084,-1.969927 v -1.854285 l 0.2602,0.03696 c 0.252614,0.03588 0.261149,0.08072 0.292766,1.538204 0.01792,0.825688 0.07877,1.547459 0.135259,1.603935 0.05982,0.05982 0.553133,-0.16403 1.181701,-0.536214 0.593457,-0.351396 2.093793,-1.221939 3.334077,-1.93454 1.240286,-0.712601 2.411186,-1.387425 2.602,-1.499613 1.096819,-0.644859 1.085131,-0.64012 1.227477,-0.497775 0.231303,0.231304 -0.03138,0.427522 -2.31418,1.728623 -1.979802,1.128405 -2.61032,1.491223 -5.100271,2.934839 -0.477034,0.276573 -0.905565,0.557801 -0.952297,0.624954 -0.04672,0.06715 -0.08575,0.707545 -0.08673,1.423094 -0.0014,1.040715 0.03071,1.301 0.160612,1.301 0.08932,0 1.195069,-0.59849 2.457241,-1.329979 1.262175,-0.731487 2.34374,-1.313684 2.40348,-1.29377 0.150057,0.05002 0.193897,0.228716 0.09228,0.376169 -0.04667,0.06772 -0.574512,0.40598 -1.172985,0.751689 -0.598474,0.345705 -1.717333,0.992837 -2.486354,1.438068 l -1.398222,0.809512 -0.05983,7.921639 c -0.03289,4.356903 -0.07193,7.93465 -0.08673,7.950552 -0.01479,0.0159 -0.13099,0.02891 -0.258194,0.02891 -0.22897,0 -0.231288,-0.07709 -0.231288,-7.690352 0,-7.961642 -0.0016,-7.989411 -0.439448,-7.551577 -0.105102,0.105101 -0.138777,1.971093 -0.138777,7.69035 0,7.465061 -0.0026,7.551579 -0.230424,7.551579 -0.227396,0 -0.230818,-0.09618 -0.260201,-7.312935 -0.02674,-6.567451 -0.04846,-7.316529 -0.213052,-7.348219 -0.181784,-0.035 -2.868651,1.445099 -3.257141,1.794239 -0.18807,0.169021 -0.202378,0.630287 -0.202378,6.524396 0,6.265422 -0.0027,6.342519 -0.231289,6.342519 -0.228316,0 -0.231311,-0.07769 -0.23306,-6.04242 z m 5.066995,-10.055278 c 0.177252,-0.177253 0.193483,-2.704874 0.01807,-2.813289 -0.06638,-0.04104 -0.196492,-0.01165 -0.289112,0.06516 -0.129112,0.107159 -0.168402,0.442229 -0.168402,1.436239 0,1.447435 0.07626,1.675086 0.439451,1.311894 z m 12.628364,6.036636 c 0,-9.649338 -0.0088,-10.069342 -0.214535,-10.263438 -0.117987,-0.111309 -0.743479,-0.504234 -1.389971,-0.873169 l -1.175436,-0.670789 0.03115,-2.503941 0.03115,-2.503943 1.124254,-0.6626031 c 0.61834,-0.3644311 1.424959,-0.8272165 1.792488,-1.0284112 0.367528,-0.2011934 0.720273,-0.4043333 0.783877,-0.451419 0.06361,-0.047081 0.466915,-0.2788495 0.896246,-0.5150277 L 32.45992,6.9889235 V 21.970531 36.952139 h -1.329915 -1.329911 z m 3.584976,-5.594594 c 0,-12.920404 -0.027,-15.6780533 -0.154491,-15.7838686 -0.11785,-0.097817 -0.331623,-0.021385 -0.901324,0.322222 -0.747336,0.4507401 -5.19785,3.0197826 -8.758539,5.0558346 -1.040991,0.595256 -1.964701,1.082281 -2.052688,1.082281 -0.08798,0 -0.158477,-0.09106 -0.156652,-0.202378 0.0022,-0.13719 0.514388,-0.496036 1.590111,-1.114147 0.872733,-0.501473 2.757689,-1.5871928 4.188788,-2.4127131 C 28.57138,7.418196 30.50956,6.3034821 31.447345,5.7665718 32.385131,5.2296627 33.20476,4.6925554 33.268744,4.573 33.437918,4.2568948 33.41115,3.7649466 33.220796,3.6919033 33.070435,3.6342046 32.821134,3.7506428 31.650407,4.4253436 31.427793,4.553635 30.855353,4.879424 30.378321,5.149307 c -0.477034,0.2698831 -1.335694,0.7655283 -1.908133,1.1014347 -2.385881,1.4000246 -9.26622,5.3367453 -9.444357,5.4037713 -0.206225,0.0776 -0.406049,-0.233716 -0.24465,-0.381149 0.09151,-0.08358 5.741067,-3.3541023 9.573362,-5.5419925 2.176691,-1.2426906 4.815789,-2.7807635 4.914886,-2.8644087 0.03181,-0.026844 0.08385,-0.6300057 0.115646,-1.3403609 0.04679,-1.04525359 0.0909,-1.29155488 0.23129,-1.29155488 0.138512,0 0.180217,0.20501233 0.206958,1.01727568 0.0247,0.7506175 0.0767,1.0338579 0.198343,1.0805348 0.09067,0.034793 0.476376,-0.1259829 0.857128,-0.3572776 l 0.692279,-0.4205368 0.03454,-0.65999796 c 0.0299,-0.57139039 0.06558,-0.65999812 0.265822,-0.65999812 0.171489,0 0.241066,0.0897 0.269099,0.34693321 0.0535,0.49087207 0.191062,0.58647027 0.527095,0.36629257 0.695949,-0.4560025 1.085709,-0.62744264 1.227388,-0.5398801 0.265391,0.16402084 0.03671,0.4224375 -0.77092,0.8711536 C 36.68955,1.520979 36.29578,1.7750345 36.24905,1.844114 36.101276,2.0625666 36.15164,2.7252447 36.32097,2.7902179 36.4092,2.8240749 37.22883,2.4243987 38.142369,1.9020492 40.398865,0.61181704 40.360776,0.63056919 40.48092,0.75071298 40.687523,0.95731602 40.44955,1.1761511 39.340406,1.7995007 38.72114,2.147535 38.077587,2.5116523 37.910289,2.6086505 c -0.167299,0.096999 -0.56438,0.3264258 -0.882402,0.5098388 -0.318022,0.1834131 -0.643272,0.4132279 -0.722778,0.5106975 -0.165811,0.2032786 -0.210924,6.6724332 -0.04832,6.9285902 0.05098,0.08032 1.103995,0.724897 2.340028,1.432409 1.236033,0.70751 2.559572,1.467793 2.941199,1.689519 0.381627,0.221723 0.849986,0.493777 1.040798,0.604562 0.190815,0.110788 0.542524,0.317979 0.781576,0.460431 0.739647,0.440759 0.779624,0.35847 0.779624,-1.604847 0,-1.661283 0.07835,-2.059948 0.351274,-1.787036 0.05491,0.05491 0.115422,0.999471 0.134479,2.099028 0.02816,1.624575 0.06715,2.019693 0.208113,2.108584 0.327141,0.206292 0.404807,0.03509 0.438168,-0.965898 0.03024,-0.907466 0.05492,-1.002555 0.2602,-1.002555 0.210834,0 0.226788,0.0851 0.226788,1.20976 0,1.381397 0.04157,1.456561 1.098621,1.986818 0.318022,0.159532 0.685656,0.390244 0.816965,0.512693 0.131308,0.122448 0.30418,0.222638 0.384162,0.222638 0.257473,0 1.169583,0.59478 1.169583,0.762676 0,0.281325 -0.472152,0.177295 -1.036947,-0.228469 -0.299294,-0.215021 -0.669788,-0.429722 -0.823321,-0.477113 -0.153535,-0.04739 -0.507246,-0.238656 -0.786025,-0.425034 -0.665578,-0.444966 -0.845963,-0.369796 -0.800511,0.333593 0.03879,0.600337 -0.0477,0.529194 2.06777,1.700987 2.289654,1.268283 2.87752,1.642165 2.879885,1.831602 0.0014,0.111309 -0.07164,0.202378 -0.162278,0.202378 -0.17223,0 -1.993824,-1.002683 -3.615404,-1.990074 -0.520804,-0.317123 -1.002175,-0.542436 -1.069709,-0.500697 -0.08493,0.0525 -0.122781,2.872416 -0.122781,9.147149 0,8.985246 -0.0022,9.071258 -0.230608,9.071258 -0.228245,0 -0.230913,-0.09621 -0.260201,-9.383511 -0.0281,-8.910201 -0.04014,-9.38998 -0.238743,-9.511751 -0.320763,-0.196675 -0.487033,0.129876 -0.470649,0.924358 0.01028,0.496039 0.05221,17.260703 0.04479,17.884171 -5.79e-4,0.04771 -0.109921,0.08673 -0.243015,0.08673 h -0.241981 l 0.03662,-9.569572 c 0.02014,-5.263267 0.0012,-9.625912 -0.042,-9.694772 -0.04323,-0.06886 -1.017649,-0.664565 -2.165355,-1.323794 -1.741005,-1.000011 -2.086737,-1.242118 -2.086737,-1.461283 0,-0.312041 0.08773,-0.289062 1.098621,0.287786 0.381626,0.217768 0.928046,0.525665 1.214267,0.684215 0.286219,0.158551 0.767728,0.443868 1.070021,0.634039 0.70457,0.443245 0.921256,0.37261 0.873722,-0.284817 l -0.03561,-0.492547 -1.85031,-1.075126 c -1.01767,-0.59132 -1.92837,-1.108995 -2.023775,-1.150389 -0.0954,-0.04139 -0.849988,-0.474174 -1.676845,-0.961732 -0.826857,-0.487559 -1.815617,-1.066097 -2.197242,-1.285642 l -0.693867,-0.399176 -0.03076,-3.2844271 c -0.01691,-1.806432 -0.07679,-3.3304562 -0.133047,-3.3867152 -0.09943,-0.099427 -1.002184,0.3500331 -1.426309,0.7101266 -0.190932,0.1621028 -0.202378,1.07347 -0.202378,16.1128247 0,15.863904 -0.0011,15.941001 -0.231289,15.941001 -0.230149,0 -0.231289,-0.07709 -0.231289,-15.655656 z m 11.889389,-4.20187 c 0.042,-0.433129 -0.146038,-0.842819 -0.386842,-0.842819 -0.125399,0 -0.169399,0.145169 -0.169399,0.558948 0,0.606684 0.06588,0.739341 0.341295,0.68728 0.107394,-0.02031 0.193455,-0.181814 0.214946,-0.403409 z M 34.870519,3.7647224 c 0.674822,-0.4361575 0.711796,-0.4838602 0.711796,-0.9183297 0,-0.2520511 -0.04838,-0.4881744 -0.107505,-0.5247185 -0.127708,-0.078926 -1.275324,0.5677717 -1.482602,0.835466 -0.152782,0.1973142 -0.197919,0.8600813 -0.06745,0.9905409 0.127373,0.1273745 0.204504,0.096144 0.945773,-0.3829587 z m 4.942853,32.9984066 c -0.09447,-0.24618 -0.05445,-20.11463 0.04082,-20.268787 0.04232,-0.06849 0.794889,0.302774 1.803378,0.889668 l 1.730735,1.007206 0.03327,9.280461 0.03327,9.280462 h -1.78446 c -1.544726,0 -1.794202,-0.02539 -1.856987,-0.18901 z"
       id="path883" />
  </g>
</svg>
