<?xml version="1.0" encoding="UTF-8" standalone="no"?>
<svg
   xmlns:dc="http://purl.org/dc/elements/1.1/"
   xmlns:cc="http://creativecommons.org/ns#"
   xmlns:rdf="http://www.w3.org/1999/02/22-rdf-syntax-ns#"
   xmlns:svg="http://www.w3.org/2000/svg"
   xmlns="http://www.w3.org/2000/svg"
   xmlns:sodipodi="http://sodipodi.sourceforge.net/DTD/sodipodi-0.dtd"
   xmlns:inkscape="http://www.inkscape.org/namespaces/inkscape"
   width="60mm"
   height="80mm"
   viewBox="0 0 60 80"
   version="1.1"
   id="svg8"
   inkscape:version="1.0.1 (3bc2e813f5, 2020-09-07)"
   sodipodi:docname="clientCard3.svg">
  <defs
     id="defs2">
    <inkscape:perspective
       sodipodi:type="inkscape:persp3d"
       inkscape:vp_x="0 : 64.999998 : 1"
       inkscape:vp_y="0 : 999.99997 : 0"
       inkscape:vp_z="50.000001 : 64.999998 : 1"
       inkscape:persp3d-origin="25 : 59.999998 : 1"
       id="perspective833" />
  </defs>
  <sodipodi:namedview
     id="base"
     pagecolor="#ffffff"
     bordercolor="#666666"
     borderopacity="1.0"
     inkscape:pageopacity="0.0"
     inkscape:pageshadow="2"
     inkscape:zoom="0.9899495"
     inkscape:cx="247.00032"
     inkscape:cy="72.687897"
     inkscape:document-units="mm"
     inkscape:current-layer="layer1"
     inkscape:document-rotation="0"
     showgrid="false"
     inkscape:window-width="1920"
     inkscape:window-height="1137"
     inkscape:window-x="-8"
     inkscape:window-y="-8"
     inkscape:window-maximized="1" />
  <metadata
     id="metadata5">
    <rdf:RDF>
      <cc:Work
         rdf:about="">
        <dc:format>image/svg+xml</dc:format>
        <dc:type
           rdf:resource="http://purl.org/dc/dcmitype/StillImage" />
        <dc:title></dc:title>
      </cc:Work>
    </rdf:RDF>
  </metadata>
  <g
     inkscape:label="Layer 1"
     inkscape:groupmode="layer"
     id="layer1">
    <path
       style="fill:#ffffff;stroke-width:0.264583"
       d="m 49.476474,37.412789 c -1.008345,-0.514428 -4.208286,-3.487983 -7.327002,-6.808641 l -2.989185,-3.182743 1.006317,-1.02084 1.006318,-1.02084 3.296749,3.906397 c 3.863109,4.57749 6.184916,7.894383 5.781601,8.259496 -0.101979,0.09232 -0.450637,0.03255 -0.774792,-0.132827 z m 0.760656,-4.260498 c -1.243168,0.701256 -1.321991,0.7057 -1.821785,0.102718 -0.287316,-0.346641 -0.504713,-0.985947 -0.483101,-1.420685 0.04861,-0.977847 -0.720787,-1.870083 -1.768158,-2.050447 -1.218763,-0.209877 -1.806953,-1.291396 -1.331374,-2.448032 0.209993,-0.510717 0.281889,-1.242443 0.159768,-1.626057 -0.190296,-0.597773 -0.346465,-0.707567 -1.092442,-0.768036 -0.478723,-0.03881 -1.120228,0.06264 -1.425568,0.225434 -0.47622,0.2539 -0.725999,0.146297 -1.756563,-0.756715 -1.51864,-1.330678 -1.82604,-2.456993 -1.158538,-4.244903 0.379944,-1.017684 0.676264,-1.401399 1.596167,-2.06693 3.383611,-2.447971 8.022758,-2.313812 11.66252,0.337266 2.797874,2.037879 3.793873,4.652275 2.943641,7.726756 -0.744043,2.690492 -3.029734,5.582327 -5.524565,6.989629 z m 2.818662,-5.309388 c 0.194874,-1.145171 -0.718203,-2.238092 -1.76063,-2.10741 -1.618511,0.202901 -2.393384,1.999339 -1.356456,3.144762 0.561418,0.620159 2.015104,0.699946 2.628899,0.14429 0.186664,-0.168984 0.406348,-0.700723 0.488187,-1.181642 z M 51.45202,21.663616 c 0.08851,-1.780279 -1.690498,-2.590158 -3.028637,-1.378768 -1.193468,1.080422 -0.459518,2.934496 1.215388,3.070265 1.082909,0.08778 1.756011,-0.540126 1.813247,-1.691499 z m -5.923308,-1.308794 c -0.06696,-0.691799 -0.224653,-0.948214 -0.775477,-1.260907 -1.420736,-0.806528 -3.155128,0.473533 -2.744739,2.025745 0.28035,1.060373 0.373094,1.146242 1.432749,1.326563 1.193152,0.203039 2.210849,-0.816576 2.087467,-2.091401 z m -1.455183,14.85934 c -4.341258,0.507046 -8.122269,-0.697826 -9.277152,-2.956294 -0.410458,-0.802687 -0.430845,-1.188917 -0.09992,-1.893132 0.438754,-0.933684 1.381913,-1.889488 2.693955,-2.730075 l 0.790601,-0.506513 3.603235,3.841313 c 1.981777,2.112724 3.525501,3.906596 3.430412,3.98646 -0.09505,0.07984 -0.608562,0.19604 -1.14113,0.258243 z m -3.409615,-3.784291 c 0.05571,-1.120636 -0.359034,-1.620213 -1.507318,-1.815616 -1.769067,-0.301041 -2.82176,1.716662 -1.599842,3.066431 1.109813,1.225933 3.022305,0.456042 3.10716,-1.250815 z m -2.238683,-5.038293 c -0.58911,-0.682144 -2.462326,-3.733617 -2.449562,-3.99035 0.03306,-0.665037 0.864751,-0.376542 2.360163,0.818691 0.905554,0.723779 1.830974,1.429981 2.05649,1.569339 0.352164,0.217619 0.269755,0.380364 -0.583926,1.153185 -0.903061,0.817523 -1.029548,0.858595 -1.383165,0.449135 z m -3.488098,-4.451839 c -1.070804,-0.05323 -2.28912,-1.587814 -2.667169,-3.359541 -0.14919,-0.699186 -0.226528,-1.311738 -0.171861,-1.361228 0.05467,-0.04949 0.609274,0.131002 1.232458,0.401091 2.653724,1.150129 3.874473,4.432426 1.606572,4.319678 z"
       id="path915" />
    <path
       style="fill:#ffffff;stroke-width:0.340155"
       d="M 5.2923937,38.152188 C 3.4051756,38.062063 2.7626824,37.90638 2.7626824,37.53923 c 0,-0.270682 0.3304949,-0.543124 0.7344328,-0.605424 0.6462412,-0.09968 0.7218123,-0.288071 0.6293396,-1.568965 -0.117139,-1.622615 0.5080924,-2.620776 1.6416234,-2.620776 0.6588076,0 0.6700885,-0.120792 0.5048613,-5.405751 L 6.1039348,21.932563 7.2065285,19.938905 c 0.6064263,-1.096511 1.3235103,-2.192762 1.5935173,-2.436112 0.4102298,-0.369728 0.4909243,-1.74814 0.4909243,-8.3858771 0,-6.4889408 0.083842,-7.9783569 0.4578626,-8.13422336 0.2518253,-0.1049426 1.1698643,0.12253356 2.0400893,0.50550236 0.870224,0.3829689 2.065222,0.8944975 2.655548,1.1367336 1.460055,0.5991201 1.7012,1.2474278 1.7012,4.5735968 0,2.7876127 0.01974,2.8591077 0.789339,2.8591077 1.701132,0 1.821976,0.22445 1.821976,3.384045 v 2.953719 l 1.224054,0.11002 1.224053,0.11002 0.199655,5.848846 c 0.109811,3.216864 0.219975,6.925564 0.24481,8.241555 0.04329,2.293534 0.0785,2.39271 0.849708,2.39271 0.969531,0 1.480349,0.90934 1.480349,2.635263 0,0.695183 0.146887,1.263967 0.326415,1.263967 0.179528,0 0.326414,0.319028 0.326414,0.708951 0,0.692443 -0.195713,0.707289 -8.40517,0.637617 C 11.604431,38.305105 6.6837343,38.218637 5.2923937,38.152195 Z M 8.638141,36.154984 c 0,-1.076003 0.7570181,-1.762908 1.616408,-1.466702 0.473513,0.163207 0.668492,0.533613 0.668492,1.269952 0,1.295533 0.572434,1.376237 0.712752,0.100481 0.214458,-1.949838 2.224977,-2.072278 2.224977,-0.135494 0,0.591002 0.146887,1.074549 0.326414,1.074549 0.179528,0 0.326415,-0.467794 0.326415,-1.039537 0,-0.736339 0.194979,-1.106745 0.668492,-1.269952 0.85939,-0.296207 1.616408,0.390699 1.616408,1.466702 0,0.463535 0.146887,0.842787 0.326414,0.842787 0.179528,0 0.326415,-0.467794 0.326415,-1.039537 0,-0.755924 0.193588,-1.106266 0.70956,-1.284107 0.734792,-0.253262 1.57534,0.549863 1.57534,1.505207 0,0.313564 0.476147,0.463962 1.468864,0.463962 1.402391,0 1.468865,-0.04641 1.468865,-1.025501 0,-0.608125 -0.210141,-1.113075 -0.516317,-1.240665 -0.283977,-0.11834 -4.265626,-0.215162 -8.848111,-0.215162 -7.4633988,0 -8.3111414,0.05844 -8.1336612,0.560705 0.108972,0.308387 0.1981297,0.85609 0.1981297,1.21712 0,0.639697 0.5608611,0.862486 2.5297114,1.004868 0.5694122,0.04117 0.7344321,-0.136254 0.7344321,-0.789676 z m 1.2022205,-0.287103 c -0.1041976,-0.282776 -0.1815451,-0.198783 -0.1972081,0.214163 -0.014175,0.373674 0.06298,0.583038 0.1714388,0.46525 0.1084662,-0.117791 0.1200629,-0.423527 0.025772,-0.679413 z m 5.8754575,0 c -0.104197,-0.282776 -0.181545,-0.198783 -0.197208,0.214163 -0.01417,0.373674 0.06297,0.583038 0.171439,0.46525 0.108466,-0.117791 0.120063,-0.423527 0.02577,-0.679413 z M 17.777742,22.1098 V 11.12106 H 16.961706 16.14567 V 22.1098 33.098542 h 0.816036 0.816036 z m 2.69274,2.995512 c -0.233932,-7.101584 -0.27319,-7.426455 -0.897462,-7.426455 -0.731239,0 -0.683111,-0.806989 -0.55867,9.367609 0.06177,5.05026 0.129287,5.660593 0.640274,5.787633 0.314175,0.07811 0.68131,0.04204 0.815858,-0.08016 0.134549,-0.122199 0.134549,-3.564081 0,-7.64863 z M 9.2909701,25.831793 c 0,-3.80175 -0.071604,-6.912272 -0.1591129,-6.912272 -0.087518,0 -0.5281707,0.634886 -0.9792436,1.410858 -0.7848613,1.350185 -0.82013,1.64744 -0.82013,6.912272 v 5.501414 h 0.979243 0.9792435 z m 2.9377289,-7.963227 c 0,-14.3441803 -0.02255,-14.8886064 -0.63137,-15.2424464 -0.347254,-0.2018213 -0.714469,-0.3669482 -0.816036,-0.3669482 -0.101569,0 -0.184666,6.8591017 -0.184666,15.2424476 v 15.242446 h 0.816035 0.816037 z m 2.611314,0.767375 c 0,-14.3548886 -0.04877,-14.9588667 -1.207733,-14.9588667 -0.338193,0 -0.42407,2.0329527 -0.423016,10.0139327 7.18e-4,5.507664 0.09685,12.047736 0.213581,14.533496 0.191332,4.074022 0.271648,4.519562 0.814713,4.519562 0.575573,0 0.602455,-0.629523 0.602455,-14.108124 z"
       id="path931" />
    <g
       id="g855"
       transform="translate(0.07478007,-1.4333281)">
      <path
         style="fill:#f8f7f7;stroke-width:0.446012"
         d="m 0.60853988,72.110293 c 0,-5.885541 0.12073093,-7.359196 0.60291122,-7.359196 0.433288,0 0.6801987,1.002247 0.8776234,3.562395 0.3058738,3.966491 0.9704224,5.605857 2.9464668,7.268589 2.2904272,1.927266 5.5118637,2.169651 26.8220947,2.018114 l 19.373256,-0.137759 2.230059,-1.11503 c 2.978722,-1.489363 4.217034,-3.731085 4.559045,-8.253271 0.216922,-2.868187 0.370395,-3.343038 1.080481,-3.343038 0.772747,0 0.827647,0.488147 0.827647,7.359196 v 7.359196 H 30.268332 0.60853988 Z M 4.7760166,66.464233 C 4.9369699,62.745632 5.068659,58.232455 5.068659,56.434952 V 53.16676 L 6.5548153,52.545804 C 8.098995,51.900603 9.97479,49.893501 9.97479,48.886428 c 0,-0.361278 1.100451,0.0631 2.918453,1.12548 1.605149,0.937994 4.364847,2.160945 6.132663,2.717671 1.767817,0.556721 3.495941,1.231381 3.840276,1.499237 0.891467,0.693469 12.971975,0.64711 14.359317,-0.0551 0.589076,-0.298168 2.375632,-0.96571 3.970125,-1.483431 3.782807,-1.228246 7.843886,-3.509579 11.159668,-6.269001 l 2.666701,-2.219248 v 7.750554 c 0,4.262803 0.131689,10.793046 0.292642,14.511647 l 0.292641,6.76109 H 30.045326 4.4833743 Z M 33.452132,63.636068 c 0.141199,-0.36796 0.536311,-0.669018 0.878025,-0.669018 0.341715,0 0.648632,-0.451587 0.682039,-1.003527 l 0.06074,-1.003527 0.193287,1.003527 c 0.277278,1.439593 1.109998,1.242331 0.941393,-0.223006 -0.129299,-1.123722 -0.319151,-1.237946 -2.264938,-1.362687 -1.865162,-0.119575 -2.174044,-0.01093 -2.536297,0.892024 -0.381338,0.950532 -0.414623,0.918713 -0.440759,-0.421361 -0.02575,-1.320333 -0.920232,-2.187291 -0.920342,-0.892023 -3.2e-5,0.370917 -0.73894,0.557515 -2.207675,0.557515 -1.214196,0 -2.458547,-0.250882 -2.765227,-0.557515 -0.306679,-0.306633 -1.019221,-0.557515 -1.583426,-0.557515 -0.904906,0 -1.025828,0.217221 -1.025828,1.842774 v 1.842774 l 1.783963,-0.239281 c 0.981179,-0.131605 1.882804,-0.07935 2.003611,0.116119 0.120807,0.195469 1.227338,0.267112 2.458958,0.159208 1.736331,-0.152121 2.298813,-0.04112 2.504226,0.494173 0.338948,0.883286 1.901774,0.898187 2.238251,0.02136 z m -9.650973,-2.23006 c 0,-0.664874 0.192052,-1.048979 0.446012,-0.892023 0.245307,0.151608 0.446012,0.553019 0.446012,0.892023 0,0.339005 -0.200705,0.740416 -0.446012,0.892024 -0.25396,0.156956 -0.446012,-0.227149 -0.446012,-0.892024 z M 47.691961,36.38675 c -0.323599,-1.289319 0.313092,-2.057644 1.531877,-1.848584 0.734145,0.125929 1.221074,2.560195 0.512115,2.560195 -0.241537,0 -0.731869,0.112324 -1.089625,0.249608 -0.438211,0.168156 -0.749639,-0.145507 -0.954367,-0.961219 z m 1.531877,-0.180413 c 0,-0.245306 -0.312904,-0.446011 -0.695341,-0.446011 -0.382438,0 -0.571297,0.200705 -0.419689,0.446011 0.151609,0.245307 0.464513,0.446012 0.695342,0.446012 0.230829,0 0.419688,-0.200705 0.419688,-0.446012 z M 41.641636,27.77983 c 0,-0.219061 0.301058,-0.51382 0.669017,-0.65502 0.36796,-0.141199 0.669018,-0.764789 0.669018,-1.385754 0,-0.906954 -0.219319,-1.129027 -1.115029,-1.129027 -1.096446,0 -1.11503,-0.05947 -1.11503,-3.568095 V 17.473839 H 38.07354 c -2.081389,0 -2.676071,0.14867 -2.676071,0.669017 0,0.36796 -0.301058,0.669018 -0.669018,0.669018 -0.467251,0 -0.669018,-0.47079 -0.669018,-1.561041 v -1.561042 h 9.36625 9.36625 v 6.244166 6.244167 h -5.575149 c -3.066331,0 -5.575148,-0.179232 -5.575148,-0.398294 z m 5.575148,-1.831766 c 0,-0.931971 -0.237974,-1.137974 -1.449538,-1.254791 -1.271048,-0.122552 -1.449539,-0.0081 -1.449539,0.929191 0,1.390861 0.385378,1.733773 1.767358,1.572609 0.874634,-0.101998 1.131719,-0.385275 1.131719,-1.247009 z m 4.237114,0 c 0,-1.189365 -0.14867,-1.338035 -1.338036,-1.338035 -1.10441,0 -1.338036,0.181708 -1.338036,1.040694 0,1.308508 0.326869,1.635377 1.635379,1.635377 0.858983,0 1.040693,-0.233626 1.040693,-1.338036 z"
         id="path871" />
      <path
         style="fill:#e7dbce;stroke-width:0.446012"
         d="M 8.529215,77.073014 C 4.1701401,76.11515 2.5177388,73.872299 2.0906379,68.333768 1.882705,65.63735 1.6465448,64.737146 1.1015114,64.563389 c -0.39378758,-0.125539 0.1184663,-0.156252 1.138342,-0.06824 1.0198756,0.08801 2.0234024,-0.0099 2.2300595,-0.217628 0.2066571,-0.207703 0.3126508,1.720585 0.2355415,4.285082 l -0.1401986,4.66272 H 30.01663 55.468005 v -4.185094 c 0,-4.622744 0.126837,-4.799757 3.345089,-4.668313 0.936763,0.03827 1.055871,0.110151 0.39716,0.239727 -0.827486,0.162772 -0.971137,0.585216 -1.191984,3.505301 -0.340156,4.497659 -1.583829,6.743717 -4.557319,8.230462 l -2.230059,1.11503 -20.070536,0.08662 C 16.375344,77.612871 10.415491,77.487506 8.529215,77.073014 Z M 31.72065,64.008773 c 0.308161,-0.124237 0.446845,-0.409452 0.308186,-0.633805 -0.138659,-0.224353 -0.03956,-0.407918 0.220227,-0.407918 0.259784,0 0.472334,0.212551 0.472334,0.472335 0,0.259784 0.231717,0.329126 0.514925,0.154093 0.319032,-0.197173 0.393856,-0.12235 0.196684,0.196682 -0.175033,0.283209 -0.757983,0.499079 -1.295446,0.479713 -0.537462,-0.01936 -0.725072,-0.136859 -0.41691,-0.2611 z m -4.802829,-1.258195 c 0.244032,-0.294042 0.311632,-0.666681 0.150222,-0.828092 -0.161409,-0.161408 8.97e-4,-0.293472 0.36068,-0.293472 0.639834,0 1.725581,0.828837 1.723562,1.315735 -5.8e-4,0.134919 -0.603374,0.266715 -1.339588,0.292878 -0.992813,0.03528 -1.223963,-0.09053 -0.894876,-0.487049 z m 4.05474,-0.04371 c 0.0214,-0.519582 0.127087,-0.625264 0.269466,-0.269467 0.12884,0.321962 0.112994,0.706648 -0.03521,0.854857 -0.148206,0.148206 -0.253621,-0.115222 -0.234254,-0.58539 z m -5.952303,-0.241186 c 0.302545,-0.304813 0.662435,-0.44185 0.799757,-0.304528 0.137321,0.137323 -0.110215,0.386715 -0.550082,0.554206 -0.635655,0.242042 -0.686885,0.190813 -0.249675,-0.249678 z m 7.881555,-0.01356 c -0.203392,-0.329095 -0.121646,-0.393423 0.226514,-0.178249 0.366907,0.226761 0.498613,0.06725 0.403421,-0.488602 -0.07773,-0.453901 -0.542743,-0.955798 -1.033357,-1.115328 -0.559736,-0.182004 -0.112647,-0.306611 1.200211,-0.334509 1.150729,-0.02444 2.21935,0.16122 2.374714,0.412606 0.155364,0.251381 0.03445,0.40191 -0.268703,0.334509 -0.303151,-0.06741 -0.715751,0.379208 -0.916888,0.992474 -0.360786,1.10003 -0.363649,1.098532 -0.212836,-0.111503 0.08408,-0.674593 -0.02,-1.226533 -0.231293,-1.226533 -0.21129,0 -0.384163,0.501764 -0.384163,1.11503 0,1.165532 -0.61207,1.482825 -1.15762,0.600105 z m -9.485927,-1.343459 c -0.03341,-0.654148 -0.31162,-1.290598 -0.618254,-1.414326 -0.306633,-0.123729 -0.03903,-0.240807 0.594683,-0.260173 0.727485,-0.02221 1.152198,0.204162 1.152198,0.614186 0,0.35717 -0.152906,0.554896 -0.33979,0.439397 -0.186884,-0.115499 -0.427159,0.244562 -0.533943,0.800141 -0.173127,0.900734 -0.200733,0.881324 -0.254894,-0.179225 z m 5.983494,0.03702 c 0.242911,-0.39304 0.06578,-0.477639 -0.622962,-0.297526 -0.579068,0.15143 -0.853266,0.07511 -0.688425,-0.191607 0.150677,-0.243799 0.652717,-0.344223 1.115646,-0.223166 0.53026,0.138651 0.841687,-0.01199 0.841687,-0.407169 0,-0.344995 0.200705,-0.627262 0.446012,-0.627262 0.792297,0 0.473493,1.106301 -0.492684,1.709688 -0.690545,0.431249 -0.848967,0.441039 -0.599274,0.03702 z m -3.451788,-6.511524 c 0.321964,-0.12884 0.70665,-0.112997 0.854856,0.03519 0.148206,0.14821 -0.11522,0.25362 -0.585391,0.234255 -0.519578,-0.02141 -0.625264,-0.127087 -0.269465,-0.269463 z m 7.13619,0 c 0.321965,-0.12884 0.70665,-0.112997 0.854856,0.03519 0.148206,0.14821 -0.11522,0.25362 -0.58539,0.234255 -0.519579,-0.02141 -0.625264,-0.127087 -0.269466,-0.269463 z M 22.663829,54.113893 C 22.430788,53.90548 20.798414,53.282504 19.036333,52.729507 17.274252,52.176511 14.572825,50.991622 13.033163,50.096423 10.827363,48.813916 10.175293,48.185378 9.9579624,47.132192 9.4523562,44.682024 8.3856286,43.538589 5.8491798,42.727951 5.1259742,42.496817 5.068659,41.362289 5.068659,27.27784 V 12.077181 l 2.5645685,0.13376 2.5645685,0.133761 0.223006,2.226188 c 0.259775,2.593239 1.151936,3.089048 2.726025,1.514959 l 0.996822,-0.996822 -1.415412,-1.181638 c -0.778476,-0.6499 -1.415411,-1.295613 -1.415411,-1.434916 0,-0.139303 1.52505,-0.33029 3.389002,-0.424416 2.511673,-0.126833 3.530303,-0.364377 3.934828,-0.917598 0.508655,-0.695627 0.591447,-0.693178 1.215747,0.03595 0.514683,0.601106 1.334038,0.776603 3.535871,0.757346 2.75432,-0.02409 2.871239,-0.07068 3.001726,-1.196127 0.112661,-0.9716973 0.416383,-1.2145138 1.784048,-1.4262936 0.90655,-0.1403773 2.054201,-0.3775129 2.550336,-0.5269684 0.746069,-0.2247449 1.018966,0.048886 1.578067,1.582308 l 0.676003,1.854047 11.02177,-0.06512 11.021769,-0.06512 v 8.67608 c 0,8.043041 -0.05695,8.661247 -0.780521,8.472778 -0.515523,-0.13428 -1.499795,0.559333 -2.899077,2.042973 -1.165206,1.235452 -2.118557,2.436082 -2.118557,2.668068 0,0.231985 -0.401411,0.549194 -0.892024,0.704909 -0.490613,0.155714 -0.892024,0.582495 -0.892024,0.948402 0,0.365906 0.161158,0.565682 0.35813,0.443947 0.196972,-0.121736 0.313881,0.417844 0.259798,1.199068 -0.08673,1.252678 -0.03104,1.328374 0.471559,0.641027 0.313439,-0.428658 0.821429,-0.779379 1.128861,-0.779379 0.364195,0 0.492245,-0.454603 0.367487,-1.304635 -0.176518,-1.202713 -0.05093,-1.340308 1.607529,-1.761272 1.892728,-0.480425 2.797137,-0.353165 1.167026,0.164212 -1.463976,0.464649 -0.942089,1.760361 0.775927,1.926427 l 1.445886,0.139762 v 3.969588 3.969589 l -2.666701,2.219248 c -3.315782,2.759422 -7.376861,5.040755 -11.159668,6.269001 -1.594493,0.517721 -3.350362,1.168841 -3.901932,1.446934 -0.551571,0.278092 -1.136961,0.371518 -1.300869,0.207609 -0.163907,-0.163905 0.0365,-0.298012 0.44534,-0.298012 0.609702,0 0.743353,-0.472563 0.743353,-2.628352 0,-1.924871 0.179064,-2.697065 0.669018,-2.885081 0.532488,-0.204332 0.669018,-1.159917 0.669018,-4.68249 v -4.425766 l 1.226533,-0.30442 c 3.145902,-0.780799 3.863307,-3.078226 2.616155,-8.378011 l -0.603497,-2.564568 h 5.516594 5.516596 V 21.93395 15.689784 h -9.36625 -9.36625 v 1.561042 c 0,1.090251 -0.201767,1.561041 -0.669018,1.561041 -0.400764,0 -0.669018,0.411322 -0.669018,1.025828 0,0.564205 -0.240846,1.266673 -0.535214,1.561041 -0.888024,0.888024 -2.911757,0.635927 -3.678101,-0.458181 l -0.695802,-0.993396 -2.003665,1.094548 c -1.382937,0.755461 -2.261961,1.643354 -2.837423,2.866052 l -0.833757,1.771504 -1.884523,-3.433698 c -1.901362,-3.464379 -2.845692,-4.17767 -3.364937,-2.541674 -0.276981,0.872689 -0.722931,1.082461 -1.943633,0.914275 -0.333079,-0.04589 -0.908495,0.349009 -1.278704,0.877555 -0.424991,0.606761 -0.982684,0.880037 -1.512959,0.741367 -0.461919,-0.120795 -0.839853,-0.04452 -0.839853,0.169498 0,0.899185 1.548649,3.541471 2.075662,3.541471 0.325571,0 0.461705,0.288501 0.315687,0.669018 -0.299057,0.779329 0.02026,0.84194 1.166172,0.228665 0.6992,-0.374201 0.805728,-0.284765 0.709117,0.595344 -0.06253,0.569634 -0.447499,1.704832 -0.855487,2.522661 l -0.741795,1.486964 1.853459,2.844798 c 1.019402,1.564638 2.185349,3.08624 2.590993,3.381337 0.405644,0.295097 1.478649,1.871679 2.384456,3.503517 1.453597,2.618696 1.613928,3.207695 1.365848,5.017634 -0.19166,1.39831 -0.119905,2.050656 0.225562,2.050656 0.325535,0 0.506635,1.023009 0.506635,2.861911 0,1.872206 0.1928,2.939704 0.557515,3.08687 0.306633,0.123729 0.346775,0.240807 0.0892,0.260173 -0.257572,0.01936 -0.658983,-0.135307 -0.892024,-0.343719 z m 23.591835,-16.36575 c -0.145261,-0.378539 -0.359766,-0.592598 -0.476675,-0.475685 -0.116913,0.116912 -0.08027,0.426626 0.08142,0.688253 0.43979,0.711595 0.69684,0.573353 0.395255,-0.212568 z M 27.675291,10.772167 c 0.07391,-0.484291 -0.06507,-0.8805302 -0.308835,-0.8805302 -0.243768,0 -0.443213,0.5352142 -0.443213,1.1893652 0,1.309295 0.538875,1.088001 0.752048,-0.308835 z m 3.262059,-0.434518 c 0,-0.245307 -0.351235,-0.4429387 -0.780521,-0.4391824 -0.667032,0.00584 -0.683244,0.069694 -0.111503,0.4391824 0.841719,0.54396 0.892024,0.54396 0.892024,0 z m -3.411044,26.945654 c -0.628202,-0.958758 -0.652316,-1.216887 -0.14308,-1.531612 0.336851,-0.208186 0.758699,-0.288136 0.937441,-0.177667 0.611873,0.378158 0.874302,-0.686509 0.391556,-1.588528 -0.675327,-1.26186 -0.296907,-1.124598 1.298794,0.471102 0.90647,0.90647 1.372345,1.814926 1.372345,2.676072 0,1.190986 -0.134104,1.303727 -1.55076,1.303727 -1.175628,0 -1.733526,-0.278936 -2.306296,-1.153094 z M 41.198368,26.178288 c -0.602309,-1.584191 -0.609378,-1.568259 0.695899,-1.568259 0.978567,0 1.124177,0.172977 1.003526,1.192136 -0.191043,1.61378 -1.148317,1.825647 -1.699425,0.376123 z m 3.437156,0.830947 c -0.174799,-0.1748 -0.317817,-0.798847 -0.317817,-1.386771 0,-0.937326 0.178491,-1.051743 1.449539,-0.929191 1.211564,0.116817 1.449538,0.32282 1.449538,1.254791 0,0.861734 -0.257085,1.145011 -1.131719,1.247009 -0.62245,0.07259 -1.274741,-0.01104 -1.449541,-0.185838 z m 4.439645,-0.02048 c -0.163539,-0.163538 -0.297343,-0.765654 -0.297343,-1.338036 0,-0.858986 0.233626,-1.040694 1.338036,-1.040694 1.189366,0 1.338036,0.14867 1.338036,1.338035 0,1.10441 -0.18171,1.338036 -1.040693,1.338036 -0.572385,0 -1.174501,-0.133804 -1.338036,-0.297341 z M 40.3036,23.321404 c 0,-1.351001 -1.393298,-2.675605 -3.791101,-3.604186 -1.226533,-0.474991 -1.979178,-0.873008 -1.672545,-0.884482 0.306633,-0.01147 0.557515,-0.32192 0.557515,-0.68988 0,-0.520347 0.594682,-0.669017 2.676071,-0.669017 h 2.676072 v 3.345089 c 0,1.839799 -0.100353,3.345089 -0.223006,3.345089 -0.122653,0 -0.223006,-0.379176 -0.223006,-0.842613 z"
         id="path869" />
      <path
         style="fill:#9baea7;stroke-width:0.446012"
         d="m 55.830389,64.446422 c 0.321963,-0.128839 0.706648,-0.112997 0.854858,0.03519 0.148205,0.148205 -0.115223,0.25362 -0.585391,0.234254 -0.519581,-0.02141 -0.625264,-0.127087 -0.269467,-0.269463 z M 4.7959405,58.283925 c 7.806e-4,-3.188985 0.071822,-4.435048 0.1578697,-2.769024 0.086048,1.666019 0.08541,4.275188 -0.00142,5.798154 -0.086829,1.522961 -0.1572315,0.159855 -0.1564513,-3.02913 z m 26.5874215,4.460119 c 0,-0.613266 0.250881,-1.118103 0.557515,-1.121858 0.371676,-0.0046 0.334508,-0.150948 -0.111503,-0.439184 -0.513302,-0.331721 -0.357586,-0.43235 0.669017,-0.43235 0.73592,0 1.130616,0.147451 0.877102,0.327676 -0.531799,0.378057 -0.560893,0.99412 -0.08248,1.746399 0.184225,0.289685 0.09997,0.671931 -0.187245,0.849435 -0.326136,0.201561 -0.402714,0.129405 -0.203959,-0.192187 0.19047,-0.308185 0.0285,-0.514925 -0.403422,-0.514925 -0.396914,0 -0.597619,0.200705 -0.446011,0.446012 0.151607,0.245306 0.0631,0.446012 -0.196684,0.446012 -0.259784,0 -0.472334,-0.501764 -0.472334,-1.11503 z M 55.021993,50.107042 V 36.206337 h -1.352032 c -1.369319,0 -2.47343,-1.326581 -1.401503,-1.683891 0.290969,-0.09699 0.39642,-0.390918 0.234335,-0.653175 -0.162081,-0.262256 -0.09239,-0.351799 0.154868,-0.198983 0.659095,0.407343 3.256356,-0.682837 3.256356,-1.366832 0,-0.321878 -0.299908,-0.700318 -0.666458,-0.840977 -0.36655,-0.140658 -0.551895,-0.441101 -0.411883,-0.667649 0.140016,-0.226549 0.231721,-4.56163 0.203787,-9.633514 -0.02792,-5.071884 0.05007,-9.120749 0.173343,-8.997478 0.123268,0.123271 0.2461,4.37903 0.272959,9.457243 0.02686,5.078213 0.22103,9.233114 0.431494,9.233114 0.772413,0 1.012648,1.902273 0.291224,2.306005 -0.612335,0.342677 -0.702813,2.255697 -0.728619,15.405202 -0.01619,8.257665 -0.125855,15.110329 -0.243669,15.228139 -0.11781,0.117814 -0.214202,-6.041115 -0.214202,-13.686499 z M 22.760465,62.669707 c -0.469843,-0.469842 -0.345901,-2.82474 0.14867,-2.82474 0.245307,0 0.446012,0.384997 0.446012,0.855544 0,0.470552 0.121826,1.17302 0.270725,1.561042 0.269923,0.70341 -0.300922,0.97264 -0.865407,0.408154 z m 1.486706,0.157982 c 0,-0.13672 0.190653,-0.750036 0.423673,-1.362923 0.271521,-0.714154 0.267517,-1.193091 -0.01115,-1.33362 -0.239152,-0.120602 -0.178923,-0.163334 0.133843,-0.09496 0.312766,0.06838 0.500646,0.494119 0.417513,0.946094 -0.11775,0.640169 -0.01919,0.713173 0.446012,0.330356 0.32844,-0.270279 1.309668,-0.490296 2.180506,-0.488931 1.368449,0.0022 1.583342,0.146189 1.583342,1.061312 0,0.950125 -0.07458,0.991337 -0.726438,0.40141 -0.935646,-0.846749 -1.771228,-0.841276 -1.771228,0.0116 0,0.36796 -0.181916,0.669018 -0.404257,0.669018 -0.222341,0 -0.305283,-0.451587 -0.184316,-1.003527 0.125094,-0.570766 0.059,-0.811188 -0.153258,-0.557515 -0.593336,0.709097 -1.934241,1.694676 -1.934241,1.421681 z m 5.798155,-0.975669 c 0,-0.613266 0.198457,-1.11503 0.441016,-1.11503 0.242559,0 0.399488,0.501764 0.348733,1.11503 -0.05076,0.613266 -0.249213,1.11503 -0.441016,1.11503 -0.191803,0 -0.348733,-0.501764 -0.348733,-1.11503 z m 5.575149,0.04259 c 0,-0.589841 0.150529,-0.979406 0.334509,-0.8657 0.18398,0.113706 0.334509,0.596305 0.334509,1.07244 0,0.476131 -0.150529,0.865696 -0.334509,0.865696 -0.18398,0 -0.334509,-0.482598 -0.334509,-1.07244 z m -8.139718,-7.263227 c 0.429287,-0.112181 1.131756,-0.112181 1.561042,0 0.429287,0.112185 0.07805,0.203974 -0.780521,0.203974 -0.858573,0 -1.209807,-0.09179 -0.780521,-0.203974 z m 3.122084,0 c 0.429286,-0.112181 1.131755,-0.112181 1.561041,0 0.429287,0.112185 0.07805,0.203974 -0.78052,0.203974 -0.858573,0 -1.209808,-0.09179 -0.780521,-0.203974 z m -6.467173,-0.433948 c 0.306633,-0.123728 0.808397,-0.123728 1.11503,0 0.306633,0.123729 0.05575,0.224964 -0.557515,0.224964 -0.613266,0 -0.864148,-0.101235 -0.557515,-0.224964 z m 10.732162,-0.0093 c 0.321965,-0.128839 0.70665,-0.112997 0.854856,0.03519 0.148206,0.14821 -0.11522,0.25362 -0.585391,0.234254 -0.519578,-0.02141 -0.625264,-0.127086 -0.269465,-0.269462 z m -11.81234,-3.0404 c 0.002,-1.717146 0.08259,-2.36496 0.179144,-1.439592 0.09655,0.925372 0.09493,2.330309 -0.0036,3.122083 -0.09851,0.791778 -0.17751,0.03465 -0.175531,-1.682491 z M 5.5146709,52.537789 c 0,-0.09404 0.4016877,-0.276028 0.8926393,-0.404417 0.4909516,-0.128384 0.7801645,-0.05144 0.6426956,0.170988 -0.2400664,0.388436 -1.5353349,0.585364 -1.5353349,0.233429 z m 2.2300595,-0.889432 c 0,-0.09261 0.3512344,-0.443849 0.7805209,-0.780521 0.7073998,-0.554781 0.7231753,-0.539005 0.168394,0.168396 -0.5826561,0.742944 -0.9489149,0.97921 -0.9489149,0.612125 z m 1.819259,-3.213859 c 0.0214,-0.519582 0.1270871,-0.625264 0.2694657,-0.269467 0.1288399,0.321962 0.1129944,0.706648 -0.035213,0.854857 C 9.6500362,49.168094 9.5446218,48.904666 9.563988,48.434498 Z M 3.4466319,48.149982 c -0.1444857,-0.233781 -0.039343,-0.648421 0.233651,-0.921411 0.3644617,-0.364463 0.4963523,-0.36238 0.4963523,0.0078 0,0.277308 0.451587,0.574338 1.0035268,0.660071 0.9112982,0.141555 0.8898249,0.179898 -0.2336511,0.417221 -0.6804477,0.143737 -1.3553933,0.07006 -1.499879,-0.163722 z m 33.7348841,0.369401 c 0,-0.09641 0.311483,-0.294814 0.692183,-0.440905 0.396917,-0.152309 0.575945,-0.07754 0.41969,0.175287 -0.261924,0.423805 -1.111873,0.626847 -1.111873,0.265618 z M 22.120588,46.910622 c 0,-0.858572 0.09179,-1.209807 0.203971,-0.78052 0.112184,0.429286 0.112184,1.131755 0,1.561041 -0.112184,0.429287 -0.203971,0.07805 -0.203971,-0.780521 z M 9.5639894,46.65045 c 0.0214,-0.519581 0.1270871,-0.625264 0.2694657,-0.269467 0.1288399,0.321963 0.1129944,0.706648 -0.035213,0.854858 C 9.6500362,47.384046 9.5446218,47.120618 9.563988,46.65045 Z M 6.8527066,43.342527 C 6.4507197,43.082743 6.3957081,42.907449 6.7148814,42.903345 c 0.292156,-0.0038 0.6552352,0.193876 0.8068431,0.439182 0.3422271,0.553735 0.1878259,0.553735 -0.6690179,0 z M 4.8255077,42.33583 C 4.7071723,42.027453 4.6634867,35.052942 4.7284285,26.836917 L 4.8465046,11.89869 5.0690849,27.397802 C 5.191504,35.922313 5.2351896,42.896824 5.1661639,42.896714 5.0971386,42.896605 4.9438431,42.644207 4.8255077,42.33583 Z M 20.233064,40.220444 c -0.500584,-0.981226 -0.809801,-1.784047 -0.687147,-1.784047 0.122653,0 0.632575,0.802821 1.133159,1.784047 0.500584,0.981226 0.8098,1.784048 0.687147,1.784048 -0.122653,0 -0.632575,-0.802822 -1.133159,-1.784048 z m 9.031741,-1.645483 c 0.429287,-0.112184 1.131755,-0.112184 1.561042,0 0.429286,0.112185 0.07805,0.203972 -0.780521,0.203972 -0.858573,0 -1.209807,-0.09179 -0.780521,-0.203972 z m -1.904496,-0.81836 c -0.310299,-0.373888 -0.477806,-0.766171 -0.372237,-0.87174 0.105569,-0.105569 0.436929,0.200339 0.736355,0.679796 0.647526,1.036854 0.431573,1.150693 -0.364118,0.191944 z m 18.5001,0.20411 c -0.161693,-0.261627 -0.198333,-0.571341 -0.08142,-0.688253 0.116909,-0.116913 0.331414,0.09715 0.476675,0.475685 0.301585,0.785921 0.04456,0.924163 -0.395255,0.212568 z m -28.122787,-0.973853 -0.849647,-1.003527 1.003526,0.849648 c 0.943068,0.798458 1.20657,1.157406 0.849648,1.157406 -0.08463,0 -0.536221,-0.451587 -1.003527,-1.003527 z m 13.732689,-0.111503 c 0.0091,-0.735919 0.109049,-0.982981 0.222133,-0.549026 0.113083,0.433955 0.105646,1.036071 -0.01652,1.338035 -0.122175,0.301965 -0.214697,-0.05309 -0.205608,-0.789009 z m -2.957351,-1.69178 c 0.167491,-0.439866 0.416883,-0.687403 0.554205,-0.550081 0.137321,0.137321 2.82e-4,0.497211 -0.30453,0.799756 -0.440489,0.437211 -0.491719,0.38598 -0.249675,-0.249675 z M 49.223838,33.69866 c 0,-0.619419 0.112404,-0.637594 0.780521,-0.126206 0.429286,0.328582 0.864148,0.654215 0.966361,0.723629 0.102208,0.06941 -0.249027,0.126207 -0.780521,0.126207 -0.594061,0 -0.966361,-0.278787 -0.966361,-0.72363 z m 1.338036,-0.368493 c 0,-0.122653 0.602116,-0.534372 1.338036,-0.914931 0.735919,-0.380558 1.338035,-0.591572 1.338035,-0.468919 0,0.122654 -0.602116,0.534373 -1.338035,0.914931 -0.73592,0.380559 -1.338036,0.591573 -1.338036,0.468919 z m 1.784047,-3.14499 c 0.576136,-0.613266 1.14787,-1.11503 1.270523,-1.11503 0.122654,0 -0.248375,0.501764 -0.824511,1.11503 -0.576136,0.613266 -1.147869,1.11503 -1.270523,1.11503 -0.122653,0 0.248376,-0.501764 0.824511,-1.11503 z M 14.761039,29.926419 c 0.157714,-0.603099 0.359888,-0.805273 0.471234,-0.471234 0.107257,0.321771 -0.01704,0.797094 -0.276221,1.056272 -0.330971,0.330971 -0.389017,0.156834 -0.195013,-0.585038 z m 0.719025,-2.035229 c 0.05237,-0.620607 -0.193856,-0.799298 -0.982686,-0.713163 -0.801697,0.08754 -0.987724,-0.05403 -0.780521,-0.593993 0.149622,-0.389909 0.27204,-0.800986 0.27204,-0.913503 0,-0.112518 0.545746,0.301466 1.212769,0.919965 0.898862,0.833472 1.082802,1.254509 0.710645,1.626666 -0.372156,0.372156 -0.484037,0.287783 -0.432247,-0.325972 z m 5.511841,-3.504167 c -0.409426,-0.858573 -0.667129,-1.561042 -0.572674,-1.561042 0.09445,0 0.586201,0.702469 1.092772,1.561042 0.50657,0.858573 0.764273,1.561041 0.572674,1.561041 -0.1916,0 -0.683348,-0.702468 -1.092772,-1.561041 z m -9.643868,-1.821215 c 0.0214,-0.519579 0.127087,-0.625264 0.269466,-0.269466 0.12884,0.321965 0.112994,0.70665 -0.03521,0.854856 -0.148206,0.148206 -0.253621,-0.11522 -0.234254,-0.58539 z m 2.238956,-0.966359 c 0.339062,-0.55194 0.902708,-1.003527 1.252544,-1.003527 0.349836,0 0.552439,0.05232 0.450228,0.116256 -0.102211,0.06394 -0.665856,0.515528 -1.252544,1.003527 l -1.066706,0.88727 z m 16.34683,0.485135 c 0.306633,-0.123729 0.808397,-0.123729 1.11503,0 0.306633,0.12373 0.05575,0.224962 -0.557515,0.224962 -0.613267,0 -0.864148,-0.101232 -0.557515,-0.224962 z M 16.410104,20.341058 c 0.385482,-0.385482 0.700877,-0.887245 0.700877,-1.11503 0,-0.823673 1.318177,-0.390369 1.792959,0.589373 0.476727,0.983753 0.471879,0.98595 -0.246061,0.111503 -0.729142,-0.88809 -0.73539,-0.887598 -1.417042,0.111503 -0.376568,0.55194 -0.875232,1.003527 -1.108139,1.003527 -0.232908,0 -0.108075,-0.315395 0.277406,-0.700876 z m 16.346505,-0.897333 c 0.0214,-0.519579 0.127087,-0.625264 0.269465,-0.269466 0.12884,0.321965 0.112995,0.70665 -0.03521,0.854856 -0.148206,0.148206 -0.253621,-0.11522 -0.234255,-0.58539 z M 10.57471,16.339573 c -0.145259,-0.378539 -0.13896,-0.813401 0.014,-0.966359 0.152958,-0.152958 0.278106,0.04169 0.278106,0.432544 0,0.390858 0.351234,0.802437 0.780521,0.914621 0.731499,0.191161 0.73062,0.207221 -0.014,0.25571 -0.436985,0.02846 -0.913367,-0.257976 -1.058627,-0.636516 z m 2.256781,-2.09932 -0.849647,-1.003527 1.003526,0.849647 c 0.943068,0.798459 1.20657,1.157406 0.849648,1.157406 -0.08463,0 -0.536221,-0.451587 -1.003527,-1.003526 z m -2.21394,-1.435354 c -0.7348589,-0.55582 -0.7549638,-0.656978 -0.132964,-0.669018 0.403041,-0.0078 0.848329,0.286873 0.989528,0.654833 0.318927,0.83111 0.225552,0.832656 -0.856564,0.01418 z m 22.38592,-0.587629 c -0.11912,-0.192741 0.155357,-0.350438 0.60995,-0.350438 0.454593,0 0.72907,0.157697 0.60995,0.350438 -0.11912,0.192741 -0.393598,0.350438 -0.60995,0.350438 -0.216352,0 -0.490829,-0.157697 -0.60995,-0.350438 z m -16.08979,-0.58318 c 0.137469,-0.22243 0.515748,-0.404418 0.840621,-0.404418 0.324872,0 0.706477,-0.442822 0.848011,-0.984049 0.141534,-0.5412269 0.381909,-0.8594746 0.534167,-0.7072169 0.465672,0.4656719 -0.603977,2.0114079 -1.565979,2.2629769 -0.49872,0.130418 -0.794289,0.05514 -0.65682,-0.167293 z m 4.217778,-0.143182 c 0.288846,-0.288846 0.590435,-0.288846 0.879281,0 0.288846,0.288846 0.138051,0.43964 -0.43964,0.43964 -0.577692,0 -0.728486,-0.150794 -0.439641,-0.43964 z m 5.892304,-0.505431 c -0.04979,-0.601612 0.106669,-1.0938402 0.347689,-1.0938402 0.241019,0 0.377747,0.3962392 0.303839,0.8805302 -0.203126,1.331001 -0.549635,1.444449 -0.651528,0.21331 z m -0.905595,-0.424822 c 0.0091,-0.73592 0.109049,-0.982982 0.222133,-0.549027 0.113083,0.433955 0.105646,1.036071 -0.01653,1.338036 -0.122174,0.301964 -0.214697,-0.05309 -0.205608,-0.789009 z m 3.927158,-0.223006 c -0.571741,-0.3694881 -0.555529,-0.4333459 0.111503,-0.4391824 0.429286,-0.00376 0.780521,0.1938754 0.780521,0.4391824 0,0.54396 -0.0503,0.54396 -0.892024,0 z"
         id="path867" />
      <path
         style="fill:#62938b;stroke-width:0.446012"
         d="m 1.3942609,63.989639 c 0.5547998,-0.106681 1.3576212,-0.102632 1.7840476,0.009 0.4264264,0.111623 -0.027501,0.198912 -1.0087269,0.193961 -0.9812262,-0.005 -1.33012056,-0.09629 -0.7753207,-0.202971 z m 55.7462881,6.83e-4 c 0.55194,-0.106312 1.455114,-0.106312 2.007054,0 0.55194,0.106306 0.100353,0.193288 -1.003527,0.193288 -1.103879,0 -1.555466,-0.08698 -1.003527,-0.193288 z M 26.06643,61.814854 c 0.0214,-0.519582 0.127087,-0.625264 0.269466,-0.269467 0.12884,0.321963 0.112994,0.706648 -0.03521,0.854858 -0.148206,0.148205 -0.253621,-0.115223 -0.234254,-0.585391 z m 2.583969,-0.07434 c -0.554781,-0.707401 -0.539006,-0.723177 0.168394,-0.168396 0.429287,0.336672 0.780521,0.687906 0.780521,0.780521 0,0.367085 -0.366259,0.130819 -0.948915,-0.612125 z m 5.479457,-0.111503 c 0,-0.613266 0.101233,-0.864148 0.224962,-0.557515 0.123729,0.306634 0.123729,0.808397 0,1.11503 -0.123729,0.306633 -0.224962,0.05575 -0.224962,-0.557515 z m 1.302824,0.18584 c 0.0214,-0.519582 0.127087,-0.625264 0.269466,-0.269467 0.12884,0.321963 0.112994,0.706648 -0.03521,0.854858 -0.148206,0.148205 -0.25362,-0.115223 -0.234254,-0.585391 z M 24.944864,60.86773 c -0.242044,-0.635656 -0.190813,-0.686885 0.249676,-0.249678 0.304812,0.302548 0.441851,0.662435 0.304529,0.799758 -0.137321,0.137322 -0.386713,-0.110214 -0.554205,-0.55008 z m 1.002728,-6.679581 c 0.321964,-0.128839 0.70665,-0.112997 0.854856,0.03519 0.148206,0.14821 -0.11522,0.253621 -0.585391,0.234255 -0.519578,-0.02141 -0.625264,-0.127087 -0.269465,-0.269463 z m 3.428716,-0.141337 c 0.151608,-0.245306 0.364158,-0.446012 0.472334,-0.446012 0.108176,0 0.196684,0.200706 0.196684,0.446012 0,0.245307 -0.212551,0.446012 -0.472334,0.446012 -0.259784,0 -0.348292,-0.200705 -0.196684,-0.446012 z m 4.153486,0.141337 c 0.321965,-0.128839 0.70665,-0.112997 0.854856,0.03519 0.148206,0.14821 -0.11522,0.253621 -0.58539,0.234255 -0.519579,-0.02141 -0.625264,-0.127087 -0.269466,-0.269463 z M 7.9677364,50.924729 c 0.4439986,-0.490613 0.9076231,-0.892024 1.0302764,-0.892024 0.1226532,0 -0.1402659,0.401411 -0.5842645,0.892024 -0.4439986,0.490613 -0.9076231,0.892024 -1.0302764,0.892024 -0.1226532,0 0.1402659,-0.401411 0.5842645,-0.892024 z M 3.2660338,48.449279 C 2.7904166,47.876198 2.828385,47.62814 3.4879038,46.99974 c 0.5867933,-0.559103 0.8499473,-0.611772 1.0023809,-0.200621 0.1136837,0.306634 0.5913831,0.557515 1.0615537,0.557515 0.470171,0 0.8548563,0.172874 0.8548563,0.384164 0,0.211289 -0.5017634,0.288244 -1.1150298,0.17101 -0.6132663,-0.117235 -1.1150297,-0.430598 -1.1150297,-0.696372 0,-0.339085 -0.1480526,-0.335165 -0.4963523,0.01311 -0.5630097,0.563009 -0.1089865,1.617212 0.5271709,1.224043 0.2283563,-0.141109 0.4151933,-0.04403 0.4151933,0.215754 0,0.689521 -0.6958002,0.577166 -1.3566133,-0.219067 z m 34.8788852,-4.74592 c -0.03926,-2.377262 0.07915,-4.415991 0.26313,-4.53051 0.18398,-0.114518 0.279574,1.228398 0.212431,2.984258 -0.207798,5.434134 -0.400984,6.062266 -0.475561,1.546252 z m -29.6261072,1.308893 -0.78696,-1.446719 0.8984629,1.052938 c 0.7645238,0.895969 1.1731411,1.853088 0.7869604,1.843321 -0.061327,-0.0013 -0.4656351,-0.653845 -0.8984633,-1.44954 z M 19.284149,38.101888 c -0.554781,-0.7074 -0.539006,-0.723175 0.168394,-0.168394 0.429287,0.336669 0.780521,0.687904 0.780521,0.780521 0,0.367083 -0.366259,0.130816 -0.948915,-0.612127 z m 8.311269,0.339617 c -0.156256,-0.252826 0.02277,-0.327598 0.419689,-0.175287 0.772679,0.296504 0.914051,0.616191 0.272494,0.616191 -0.23083,0 -0.542312,-0.198407 -0.692183,-0.440904 z m -5.562614,-1.759834 c -0.565039,-1.055785 -0.591271,-1.500078 -0.06953,-1.177624 0.393539,0.24322 1.007268,2.040326 0.696791,2.040326 -0.09106,0 -0.373325,-0.388216 -0.627261,-0.862702 z m 4.444427,-0.449011 c 0,-0.23083 0.198406,-0.542312 0.440903,-0.692183 0.252826,-0.156255 0.327599,0.02277 0.175288,0.419689 -0.296505,0.772679 -0.616191,0.914051 -0.616191,0.272494 z m 28.997602,-1.252855 c 0.0058,-0.654641 0.07375,-0.674707 0.421762,-0.12442 0.228211,0.360856 0.553385,0.517648 0.722607,0.348428 0.169217,-0.16922 -0.04139,-0.840411 -0.468027,-1.491536 -0.426633,-0.651125 -0.531731,-1.033086 -0.233555,-0.848802 0.301821,0.186535 0.714717,0.0626 0.931456,-0.279595 0.28452,-0.449201 0.40034,-0.314509 0.430272,0.500374 0.02252,0.613267 0.108189,1.466264 0.190372,1.895551 0.108902,0.568883 -0.142225,0.780521 -0.926149,0.780521 -0.729608,0 -1.073367,-0.251056 -1.068738,-0.780521 z M 20.902082,34.42229 c -0.151608,-0.245307 -0.0631,-0.446012 0.196683,-0.446012 0.259784,0 0.472335,0.200705 0.472335,0.446012 0,0.245306 -0.08851,0.446012 -0.196684,0.446012 -0.108176,0 -0.320726,-0.200706 -0.472334,-0.446012 z m 8.697232,-0.446012 c -0.262568,-0.490613 -0.377044,-0.892024 -0.254391,-0.892024 0.122653,0 0.437835,0.401411 0.700403,0.892024 0.262568,0.490613 0.377044,0.892024 0.254391,0.892024 -0.122653,0 -0.437835,-0.401411 -0.700403,-0.892024 z m 20.551761,-0.706185 c 0.02141,-0.519579 0.127086,-0.625264 0.269462,-0.269466 0.12884,0.321965 0.112997,0.70665 -0.03519,0.854856 -0.14821,0.148206 -0.25362,-0.11522 -0.234255,-0.58539 z M 19.841944,32.3576 c -0.759363,-1.666623 -0.286989,-1.83769 0.533406,-0.193169 0.374753,0.751209 0.528262,1.365835 0.341133,1.365835 -0.18713,0 -0.580672,-0.5277 -0.874539,-1.172666 z m 34.387637,0.02548 c -0.04929,-0.59558 -0.01492,-1.082874 0.07637,-1.082874 0.331547,0 0.623899,1.78835 0.322774,1.974455 -0.170238,0.105212 -0.349851,-0.295999 -0.399145,-0.89158 z M 18.672022,29.96217 c -0.151608,-0.245306 -0.0631,-0.446012 0.196684,-0.446012 0.259784,0 0.472334,0.200706 0.472334,0.446012 0,0.245307 -0.08851,0.446012 -0.196684,0.446012 -0.108176,0 -0.320726,-0.200705 -0.472334,-0.446012 z m 3.427102,-0.667133 c -0.279895,-0.614303 -0.335907,-1.116914 -0.12447,-1.116914 0.370347,0 1.03761,1.829589 0.766235,2.100964 -0.07308,0.07307 -0.36187,-0.369747 -0.641765,-0.98405 z m -6.73698,-0.03905 c 0.0214,-0.519578 0.127087,-0.625264 0.269466,-0.269465 0.12884,0.321965 0.112994,0.70665 -0.03521,0.854856 -0.148206,0.148206 -0.25362,-0.11522 -0.234254,-0.585391 z m 2.64086,-0.658172 c 0,-0.259783 0.200706,-0.348291 0.446012,-0.196683 0.245307,0.151608 0.446012,0.364158 0.446012,0.472334 0,0.108176 -0.200705,0.196683 -0.446012,0.196683 -0.245306,0 -0.446012,-0.21255 -0.446012,-0.472334 z M 15.920445,27.02716 c -0.157218,-0.409704 -0.604377,-0.617646 -1.067662,-0.496494 -0.517388,0.1353 -0.720485,0.0087 -0.578705,-0.36079 0.312188,-0.813549 1.820713,-0.298782 2.084893,0.711448 0.268473,1.02664 -0.05877,1.135466 -0.438526,0.145836 z m 5.010312,-0.05633 c -0.242044,-0.635656 -0.190813,-0.686886 0.249675,-0.249676 0.304813,0.302545 0.441852,0.662436 0.30453,0.799757 -0.137321,0.137321 -0.386713,-0.110215 -0.554205,-0.550081 z m -8.279896,-1.914786 c -0.262568,-0.490614 -0.414587,-0.892024 -0.33782,-0.892024 0.07677,0 0.483275,0.40141 0.903351,0.892024 0.420076,0.490613 0.572095,0.892023 0.33782,0.892023 -0.234275,0 -0.640782,-0.40141 -0.903351,-0.892023 z m 7.234428,-0.185513 c -0.374566,-0.822083 -0.357857,-1.128612 0.07048,-1.292982 0.3485,-0.133732 0.549847,0.148082 0.53087,0.743028 -0.0182,0.57053 0.2085,0.908869 0.560094,0.835919 0.324866,-0.06741 0.46355,0.08312 0.308186,0.334509 -0.456042,0.737891 -0.944728,0.53157 -1.469634,-0.620474 z m 3.469858,-1.766929 c 0,-0.09262 0.351235,-0.443851 0.780521,-0.780521 0.7074,-0.554781 0.723175,-0.539006 0.168394,0.168394 -0.582656,0.742944 -0.948915,0.97921 -0.948915,0.612127 z M 12.506969,22.51546 c 0.534125,-0.103973 1.210993,-0.478051 1.50415,-0.831284 0.293158,-0.353234 1.00314,-0.642242 1.577739,-0.642242 0.588253,0 1.253316,-0.389754 1.522123,-0.892024 0.262568,-0.490613 0.669713,-0.892024 0.904766,-0.892024 0.235054,0 -0.0089,0.501764 -0.542136,1.11503 -0.533228,0.613266 -1.4105,1.11503 -1.949492,1.11503 -0.538993,0 -1.229842,0.301058 -1.535222,0.669017 -0.305379,0.36796 -0.982247,0.641686 -1.50415,0.608279 -0.943259,-0.06038 -0.943127,-0.06187 0.02222,-0.249782 z m 6.388059,-1.473526 C 18.63246,20.551321 18.517984,20.14991 18.640637,20.14991 c 0.122654,0 0.437835,0.401411 0.700403,0.892024 0.262568,0.490613 0.377044,0.892023 0.254391,0.892023 -0.122653,0 -0.437835,-0.40141 -0.700403,-0.892023 z m -6.199391,-5.220356 c 0.324761,-0.540783 0.686478,-0.887239 0.803816,-0.769901 0.117338,0.117337 -0.148376,0.559797 -0.590474,0.983243 -0.768006,0.735601 -0.77751,0.726097 -0.213342,-0.213342 z M 10.507751,14.12875 c 0.0091,-0.73592 0.109049,-0.982982 0.222133,-0.549027 0.113083,0.433955 0.105647,1.036071 -0.01652,1.338036 -0.122174,0.301964 -0.214697,-0.05309 -0.205608,-0.789009 z M 7.8562334,11.790956 c 1.6558192,-0.08582 4.3653416,-0.08582 6.0211606,0 1.655819,0.08582 0.301058,0.156028 -3.01058,0.156028 -3.3116386,0 -4.6663998,-0.07021 -3.0105806,-0.156028 z m 15.3874106,0.01598 c 0.55194,-0.106308 1.455114,-0.106308 2.007054,0 0.55194,0.106308 0.100353,0.193288 -1.003527,0.193288 -1.103879,0 -1.555466,-0.08698 -1.003527,-0.193288 z m 16.279435,-0.0183 c 2.882352,-0.07769 7.598928,-0.07769 10.48128,0 2.882352,0.07769 0.524064,0.141253 -5.24064,0.141253 -5.764704,0 -8.122992,-0.06356 -5.24064,-0.141253 z M 19.730161,10.895164 c -0.566219,-0.721984 -0.545228,-0.73145 0.279897,-0.126208 0.490613,0.359873 0.975651,0.711108 1.077862,0.780521 0.102211,0.06941 -0.02374,0.126207 -0.279897,0.126207 -0.256155,0 -0.741193,-0.351234 -1.077862,-0.78052 z m 6.867061,-1.7586213 c 0.433955,-0.1130832 1.036071,-0.1056464 1.338036,0.016525 0.301964,0.1221747 -0.05309,0.2146976 -0.789009,0.2056079 -0.73592,-0.00909 -0.982982,-0.109049 -0.549027,-0.2221329 z M 31.160356,8.5536012 C 30.433174,8.2411208 30.407705,8.1644924 31.02253,8.1389373 c 0.41481,-0.017242 0.878242,0.1693574 1.02985,0.4146639 0.316964,0.5128597 0.301465,0.5128597 -0.892024,0 z"
         id="path865" />
      <path
         style="fill:#4b857b;stroke-width:0.446012"
         d="M 2.3925875,51.930071 C 0.85037165,51.157168 0.82997693,51.109307 0.70145183,47.961145 c -0.12233218,-2.996469 -0.05887,-3.242616 1.06367537,-4.12561 3.2229451,-2.535169 8.3253388,0.610209 7.5649508,4.663425 -0.2806419,1.49595 -2.4438572,3.763805 -3.5901434,3.763805 -0.3290757,0 -0.8656161,0.101169 -1.1923123,0.224821 C 4.2209261,52.611238 3.2511604,52.360357 2.3925875,51.930071 Z M 4.6226471,48.69467 c 0,-0.245307 0.4014107,-0.446012 0.8920238,-0.446012 0.4906131,0 0.8920238,-0.200705 0.8920238,-0.446012 0,-0.245306 -0.3846853,-0.446012 -0.8548563,-0.446012 -0.4701706,0 -0.94787,-0.250881 -1.0615537,-0.557515 -0.1524336,-0.411151 -0.4155876,-0.358482 -1.0023809,0.200621 -0.6595188,0.6284 -0.6974872,0.876458 -0.22187,1.449539 0.6505772,0.783897 1.3566133,0.911608 1.3566133,0.245391 z M 22.550073,44.903569 c 0.0091,-0.73592 0.109049,-0.982982 0.222133,-0.549026 0.113083,0.433954 0.105646,1.03607 -0.01653,1.338035 -0.122175,0.301965 -0.214698,-0.05309 -0.205608,-0.789009 z m 3.815655,0.807582 c -0.911972,-0.238323 -0.970081,-1.632862 -0.340297,-8.166778 0.646396,-6.706261 1.311163,-13.923444 1.424111,-15.461153 l 0.103698,-1.411779 1.280264,1.07727 c 1.564607,1.31653 1.67507,1.319919 3.227207,0.09901 l 1.243659,-0.978262 -0.300278,1.312771 c -0.165153,0.722024 -0.425764,3.877898 -0.579136,7.013052 -0.153372,3.135155 -0.455476,5.809438 -0.671343,5.94285 -0.215867,0.133414 -0.93394,-0.374483 -1.595718,-1.128659 -1.519068,-1.731161 -2.082254,-1.741901 -1.740513,-0.03319 0.222851,1.114251 0.124685,1.338036 -0.586944,1.338036 -1.254293,0 -1.477796,0.695394 -0.704271,2.191225 0.573283,1.108608 0.995742,1.347847 2.582795,1.462637 l 1.897406,0.137239 0.142105,1.997013 c 0.07816,1.098358 0.01889,2.653824 -0.131713,3.456592 -0.265068,1.412934 -0.340877,1.457925 -2.372165,1.407841 -1.154091,-0.02846 -2.449581,-0.143525 -2.878867,-0.25571 z m -5.62385,-5.72321 c -0.855946,-1.65089 -1.695203,-2.760297 -1.962957,-2.594816 -0.273844,0.169245 -0.3351,0.07447 -0.147774,-0.228627 0.175976,-0.284734 -0.457221,-1.971564 -1.407104,-3.74851 -1.604621,-3.001763 -1.880459,-4.468069 -1.013385,-5.386979 0.737187,-0.781258 -0.102045,-2.061225 -1.526715,-2.328495 -0.945642,-0.177403 -1.699713,-0.714735 -2.206131,-1.572032 -0.741685,-1.255573 -0.738326,-1.302501 0.09322,-1.302501 0.474445,0 1.112484,-0.301058 1.417863,-0.669018 0.30538,-0.367959 1.021043,-0.669017 1.590363,-0.669017 0.56932,0 1.34295,-0.439478 1.719177,-0.976618 0.376228,-0.53714 0.768019,-0.888374 0.870648,-0.780521 0.102629,0.107854 0.948965,1.601034 1.880746,3.31818 0.93178,1.717146 1.852932,3.232413 2.047003,3.367261 0.194072,0.134848 0.430325,0.837316 0.525006,1.561041 0.09468,0.723726 0.08299,1.064983 -0.02599,0.758349 -0.108975,-0.306633 -0.38928,-0.557514 -0.622898,-0.557514 -0.23362,0 -0.11855,0.592149 0.255709,1.315886 0.43809,0.847174 0.670401,2.475566 0.6522,4.571622 -0.02206,2.540959 -0.122087,3.021201 -0.455593,2.187455 -0.235027,-0.587555 -0.550551,-0.945053 -0.701163,-0.79444 -0.150612,0.150612 0.0544,0.774806 0.455594,1.387097 0.736445,1.123958 0.923618,3.842041 0.362069,5.257908 -0.231247,0.583061 -0.664992,0.07321 -1.799893,-2.115711 z M 21.5711,34.42229 c 0,-0.245307 -0.212551,-0.446012 -0.472335,-0.446012 -0.259783,0 -0.348291,0.200705 -0.196683,0.446012 0.151608,0.245306 0.364158,0.446012 0.472334,0.446012 0.108176,0 0.196684,-0.200706 0.196684,-0.446012 z m -1.19575,-2.257859 c -0.374752,-0.75121 -0.768295,-1.27891 -0.874538,-1.172666 -0.275925,0.275924 0.807608,2.538501 1.215671,2.538501 0.187129,0 0.03362,-0.614626 -0.341133,-1.365835 z m -1.03431,-2.20226 c 0,-0.245306 -0.21255,-0.446012 -0.472334,-0.446012 -0.259784,0 -0.348292,0.200706 -0.196684,0.446012 0.151608,0.245307 0.364158,0.446012 0.472334,0.446012 0.108177,0 0.196684,-0.200705 0.196684,-0.446012 z m -0.446012,-1.088707 c 0,-0.108176 -0.200705,-0.320726 -0.446012,-0.472334 -0.245306,-0.151608 -0.446012,-0.0631 -0.446012,0.196683 0,0.259784 0.200706,0.472334 0.446012,0.472334 0.245307,0 0.446012,-0.08851 0.446012,-0.196683 z m 2.285404,-2.152313 c -0.440488,-0.43721 -0.491719,-0.38598 -0.249675,0.249676 0.167492,0.439866 0.416884,0.687402 0.554205,0.550081 0.137322,-0.137321 2.83e-4,-0.497212 -0.30453,-0.799757 z M 20.52561,24.836514 c -0.283554,-0.611352 -0.661778,-1.113115 -0.840499,-1.115029 -0.178721,-0.0019 -0.09633,0.498283 0.183095,1.11155 0.279423,0.613266 0.657647,1.115029 0.840498,1.115029 0.182852,0 0.100459,-0.500197 -0.183094,-1.11155 z m 35.20262,9.744945 c -0.373392,-0.973044 0.122377,-1.425321 0.64922,-0.592264 0.527427,0.833981 0.538653,1.325119 0.03028,1.325119 -0.219063,0 -0.524844,-0.329785 -0.679517,-0.732855 z m -3.382309,-1.497205 c -0.401986,-0.259784 -0.456997,-0.435078 -0.137826,-0.439182 0.292155,-0.0037 0.655236,0.193876 0.806844,0.439182 0.342225,0.553735 0.187825,0.553735 -0.669018,0 z m -19.1433,-13.194518 c 0.0214,-0.519578 0.127087,-0.625264 0.269465,-0.269465 0.12884,0.321965 0.112995,0.70665 -0.03521,0.854856 -0.148207,0.148206 -0.253621,-0.11522 -0.234255,-0.585391 z M 18.988946,9.6236466 C 18.672642,9.2804279 18.61062,8.9996131 18.851121,8.9996131 c 0.463157,0 1.133641,0.8484095 0.86909,1.0997189 -0.08589,0.08159 -0.41496,-0.1324673 -0.731265,-0.4756854 z"
         id="path863" />
      <path
         style="fill:#4b6266;stroke-width:0.446012"
         d="m 4.3499286,58.283925 c 7.805e-4,-3.188985 0.071822,-4.435048 0.1578696,-2.769024 0.086048,1.666019 0.08541,4.275188 -0.00142,5.798154 -0.086829,1.522961 -0.1572315,0.159855 -0.1564513,-3.02913 z M 25.585207,54.091329 23.578153,53.823806 v -2.494272 c 0,-1.421364 -0.255656,-2.803073 -0.594345,-3.21216 -0.326889,-0.394841 -0.5007,-1.078764 -0.386246,-1.519834 0.178089,-0.686302 0.215558,-0.670097 0.259836,0.112377 0.105788,1.869526 2.276248,2.800089 2.288627,0.981226 0.01188,-1.745643 0.496897,-1.995059 3.449762,-1.774008 2.745762,0.205545 2.787575,0.228515 2.787575,1.531164 v 1.322483 l 2.787574,-0.149557 2.787575,-0.149561 0.133986,2.510574 c 0.151737,2.843183 0.302099,2.732296 -4.482603,3.305911 -1.977987,0.237136 -2.564568,0.173285 -2.564568,-0.27915 0,-0.456247 -0.118937,-0.467665 -0.535214,-0.05139 -0.560512,0.560512 -0.689856,0.564919 -3.924905,0.133719 z M 4.377421,27.509106 c 1.526e-4,-8.585729 0.060075,-12.03495 0.1331604,-7.664935 0.073086,4.370015 0.072961,11.394702 -2.776e-4,15.610416 -0.073238,4.215714 -0.1330355,0.640247 -0.1328828,-7.945481 z m 46.352956,5.069634 c 0.05588,-0.290298 0.592768,-0.596935 1.193082,-0.681416 0.810899,-0.114116 0.924975,-0.04619 0.443759,0.264229 -0.356247,0.229807 -0.790694,0.329471 -0.965432,0.221475 -0.174743,-0.107995 -0.420153,0.01062 -0.545361,0.263586 -0.125209,0.252967 -0.181929,0.222424 -0.126048,-0.06787 z m 4.13082,0.196048 c -0.425054,-0.425056 -0.344576,-1.474581 0.113077,-1.474581 0.547172,0 0.986422,1.256542 0.536463,1.534632 -0.20038,0.123841 -0.492673,0.09682 -0.64954,-0.06005 z m -0.081,-2.843023 c -0.161946,-0.26203 -0.625375,-0.350492 -1.02985,-0.196582 -0.591639,0.225131 -0.625795,0.169418 -0.174707,-0.284988 0.452153,-0.455476 0.708106,-0.417419 1.322108,0.196582 0.418774,0.418773 0.62989,0.761406 0.469147,0.761406 -0.160743,0 -0.424755,-0.214388 -0.586698,-0.476418 z"
         id="path861" />
      <path
         style="fill:#356263;stroke-width:0.446012"
         d="m 0.60853988,57.322774 c 0,-6.186729 0.0417429,-6.499932 0.78052082,-5.856354 0.4292865,0.373972 1.0815789,0.790645 1.4495387,0.925938 0.529619,0.194738 0.5063858,0.253335 -0.1115029,0.281206 -0.6998475,0.03157 -0.7805209,0.611451 -0.7805209,5.610361 0,4.658344 -0.1100163,5.575149 -0.6690179,5.575149 -0.56424836,0 -0.66901782,-1.023598 -0.66901782,-6.5363 z M 58.49726,40.554953 C 58.376783,18.987274 58.305314,17.109591 57.538133,15.355282 c -0.455922,-1.042552 -1.108214,-1.89555 -1.449538,-1.89555 -0.341324,0 -0.62059,-0.361255 -0.62059,-0.802788 0,-1.277538 -4.157402,-1.873283 -13.072696,-1.873283 H 34.505445 V 9.228947 c 0,-1.3138756 -0.270268,-1.7335679 -1.744699,-2.7093 -1.516187,-1.0033652 -2.02733,-1.1135601 -3.902604,-0.8413433 -1.186848,0.1722841 -2.50914,0.4953567 -2.938426,0.7179394 -0.845719,0.4385001 -1.055948,1.93449 -0.334509,2.380364 0.245306,0.1516079 0.446012,0.665216 0.446012,1.141352 0,0.7147419 -0.31569,0.8657019 -1.81037,0.8657019 -0.995703,0 -1.702547,0.174461 -1.570763,0.387692 0.131784,0.213231 -0.408311,0.255976 -1.20021,0.09499 -1.031475,-0.209691 -1.480239,-0.572629 -1.582342,-1.2797161 -0.186181,-1.2893548 -1.315304,-1.2769146 -1.499,0.016516 -0.138326,0.973971 -0.269229,0.998994 -4.444644,0.849632 -2.424779,-0.08674 -5.3881066,0.08914 -6.7907717,0.403041 -2.3419725,0.52411 -2.5615031,0.690907 -3.7246778,2.829966 L 2.1724151,16.358809 2.0250684,29.572394 1.8777217,42.785979 3.1386814,42.608706 4.3996411,42.431434 3.2937827,42.910463 C 2.6855606,43.173929 1.8325628,43.71109 1.3982321,44.104154 0.64367849,44.787016 0.60853988,43.853208 0.60853988,23.118114 V 1.4174112 H 30.268332 59.928124 V 32.638242 c 0,27.056107 -0.08675,31.220832 -0.650343,31.220832 -0.55983,0 -0.668465,-3.243586 -0.780521,-23.304121 z m -33.224411,3.679598 c 0,-1.349186 0.08361,-1.901125 0.185804,-1.226533 0.102192,0.674593 0.102192,1.778473 0,2.453066 -0.102192,0.674593 -0.185804,0.122653 -0.185804,-1.226533 z m -2.774514,-1.598209 c 0.0214,-0.519578 0.127087,-0.625264 0.269465,-0.269466 0.12884,0.321965 0.112995,0.70665 -0.03521,0.854857 -0.148206,0.148205 -0.253621,-0.11522 -0.234255,-0.585391 z m 0.49775,-3.530927 c 0.0091,-0.73592 0.109049,-0.982982 0.222133,-0.549027 0.113083,0.433955 0.105646,1.036071 -0.01653,1.338036 -0.122175,0.301964 -0.214698,-0.05309 -0.205608,-0.789009 z m 2.692598,-0.223006 c 0,-0.858573 0.09179,-1.209808 0.203971,-0.780521 0.112184,0.429286 0.112184,1.131755 0,1.561041 -0.112184,0.429287 -0.203971,0.07805 -0.203971,-0.78052 z m -7.433997,-2.545333 c -0.242044,-0.635655 -0.190814,-0.686886 0.249675,-0.249675 0.304813,0.302545 0.441851,0.662435 0.30453,0.799756 -0.137321,0.137322 -0.386714,-0.110215 -0.554205,-0.550081 z m 4.807347,-2.583804 c 0.0016,-1.962452 0.08003,-2.709792 0.174251,-1.660755 0.09422,1.049037 0.09289,2.65468 -0.0029,3.568095 -0.09584,0.913415 -0.172927,0.05511 -0.171307,-1.90734 z m -5.759905,1.11503 c 0,-0.577692 0.150795,-0.728486 0.439641,-0.43964 0.288846,0.288845 0.288846,0.590434 0,0.87928 -0.288846,0.288846 -0.439641,0.138051 -0.439641,-0.43964 z m 8.799514,-1.338036 c 0,-0.613266 0.101232,-0.864148 0.224962,-0.557515 0.123729,0.306633 0.123729,0.808397 0,1.11503 -0.12373,0.306633 -0.224962,0.05575 -0.224962,-0.557515 z m 6.311949,-4.683125 c 0.0025,-1.471839 0.08577,-2.020184 0.185033,-1.218545 0.09927,0.80164 0.09722,2.005872 -0.0045,2.676072 -0.101771,0.670199 -0.182988,0.01431 -0.180484,-1.457527 z m -5.823884,0.446012 c 0.005,-0.981226 0.09629,-1.33012 0.20297,-0.77532 0.106683,0.5548 0.102633,1.357621 -0.009,1.784047 -0.111634,0.426427 -0.19892,-0.0275 -0.19397,-1.008727 z m -3.619833,-0.07503 c -0.03341,-0.531876 -0.176245,-1.334697 -0.317421,-1.784047 -0.242991,-0.773424 -0.229533,-0.774685 0.252346,-0.02365 0.279965,0.43634 0.422805,1.239162 0.317421,1.784047 -0.191417,0.989719 -0.191667,0.989743 -0.252346,0.02365 z m 4.040318,-4.831105 c 0.0091,-0.73592 0.109049,-0.982982 0.222133,-0.549027 0.113083,0.433955 0.105646,1.036071 -0.01652,1.338036 -0.122175,0.301964 -0.214698,-0.05309 -0.205608,-0.789009 z m 6.192429,-3.159251 c 0.0214,-0.519578 0.127087,-0.625264 0.269465,-0.269466 0.12884,0.321965 0.112995,0.706651 -0.03521,0.854857 -0.148207,0.148205 -0.253621,-0.11522 -0.234255,-0.585391 z"
         id="path859" />
      <path
         style="fill:#2f5855;stroke-width:0.446012"
         d="m 1.9465756,58.252905 c 0,-5.558695 0.0085,-5.604964 1.0035268,-5.463645 0.9703121,0.137804 1.0076717,0.323358 1.1287575,5.606168 l 0.1252307,5.463646 H 3.0753331 1.9465756 Z M 55.468005,50.068146 V 36.277214 l 1.264207,-0.277667 c 1.246835,-0.273851 1.257468,-0.303445 0.773764,-2.153994 -0.269744,-1.031981 -0.838636,-2.559457 -1.264207,-3.394391 -0.646263,-1.267916 -0.773764,-2.792917 -0.773764,-9.254747 0,-6.311384 0.11433,-7.736683 0.62059,-7.736683 0.341324,0 0.993616,0.852998 1.449538,1.89555 0.767181,1.754309 0.83865,3.631992 0.959127,25.199671 l 0.130173,23.304121 H 57.047721 55.468005 Z M 23.492973,48.137155 c -0.198457,-0.306633 -0.374071,-5.173738 -0.390251,-10.815788 -0.01618,-5.64205 -0.07941,-10.601849 -0.140504,-11.021776 -0.189192,-1.300349 1.220355,-3.657937 2.6851,-4.491062 0.768209,-0.436946 1.463846,-0.727344 1.545862,-0.645329 0.08201,0.08202 -0.344071,5.256444 -0.946858,11.498732 -0.602787,6.242287 -1.098485,12.403316 -1.101551,13.691176 -0.0041,1.738844 -0.171005,2.341562 -0.648272,2.341562 -0.353482,0 -0.805069,-0.250882 -1.003526,-0.557515 z m 8.115376,-2.676071 c 0.144202,-1.778473 0.330762,-5.039934 0.414579,-7.247693 0.432196,-11.384228 1.324644,-18.509493 2.318335,-18.509493 0.321618,0 1.666497,0.478396 2.988621,1.063101 1.717508,0.759564 2.471243,1.364456 2.639858,2.118557 0.129798,0.5805 0.75978,3.057905 1.399957,5.505345 1.929684,7.3773 1.518327,9.640114 -1.875886,10.318956 l -1.420273,0.284055 v 4.243694 c 0,5.055863 -0.27851,5.421651 -4.144209,5.442881 l -2.583167,0.01418 z M 2.0236516,29.572394 C 2.1522028,17.932416 2.2638979,16.186183 2.961556,14.90927 c 0.435586,-0.797246 0.8871731,-1.449538 1.0035268,-1.449538 0.1163538,0 0.2115524,6.499526 0.2115524,14.443391 V 42.346514 L 3.0271784,42.566246 1.8777217,42.785979 Z M 16.28358,34.016888 c -2.014966,-2.872531 -2.131976,-3.162693 -1.275381,-3.162693 0.315309,0 1.216609,1.304585 2.002889,2.899077 0.78628,1.594493 1.360201,2.899077 1.275381,2.899077 -0.08482,0 -0.98612,-1.185957 -2.002889,-2.635461 z m 36.508353,-1.378646 c 0,-0.245306 0.301058,-0.446011 0.669018,-0.446011 0.36796,0 0.669018,0.200705 0.669018,0.446011 0,0.245307 -0.301058,0.446012 -0.669018,0.446012 -0.36796,0 -0.669018,-0.200705 -0.669018,-0.446012 z m -0.341944,-1.63223 c 1.29509,-1.309097 1.784048,-1.564188 2.200329,-1.14791 0.294368,0.294368 0.448242,0.593392 0.341939,0.6645 -0.106298,0.07111 -1.096444,0.587666 -2.200324,1.147909 L 50.78488,32.689136 Z M 10.866814,14.787486 c 0,-1.326797 0.01737,-1.336938 1.088115,-0.635358 1.220857,0.799937 1.075366,1.983675 -0.24381,1.983675 -0.642206,0 -0.844305,-0.322743 -0.844305,-1.348317 z M 7.2987185,11.229672 c 1.6569191,-0.530638 9.3662505,-0.530638 9.3662505,0 0,0.274559 -2.014583,0.428922 -5.24064,0.401554 -3.3151778,-0.02812 -4.8309672,-0.175659 -4.1256105,-0.401554 z m 15.3874105,0 c -0.164044,-0.265429 0.367045,-0.446011 1.311714,-0.446011 0.87305,0 1.587364,0.200705 1.587364,0.446011 0,0.245307 -0.590271,0.446012 -1.311714,0.446012 -0.721442,0 -1.435756,-0.200705 -1.587364,-0.446012 z M 32.698671,9.8227748 C 32.124302,8.0824195 32.060165,8.0381867 30.518594,8.3192612 29.64503,8.4785378 28.127475,8.6465991 27.146249,8.692731 25.620852,8.764447 25.342111,8.635491 25.223632,7.803258 c -0.168383,-1.1827686 0.719341,-1.701785 3.63451,-2.1249543 1.875274,-0.2722168 2.386417,-0.1620219 3.902604,0.8413433 1.474431,0.9757321 1.744699,1.3954244 1.744699,2.7093 v 1.554714 l 8.362723,0.04446 c 4.599498,0.02445 8.864487,0.20831 9.477753,0.408573 0.645201,0.210691 -3.134504,0.367291 -8.970221,0.371653 l -10.08525,0.0075 z"
         id="path857" />
    </g>
  </g>
</svg>
