<?xml version="1.0" encoding="UTF-8" standalone="no"?>
<svg
   xmlns:dc="http://purl.org/dc/elements/1.1/"
   xmlns:cc="http://creativecommons.org/ns#"
   xmlns:rdf="http://www.w3.org/1999/02/22-rdf-syntax-ns#"
   xmlns:svg="http://www.w3.org/2000/svg"
   xmlns="http://www.w3.org/2000/svg"
   xmlns:sodipodi="http://sodipodi.sourceforge.net/DTD/sodipodi-0.dtd"
   xmlns:inkscape="http://www.inkscape.org/namespaces/inkscape"
   width="210mm"
   height="210mm"
   viewBox="0 0 210 210"
   version="1.1"
   id="svg8"
   inkscape:version="1.0.1 (3bc2e813f5, 2020-09-07)"
   sodipodi:docname="drawingbrowser.svg">
  <defs
     id="defs2">
    <marker
       style="overflow:visible"
       id="marker1340"
       refX="0"
       refY="0"
       orient="auto"
       inkscape:stockid="Arrow1Lend"
       inkscape:isstock="true">
      <path
         transform="matrix(-0.8,0,0,-0.8,-10,0)"
         style="fill:#ffffff;fill-opacity:1;fill-rule:evenodd;stroke:#ffffff;stroke-width:1pt;stroke-opacity:1"
         d="M 0,0 5,-5 -12.5,0 5,5 Z"
         id="path1338" />
    </marker>
  </defs>
  <sodipodi:namedview
     id="base"
     pagecolor="#ffffff"
     bordercolor="#666666"
     borderopacity="1.0"
     inkscape:pageopacity="0.0"
     inkscape:pageshadow="2"
     inkscape:zoom="1.4"
     inkscape:cx="458.1564"
     inkscape:cy="467.47103"
     inkscape:document-units="mm"
     inkscape:current-layer="layer1"
     inkscape:document-rotation="0"
     showgrid="false"
     inkscape:window-width="3840"
     inkscape:window-height="2066"
     inkscape:window-x="-11"
     inkscape:window-y="-11"
     inkscape:window-maximized="1" />
  <metadata
     id="metadata5">
    <rdf:RDF>
      <cc:Work
         rdf:about="">
        <dc:format>image/svg+xml</dc:format>
        <dc:type
           rdf:resource="http://purl.org/dc/dcmitype/StillImage" />
        <dc:title></dc:title>
      </cc:Work>
    </rdf:RDF>
  </metadata>
  <g
     inkscape:label="Layer 1"
     inkscape:groupmode="layer"
     id="layer1">
    <path
       style="fill:#ffffff;stroke-width:0.264583"
       d="m 136.97856,141.16985 c -16.66245,-1.3095 -20.54579,-1.65715 -20.95457,-1.87592 -0.578,-0.30934 -0.6245,-0.99012 -0.0819,-1.19836 0.21716,-0.0833 1.13989,-0.0245 2.05052,0.13079 4.69497,0.80047 24.49521,2.01885 23.95009,1.47373 -0.10309,-0.1031 -22.43306,-2.09145 -25.00636,-2.22668 -0.0364,-0.002 -0.0662,-0.16554 -0.0662,-0.36363 0,-0.5888 5.8448,-2.56422 13.09265,-4.42503 l 3.43536,-0.88199 -2.24473,-0.72697 c -3.06284,-0.9919 -4.19276,-0.94992 -8.10613,0.30116 -8.21817,2.6273 -21.6545,4.55323 -23.469423,3.36405 -0.55399,-0.36299 -1.34932,-0.44606 -4.27075,-0.44606 -3.40534,0 -3.66097,-0.0374 -4.97024,-0.72761 l -1.380271,-0.7276 -5.820833,0.11283 c -20.08055,0.38924 -28.178126,-0.0281 -28.178126,-1.45233 0,-1.16452 6.369786,-1.68094 13.371217,-1.08405 6.544328,0.55791 7.390127,0.55787 12.890524,-5.3e-4 5.062405,-0.51404 5.226973,-0.48131 7.587115,1.50879 l 1.242494,1.04768 2.6288,-0.0416 c 2.52515,-0.04 2.561,-0.0485 0.90902,-0.21709 -0.94589,-0.0965 -1.92268,-0.26701 -2.17066,-0.37889 -1.0411,-0.46972 -1.64728,-2.58574 -3.493418,-12.19468 -0.503253,-2.61937 -1.287357,-6.5353 -1.742451,-8.70207 -0.83167,-3.95971 -0.810463,-4.91113 0.09276,-4.16153 1.047982,0.86975 1.985589,4.42628 3.227819,12.24375 1.51736,9.54879 2.0281,11.07079 3.71511,11.07079 2.17649,0 15.716663,-6.12689 15.716663,-7.11175 0,-0.1081 -0.61419,-0.35396 -1.36487,-0.54635 -1.89592,-0.48591 -3.90239,-2.46252 -4.71518,-4.64502 -1.52611,-4.09788 -2.910243,-15.74271 -1.87123,-15.74271 0.44594,0 0.88193,1.69805 1.72683,6.72548 1.20101,7.14634 1.52119,7.94605 4.24595,10.60473 1.1931,1.16417 2.25343,2.38455 2.3563,2.71198 0.2969,0.94504 1.22834,0.7447 2.06989,-0.44522 0.40309,-0.56994 1.24809,-1.28104 1.89361,-1.59353 1.15135,-0.55735 1.16792,-0.58454 1.34559,-2.20627 0.42089,-3.84185 1.45086,-6.80134 2.36703,-6.80134 0.66864,0 0.7854,1.78066 0.32061,4.88989 -0.55085,3.68505 -0.5515,5.23994 -0.003,6.3965 1.05786,2.22929 1.43108,-0.75927 1.11209,-8.90514 -0.27939,-7.13449 -0.82455,-12.67052 -1.67718,-17.03159 -0.81985,-4.1934 -0.82064,-4.53066 -0.0125,-5.33876 l 0.65047,-0.65048 -0.95568,-0.39931 c -0.52562,-0.21961 -0.98308,-0.36798 -1.01657,-0.32969 -0.0335,0.0383 -0.41976,0.84353 -0.85837,1.78942 -0.92734,1.99988 -1.2588,4.01004 -1.65781,10.05416 -0.43321,6.562 -1.09131,9.3705 -2.35411,10.04633 -1.54168,0.82508 -3.47902,-0.29202 -4.45694,-2.56992 -0.30184,-0.70307 -0.67672,-2.48505 -0.84926,-4.03682 -1.05285,-9.46923 -1.55241,-11.95906 -2.94628,-14.68438 -1.54635,-3.02345 -2.1283,-3.33977 -6.578843,-3.57593 l -3.30729,-0.17549 2.77813,-0.0362 c 3.56254,-0.0464 4.58779,0.20234 5.829013,1.41437 2.16211,2.11123 3.34232,6.07843 4.2324,14.2268 0.64009,5.85982 1.01764,7.27766 2.27192,8.53194 0.78836,0.78836 1.09978,0.92942 1.9029,0.8619 1.93122,-0.16234 2.67448,-2.64734 3.22915,-10.79634 0.39602,-5.81807 0.60405,-7.0263 1.60078,-9.29726 l 0.84527,-1.92588 -0.61479,-0.4077 c -1.18511,-0.7859 -1.70019,-1.28988 -1.51168,-1.4791 0.21565,-0.21648 1.26463,0.41222 1.99396,1.19506 0.55035,0.59074 2.4508,1.33154 3.41591,1.33154 0.68561,0 2.59129,-0.87742 2.86398,-1.31865 0.0911,-0.14733 -0.1483,-0.53785 -0.53191,-0.86782 l -0.69748,-0.59995 0.56907,-0.72345 0.56907,-0.72346 h -1.05589 c -2.06191,0 -2.58293,-0.63294 -0.76845,-0.93351 0.61846,-0.10245 1.34424,-0.3018 1.61284,-0.443 0.46791,-0.24598 0.46514,-0.27836 -0.0661,-0.77333 -0.80565,-0.75058 -0.64815,-1.203 0.56997,-1.63724 0.72696,-0.25915 0.5411,0.0663 -0.19843,0.3475 -0.79851,0.30359 -0.84516,0.67681 -0.1323,1.05833 0.45714,0.24465 0.5297,0.20089 0.53307,-0.32142 l 0.004,-0.60462 0.32683,0.63729 c 0.28395,0.55366 3.10496,2.36679 3.10496,1.99562 0,-0.0759 -0.19472,-0.43517 -0.43271,-0.79839 -0.58093,-0.88662 -0.25518,-1.1287 0.63548,-0.47226 1.10717,0.81602 2.16504,2.92639 2.1723,4.33355 0.007,1.3064 -0.32178,1.93276 -1.86963,3.56461 -1.87733,1.9792 -1.98895,3.16076 -0.51413,5.44259 1.37942,2.134228 2.05043,3.95946 2.81395,7.65428 0.86048,4.16402 0.85028,6.22793 -0.0354,7.15234 -0.42349,0.44203 -0.60762,0.86074 -0.50086,1.13896 0.18352,0.47824 0.64138,0.60343 0.64138,0.17537 0,-0.53701 2.53087,-0.28925 3.4666,0.33936 1.24267,0.83481 1.39952,2.39527 0.3466,3.44819 -0.39069,0.3907 -0.81166,0.71036 -0.93549,0.71036 -0.12382,0 -0.15258,0.86321 -0.0639,1.91823 0.12085,1.43807 0.0573,2.16621 -0.25383,2.90892 -0.41097,0.98097 -0.40861,0.9923 0.23987,1.15507 0.62087,0.15582 1.67435,-0.0721 7.48203,-1.61857 4.56044,-1.21437 8.32744,-0.78532 9.82545,1.11909 0.73578,0.9354 0.66403,1.37731 -0.27692,1.70531 -0.75868,0.26449 -0.78111,0.31011 -0.37369,0.7603 0.78233,0.86447 0.39873,1.42947 -1.07045,1.57665 -1.23227,0.12344 -1.2808,0.15504 -0.72531,0.47233 0.32742,0.18703 0.59531,0.52975 0.59531,0.7616 0,0.36096 -0.30588,0.40386 -2.12765,0.29839 -1.58478,-0.0917 -2.17726,-0.0345 -2.3221,0.2243 -0.11946,0.21346 -1.35007,0.49931 -3.19073,0.74114 -2.20414,0.2896 -3.29204,0.56701 -4.11504,1.04932 -0.61532,0.3606 -2.5827,1.02523 -4.37197,1.47695 -5.61016,1.41635 -12.9633,3.80879 -12.6547,4.11738 0.063,0.063 5.16581,0.52781 11.33953,1.03286 6.17372,0.50505 12.0411,1.05487 13.03861,1.22182 2.0922,0.35016 2.75654,0.0383 2.45741,-1.15348 -0.19578,-0.78005 -0.97002,-0.9822 -3.76195,-0.9822 -2.0472,0 -4.50886,-0.41579 -4.74748,-0.80188 -0.22812,-0.36911 0.819,-0.80318 4.87709,-2.02171 4.60019,-1.38131 5.24616,-1.43186 5.36297,-0.41972 0.0655,0.56753 0.30903,0.14999 1.11885,-1.91823 1.88085,-4.80359 6.51845,-15.5106 7.98349,-18.43179 1.68576,-3.36132 2.81431,-4.71592 4.54349,-5.45359 0.69,-0.29436 7.01773,-1.86587 14.0616,-3.49225 16.90599,-3.90346 16.95858,-3.91291 16.95858,-3.04735 0,0.19399 -0.72719,2.0593 -1.61599,4.14514 -1.71099,4.01541 -3.14651,7.55938 -3.14651,7.76807 0,0.069 5.56617,0.15181 12.36927,0.18408 l 12.36927,0.0587 -12.47977,0.13976 c -6.86388,0.0769 -12.53002,0.1993 -12.59143,0.27206 -0.0614,0.0728 -0.55751,1.26338 -1.10244,2.64583 -2.8794,7.30481 -4.99079,11.92301 -5.92479,12.95914 -1.1782,1.30705 -1.24242,1.33109 -19.20749,7.18869 -12.37906,4.03626 -14.61511,4.65261 -14.73492,4.06154 -0.18742,-0.92464 8.54694,-3.88433 24.20845,-8.20316 6.70579,-1.84919 7.91165,-2.26241 8.71258,-2.98557 0.74556,-0.67318 1.70747,-2.72594 4.30364,-9.18418 1.37325,-3.41612 2.60584,-6.08801 2.98359,-6.46756 0.47353,-0.47579 5.59196,-12.03876 5.59196,-12.63271 0,-0.40144 -1.74393,-0.0371 -19.06723,3.98322 -11.99196,2.78306 -12.92562,3.11822 -14.2537,5.11672 -1.40215,2.10997 -4.52539,8.9658 -8.53336,18.73158 -2.6869,6.54687 -2.89841,7.01145 -3.19208,7.01145 -0.25725,0 -0.16177,-1.00461 0.22005,-2.3151 0.1396,-0.47912 0.0684,-0.59531 -0.36482,-0.59531 -0.52505,0 -8.41111,2.29203 -8.89524,2.58534 -0.52226,0.31642 1.17222,0.63747 4.08013,0.77306 1.93307,0.0901 3.25981,0.27777 3.63802,0.5145 0.77418,0.48459 0.81266,1.80771 0.0661,2.27392 -0.29105,0.18175 -0.52917,0.46584 -0.52917,0.6313 0,0.92552 -2.27394,1.23167 -6.61459,0.89054 z m 6.08542,-0.6572 c 0.28932,-0.34862 -0.0205,-0.39723 -2.54729,-0.39972 -5.67785,-0.006 -19.04043,-0.94907 -22.65924,-1.59985 -1.49,-0.26795 -2.04555,-0.19213 -2.04555,0.27918 0,0.33283 1.17889,0.4694 11.24479,1.30276 10.66836,0.88322 15.51592,1.0097 16.00729,0.41763 z m 9.21394,-1.5646 c 3.29978,-1.0788 9.01604,-2.93401 12.7028,-4.12267 3.68675,-1.18866 6.6527,-2.2117 6.59099,-2.27341 -0.39941,-0.39941 -23.91414,6.77425 -26.09972,7.96227 l -0.68822,0.37409 0.74727,0.0106 c 0.411,0.006 3.44709,-0.87207 6.74688,-1.95088 z m -41.76472,-5.04287 c 6.27938,-1.12611 8.77883,-1.69375 12.31314,-2.79638 3.81104,-1.18897 5.3399,-1.29802 7.69238,-0.54867 2.59863,0.82775 3.01405,0.88387 3.18796,0.43065 0.39945,-1.04095 -1.89264,-2.23764 -4.30244,-2.24628 -1.00544,-0.004 -2.96505,0.3409 -5.15937,0.90703 -8.29635,2.14044 -19.84146,4.37882 -22.58501,4.37882 -1.60179,0 -2.387583,0.30167 -1.65845,0.6367 0.72632,0.33373 6.89601,-0.11344 10.51179,-0.76187 z m -11.327453,-0.72503 c 0.56844,-0.75361 0.55466,-0.7622 -0.71148,-0.44369 -0.578,0.1454 -2.59872,0.35385 -4.49049,0.46321 -2.95938,0.17109 -3.34724,0.2434 -2.77812,0.51801 0.45895,0.22146 1.71281,0.27943 4.09558,0.18937 3.17658,-0.12008 3.46789,-0.17459 3.88451,-0.7269 z m 6.803553,0.0513 c 4.23861,-0.69157 12.05798,-2.35731 17.35927,-3.69799 6.15457,-1.55647 8.63251,-1.42457 10.44129,0.5558 0.74939,0.82047 0.80472,0.83621 1.91406,0.54436 0.62829,-0.1653 2.15419,-0.43087 3.39088,-0.59017 1.23668,-0.1593 2.2904,-0.33151 2.34159,-0.38271 0.26936,-0.26936 -0.3506,-0.61628 -1.37614,-0.77007 -0.63698,-0.0955 -1.38259,-0.34359 -1.6569,-0.55128 -0.46247,-0.35014 -0.43065,-0.37822 0.4375,-0.38602 0.51494,-0.005 1.4017,0.22889 1.9706,0.51893 0.64076,0.32668 1.84503,0.59005 3.16479,0.69213 l 2.13045,0.16479 -0.79375,-0.81432 c -0.66585,-0.68312 -1.11349,-0.86116 -2.77812,-1.10499 -3.74875,-0.5491 -5.57702,-1.28567 -4.35509,-1.75457 0.61113,-0.23451 3.49934,0.39398 5.14884,1.12042 1.55943,0.68678 3.97455,0.96726 4.14731,0.48165 0.27022,-0.75954 -0.86342,-1.47066 -2.9114,-1.8263 -1.96481,-0.3412 -2.82341,-0.71303 -2.82341,-1.22271 0,-0.4665 2.02159,-0.2097 3.39971,0.43185 1.57803,0.73461 3.21487,0.88197 3.21487,0.28941 0,-0.60601 -1.76267,-1.96713 -2.97309,-2.29579 -1.85964,-0.50493 -5.21801,-0.14392 -8.93316,0.96028 -2.16366,0.64307 -3.91698,0.99858 -5.07045,1.02809 -0.96973,0.0248 -1.92223,0.17564 -2.11666,0.33518 -0.52183,0.42819 -5.00912,2.13766 -6.485,2.47051 -0.70227,0.15838 -3.32741,0.39493 -5.83365,0.52566 -4.9473,0.25807 -6.49753,0.56532 -9.73069,1.92859 -1.16417,0.49088 -3.09264,1.21599 -4.2855,1.61138 -2.09194,0.69339 -3.519713,1.51558 -3.519713,2.02685 0,0.41189 3.127793,0.27456 6.581563,-0.28896 z m -21.449481,-0.63978 4.578958,-0.0165 -0.7425,-0.60983 c -1.906558,-1.56589 -2.631578,-1.75398 -5.372706,-1.39382 -4.600943,0.60452 -9.425773,0.65391 -15.052956,0.15408 -5.455054,-0.48454 -9.752996,-0.32648 -11.950165,0.43946 l -0.853469,0.29751 0.6414,0.33607 c 0.561697,0.2943 3.253655,0.67844 7.106856,1.01413 0.654844,0.057 4.762501,0.0343 9.128126,-0.0504 4.365625,-0.0848 9.99803,-0.16159 12.516456,-0.17066 z m 15.529381,-0.64445 c 1.64264,-0.55729 7.42049,-3.95428 8.41178,-4.94557 1.06061,-1.06063 0.52161,-1.35195 -1.03743,-0.56073 -0.70891,0.35977 -2.56882,1.49818 -4.13313,2.5298 -3.383023,2.231 -5.157703,3.16103 -6.642453,3.48098 -0.93951,0.20246 -0.86917,0.21541 0.49081,0.0903 0.87313,-0.0803 2.18282,-0.34796 2.910423,-0.59481 z m -1.948573,-0.28736 c 0.71684,-0.27238 2.836733,-1.51362 4.710843,-2.75832 3.91418,-2.5996 5.60216,-3.48444 6.20548,-3.25292 1.15117,0.44174 0.0474,1.60594 -3.66595,3.86669 -1.44963,0.88256 -2.51602,1.60465 -2.36976,1.60465 0.14626,0 1.62998,-0.55148 3.29715,-1.22551 4.37107,-1.76719 5.15948,-1.93505 10.43955,-2.22263 4.37363,-0.23822 7.61078,-0.74952 8.14828,-1.28702 0.32309,-0.32309 -4.00754,-0.52569 -5.65446,-0.26452 -0.78952,0.1252 -2.63484,0.30549 -4.10072,0.40064 -4.01717,0.26077 -5.55047,-0.45734 -4.9085,-2.29888 0.24115,-0.69178 0.21227,-0.775 -0.26897,-0.775 -0.29653,0 -0.73682,0.23318 -0.97843,0.51817 -0.86509,1.02046 -11.492493,5.96437 -14.540713,6.76441 -3.07692,0.80758 -3.50831,-0.10124 -5.215084,-10.98674 -1.05564,-6.7327 -1.713947,-9.55947 -2.640566,-11.33861 l -0.640151,-1.2291 -0.01233,0.84416 c -0.0068,0.46429 0.457822,3.02413 1.032439,5.68854 0.574617,2.66441 1.464992,7.04704 1.978612,9.73917 1.15084,6.03212 1.59253,7.55037 2.44436,8.4022 0.64467,0.64467 0.74201,0.66017 3.05073,0.48589 1.31165,-0.099 2.97133,-0.40289 3.68818,-0.67527 z m 83.790693,-9.34971 c 2.94418,-7.03594 3.336,-8.07282 2.86974,-7.59436 -0.21271,0.21828 -1.16485,2.36141 -2.11585,4.7625 -0.95101,2.40109 -2.15454,5.37766 -2.67453,6.61458 -0.51999,1.23693 -0.77893,2.03502 -0.57543,1.77353 0.20351,-0.26149 1.32674,-2.7618 2.49607,-5.55625 z m -39.55731,4.42904 c -1.03443,-0.45301 -3.78795,-0.9075 -3.78795,-0.62524 0,0.11306 0.68461,0.34632 1.52136,0.51837 0.83674,0.17205 1.64042,0.34978 1.78594,0.39496 0.14552,0.0452 0.50271,0.0818 0.79375,0.0815 0.38008,-5.3e-4 0.29187,-0.10462 -0.3131,-0.36955 z M 118.127,125.92546 c 0.90951,-0.0873 1.65273,-0.23424 1.65161,-0.32643 -0.003,-0.27946 -2.05269,-1.35824 -2.58018,-1.35824 -0.61321,0 -1.51437,-0.82018 -2.05958,-1.8745 l -0.41413,-0.80083 -0.90596,0.79545 c -0.49828,0.4375 -1.35499,0.87803 -1.90381,0.97895 -1.13188,0.20816 -1.3849,0.4745 -1.39067,1.46385 -0.009,1.51789 1.36595,1.72074 7.60272,1.12175 z m 8.53281,-0.36175 c 0.4942,-0.31938 -0.88722,-0.32643 -2.64583,-0.0135 -1.18211,0.21034 -1.17833,0.21206 0.52917,0.24092 0.94588,0.016 1.89838,-0.0863 2.11666,-0.22741 z m -1.29614,-0.51751 c 0.66956,-0.10162 1.503,-0.0773 1.85208,0.054 0.45452,0.17103 0.86579,0.11566 1.4488,-0.19503 0.78517,-0.41844 0.81054,-0.48732 0.71388,-1.9382 -0.15032,-2.25625 -0.84013,-5.2541 -1.29604,-5.63248 -0.75569,-0.62716 -1.42834,-2.31488 -1.3845,-3.47382 0.0236,-0.62231 -0.14145,-1.48817 -0.36665,-1.92414 -0.98424,-1.90541 -2.96357,-9.39925 -3.64481,-13.79941 -0.37676,-2.43359 -0.0895,-3.52924 1.46882,-5.60226 1.77847,-2.3659 2.32816,-3.76116 1.98452,-5.03731 -0.27406,-1.0178 -0.8439,-1.75675 -1.1323,-1.46835 -0.0817,0.0816 -0.64809,-0.10644 -1.25876,-0.41798 -0.84198,-0.42954 -1.35936,-0.52435 -2.14092,-0.3923 -1.55338,0.26244 -1.47698,0.58373 0.21981,0.92445 2.49896,0.50179 2.67917,0.56069 3.03542,0.99202 0.36124,0.43736 0.38651,0.43871 -1.73728,-0.0922 -0.54073,-0.13517 -0.64751,-0.0384 -0.80301,0.72761 -0.1452,0.71534 -0.0769,0.95261 0.35908,1.24651 0.76735,0.51735 0.66955,1.53095 -0.23498,2.43548 -0.8931,0.89311 -2.09785,1.01797 -3.63303,0.37652 -2.45145,-1.02428 -2.76056,-0.23665 -1.81701,4.62982 1.72537,8.8988 2.49242,24.58409 1.3359,27.31782 -0.15757,0.37246 0.0796,0.59092 1.22152,1.12496 1.47356,0.68916 2.11447,0.70508 5.80946,0.14427 z m 19.81698,0.0415 c 0,-0.28116 -1.5944,-0.8469 -2.38681,-0.8469 -0.90785,0 -0.34053,0.45966 0.93617,0.75851 1.40858,0.32972 1.45064,0.33229 1.45064,0.0884 z m -27.79063,-1.30992 c -0.005,-0.10914 -0.17953,-0.49609 -0.3875,-0.8599 -0.49866,-0.87232 -0.49285,-3.23474 0.0163,-6.63412 0.3952,-2.6384 0.3426,-4.47837 -0.128,-4.47837 -0.35044,0 -1.27013,2.37007 -1.58456,4.08349 -0.39971,2.17804 -0.36009,5.28623 0.0808,6.34147 0.44621,1.06795 2.03841,2.29804 2.00294,1.54743 z m 12.96005,-1.05833 c 0.49425,-1.77973 0.13165,-4.09615 -0.69058,-4.41168 -0.64487,-0.24745 -0.69717,-0.0505 -0.37968,1.42988 0.15973,0.74481 0.29042,1.94365 0.29042,2.66409 0,1.55163 0.39273,1.71162 0.77984,0.31771 z m -17.70836,0.0333 c 0.99645,-0.3987 2.11383,-1.77322 1.74297,-2.14407 -0.45074,-0.45075 -3.0707,1.53677 -3.0707,2.32946 0,0.32547 0.0783,0.31455 1.32773,-0.18539 z m -3.70898,-0.15069 c 0,-0.17367 -0.99883,-1.29238 -2.21964,-2.48603 -2.78108,-2.71918 -3.06805,-3.43269 -4.27923,-10.63959 -0.49749,-2.9602 -1.02107,-5.58196 -1.16352,-5.82613 -0.4072,-0.69794 -0.33734,2.62225 0.13095,6.22325 1.05949,8.14714 2.57874,11.4347 5.83567,12.62802 1.30033,0.47643 1.69577,0.49987 1.69577,0.10048 z m 22.92272,-5.39098 c 0.96989,-1.48023 -0.45552,-3.28908 -2.59185,-3.28908 h -1.02212 l 0.12506,1.64978 c 0.0869,1.14615 0.26361,1.75108 0.57892,1.98164 0.70238,0.51359 0.74594,0.18952 0.11765,-0.87534 -0.87604,-1.48479 -0.45974,-1.37616 0.46104,0.1203 0.8961,1.45636 1.56938,1.57554 2.3313,0.4127 z m -4.37561,-2.25349 c -0.28724,-0.64752 -0.52639,-0.94992 -0.53675,-0.6787 -0.0228,0.59535 0.84184,2.48547 0.96622,2.11232 0.0487,-0.14616 -0.14454,-0.79129 -0.42947,-1.43362 z m 0.3556,-2.68196 c 1.22541,-1.74952 -0.65809,-10.64585 -3.02516,-14.28868 -1.70284,-2.62062 -1.52819,-3.6476 1.10076,-6.47255 1.14328,-1.22852 1.27794,-1.50146 1.27794,-2.59023 0,-1.31763 -0.6618,-2.8726 -1.57354,-3.69717 -0.487,-0.44044 -0.45204,-0.28975 0.23643,1.01906 1.24776,2.37203 1.08462,3.02783 -1.68513,6.77386 l -1.27159,1.71979 0.13855,2.51354 c 0.22292,4.04419 3.32665,15.61042 4.18897,15.61042 0.11049,0 0.38623,-0.26462 0.61277,-0.58804 z M 120.8568,91.46574 c -0.3215,-0.60073 0.37158,-1.35622 1.24417,-1.35622 0.73838,0 0.98077,-0.4323 0.41875,-0.74683 -0.33365,-0.18672 -0.71571,-0.0556 -1.50617,0.51704 -0.58252,0.42198 -1.53192,0.84283 -2.10977,0.93523 l -1.05065,0.16801 0.89761,0.47823 c 0.49369,0.26302 1.22923,0.48322 1.63453,0.48931 0.63961,0.01 0.70187,-0.0544 0.47153,-0.48477 z m 1.17281,-0.56247 c 0.46396,-0.51267 0.46213,-0.52916 -0.0589,-0.52916 -0.5844,0 -1.23431,0.60298 -0.95305,0.88424 0.28292,0.28293 0.5051,0.20497 1.01194,-0.35508 z m -0.0708,-3.0256 c 0.19419,-1.01582 -0.14577,-1.30625 -0.8559,-0.73123 -0.70698,0.57248 -0.57498,1.37558 0.2261,1.37558 0.32671,0 0.55037,-0.22883 0.6298,-0.64435 z m -81.420865,44.64256 c -2.828089,-0.15525 -7.502366,-0.87656 -9.329811,-1.43971 -2.456527,-0.75702 -3.627356,-1.3962 -5.126961,-2.7989 -2.177001,-2.03633 -2.194021,-3.2086 -0.13358,-9.20022 0.625332,-1.81843 0.827817,-2.74648 0.647491,-2.96767 -0.173681,-0.21304 -0.17154,-0.5708 0.0063,-1.05833 0.260374,-0.71365 0.269357,-0.71667 0.289597,-0.0971 0.01148,0.35167 0.09472,0.56558 0.184957,0.47534 0.09024,-0.0902 0.09245,-0.44939 0.0049,-0.79812 l -0.159139,-0.63406 -13.955924,-0.056 c -7.6757593,-0.0308 -14.0081334,-0.10821 -14.0719437,-0.17202 -0.06381,-0.0638 6.1248404,-0.11764 13.7525577,-0.11963 7.627718,-0.002 14.112494,-0.0691 14.410616,-0.14922 0.466886,-0.12541 0.695587,-0.83106 1.649547,-5.08961 0.609129,-2.71921 1.884611,-7.74198 2.834402,-11.16172 2.183635,-7.86222 2.417329,-9.15382 1.996469,-11.03441 -0.187507,-0.83788 -0.627078,-1.78495 -1.05709,-2.27755 -0.40486,-0.46379 -1.051859,-1.46905 -1.437775,-2.23391 -0.385916,-0.76486 -1.294608,-2.20333 -2.019318,-3.19659 -1.466596,-2.01007 -1.71259,-2.77328 -0.615799,-1.91054 1.053703,0.82884 1.07546,0.43591 0.04639,-0.83768 -0.502711,-0.62216 -1.484111,-2.0837 -2.180891,-3.24786 -0.69678,-1.16417 -1.84179,-2.62465 -2.544469,-3.24551 -0.751835,-0.66429 -1.604602,-1.78323 -2.072215,-2.71901 -0.43704,-0.87459 -1.100231,-1.95337 -1.473758,-2.39728 -1.523104,-1.81011 -1.032972,-3.05793 1.091404,-2.77861 0.939514,0.12354 1.133957,0.067 1.272728,-0.37026 0.343543,-1.08241 3.881184,-1.34383 5.330907,-0.39394 0.831684,0.54494 0.853575,0.52597 0.701485,-0.60793 -0.174773,-1.30303 0.317468,-1.78004 1.409493,-1.36591 0.417883,0.15848 2.307601,1.86209 4.199372,3.7858 3.845385,3.91031 5.075798,4.71028 9.253175,6.01605 4.496173,1.40543 4.574252,2.0184 1.177274,9.24225 -2.201092,4.68074 -2.617999,6.16798 -2.77957,9.9156 -0.06901,1.60073 -0.172635,3.17246 -0.23028,3.49273 -0.05764,0.32028 -0.133463,3.29684 -0.168494,6.61459 l -0.06369,6.03226 0.871247,1.71979 c 1.187384,2.34384 2.807242,4.61244 3.594129,5.03357 0.573101,0.30672 0.722569,0.28359 1.245605,-0.1927 0.326896,-0.29769 1.58695,-1.10833 2.800123,-1.80141 2.49556,-1.42572 3.747376,-2.39583 3.747376,-2.90407 0,-0.32604 -1.524389,-2.47849 -8.678527,-12.2541 -1.629727,-2.2269 -2.96314,-4.10916 -2.96314,-4.1828 0,-0.40115 0.796761,0.59358 3.682611,4.59761 1.755225,2.43532 4.323591,5.974238 5.707478,7.86425 1.38389,1.89002 2.516161,3.69966 2.516161,4.02143 0,0.68912 -0.828664,1.35676 -3.988012,3.21308 -2.598811,1.52697 -3.18407,2.0656 -2.520937,2.32006 0.649785,0.24935 2.993073,-1.03102 4.921449,-2.68908 2.607281,-2.24179 3.704167,-2.67478 3.704167,-1.46221 0,1.15708 -0.645914,2.13914 -2.255041,3.42861 -1.785837,1.43108 -4.03991,4.14716 -3.71266,4.47363 0.105537,0.10528 0.488598,-0.16576 0.851249,-0.60233 2.847409,-3.42773 6.030865,-5.99445 8.650436,-6.97455 3.295756,-1.23311 10.209779,-2.03263 15.930494,-1.84218 l 3.222985,0.1073 0.981223,-2.90556 c 1.905071,-5.64124 4.459055,-11.62308 5.733576,-13.42898 0.632452,-0.89613 0.628052,-1.28207 -0.01461,-1.28207 -0.654185,0 -1.341816,-0.68627 -1.341816,-1.33916 0,-0.37272 0.61522,-0.81815 2.315105,-1.67618 3.777774,-1.90687 4.602434,-3.0634 7.188644,-10.08153 4.46612,-12.11961 6.40167,-15.30699 10.209663,-16.81281 1.99075,-0.78722 6.51055,-0.87891 8.86158,-0.17977 0.80036,0.23801 1.99099,0.56949 2.64583,0.73663 3.35596,0.85657 5.85276,2.20636 8.08842,4.37268 2.74693,2.66173 4.13969,6.14035 4.18516,10.45306 l 0.0296,2.80312 -0.95521,1.05931 c -0.58593,0.64979 -1.02622,1.4584 -1.1389,2.09167 -0.48084,2.70228 -1.35641,3.85302 -2.87928,3.78411 -0.53868,-0.0244 -0.53272,-0.0403 0.0786,-0.20965 0.73919,-0.2048 0.93077,-0.95476 1.27141,-4.97695 0.27127,-3.203 1.24714,-3.73642 1.2028,-0.65745 -0.0111,0.7731 0.0613,1.30888 0.1609,1.19063 1.62613,-1.92999 1.9717,-2.60715 2.0776,-4.07124 0.21992,-3.04034 -1.32405,-7.82444 -3.30561,-10.24267 -1.20006,-1.46451 -3.72995,-3.36536 -5.58183,-4.19393 -0.76813,-0.34368 -1.46903,-0.62487 -1.55756,-0.62487 -0.0885,0 0.37729,0.57543 1.03515,1.27873 1.09794,1.17379 1.80588,2.75906 1.40924,3.1557 -0.19481,0.19481 -4.35338,-4.17359 -4.37206,-4.59267 -0.0404,-0.90554 -6.00309,-1.87254 -8.83603,-1.43299 -5.12706,0.79549 -7.380103,3.77964 -11.688813,15.48186 -3.2879,8.9297 -3.99939,10.01683 -7.709269,11.77939 -2.361993,1.12219 -2.875817,1.68966 -2.066041,2.28178 0.780203,0.5705 1.442458,0.42486 2.528118,-0.55596 2.148668,-1.9412 2.802402,-2.12706 7.518462,-2.13754 4.16525,-0.009 4.25591,-0.0217 5.636573,-0.77737 0.77178,-0.42237 1.81446,-1.22313 2.31707,-1.77946 0.87074,-0.96381 0.9059,-1.079 0.74562,-2.44277 -0.0925,-0.78718 -0.0936,-1.72853 -0.002,-2.09187 0.23298,-0.92829 1.72616,-1.7761 3.17946,-1.80527 0.7751,-0.0156 1.47393,-0.22325 1.97193,-0.58606 2.2312,-1.6255 5.22938,-4.38328 6.32472,-5.81761 1.4165,-1.85487 1.67803,-2.09764 3.04337,-2.82505 2.13597,-1.13796 4.88747,-0.89404 5.59443,0.49597 0.45488,0.89437 1.58226,6.55027 1.37311,6.88868 -0.0861,0.13937 -0.69374,0.51342 -1.35024,0.83123 -1.50423,0.72818 -1.81243,1.30094 -1.6201,3.01078 0.1011,0.89883 0.0728,1.1746 -0.0845,0.82279 -0.13014,-0.29104 -0.24498,-1.03518 -0.2552,-1.65364 -0.0218,-1.31734 0.5063,-1.97366 2.10164,-2.61199 1.1431,-0.45738 1.1881,-0.56906 0.78712,-1.95382 -0.14721,-0.50836 -0.39001,-1.68339 -0.53956,-2.61116 -0.36213,-2.24661 -0.83761,-3.09848 -1.93082,-3.45928 -2.21203,-0.73003 -4.70611,0.43725 -6.91171,3.23482 -0.87728,1.11274 -2.82634,3.03979 -4.33125,4.28234 -2.69935,2.22876 -2.75576,2.25919 -4.18756,2.25919 -1.26222,0 -1.55556,0.10421 -2.25101,0.79966 -0.78042,0.78042 -0.79528,0.84321 -0.61784,2.61012 0.17575,1.75004 0.15543,1.84037 -0.60897,2.70608 -0.43493,0.49258 -1.48284,1.31232 -2.32868,1.82164 l -1.537903,0.92604 h -4.24302 c -4.18087,0 -4.26317,0.0112 -5.61854,0.76229 -0.756534,0.41925 -1.640491,1.04433 -1.964346,1.38906 l -0.588828,0.62678 0.906019,0.0375 0.906015,0.0376 -1.047195,0.16089 c -0.838245,0.12879 -1.192426,0.37206 -1.775065,1.21922 -1.346399,1.95768 -3.772109,7.47314 -5.595575,12.72295 -1.294387,3.72657 -1.298099,3.80952 -0.186802,4.17352 1.650344,0.54055 1.686965,2.75042 0.06321,3.81435 -0.622244,0.40771 -0.67982,0.39859 -1.150035,-0.1821 -0.356825,-0.44066 -0.494999,-1.04093 -0.494999,-2.15045 v -1.53915 l -1.506368,-0.18821 c -3.365582,-0.4205 -12.985959,0.43741 -16.220715,1.4465 -3.093151,0.96492 -6.901157,3.70325 -8.859182,6.37061 -0.516945,0.70422 -1.279855,1.39891 -1.695357,1.54376 -0.965846,0.33669 -1.616295,2.11949 -1.616295,4.43004 0,1.18875 -0.117903,1.73812 -0.428318,1.99573 -0.339341,0.28163 -0.398992,0.67891 -0.287139,1.91245 0.256059,2.82384 1.879613,5.34241 4.830493,7.49339 1.040252,0.75826 0.668369,1.11232 -1.497124,1.42536 -1.585846,0.22924 -7.110275,0.26439 -10.687704,0.068 z m 9.861056,-0.31983 c 1.203476,-0.11505 2.274819,-0.29585 2.380766,-0.4018 0.105944,-0.10594 -0.164344,-0.44342 -0.600639,-0.74995 -2.55882,-1.79774 -4.31243,-4.61485 -4.557914,-7.32209 -0.160157,-1.76624 -0.16461,-1.76963 -1.587809,-1.21067 -3.378123,1.32674 -9.101781,2.02792 -12.035396,1.47438 -3.109682,-0.58675 -5.495034,-2.44897 -5.497616,-4.29192 -0.0019,-1.37222 0.204888,-1.54299 1.868594,-1.54299 0.851611,0 2.431629,-0.13137 3.511147,-0.29193 1.733199,-0.25778 2.045113,-0.23797 2.666836,0.1694 1.254961,0.82229 4.278781,0.41599 7.944065,-1.06739 3.198114,-1.29432 3.837564,-1.3504 3.873701,-0.33974 0.01805,0.50485 0.08699,0.45343 0.421304,-0.31429 0.328729,-0.75488 0.336643,-0.93834 0.04456,-1.03304 -0.868611,-0.2816 -2.33953,-2.09959 -2.33953,-2.89155 0,-0.6232 -0.341694,-1.15016 -1.521355,-2.34623 -0.911823,-0.92451 -1.945375,-2.36292 -2.579687,-3.59019 -0.582084,-1.12622 -1.120056,-2.04896 -1.195496,-2.05052 -0.07544,-0.002 -0.357672,1.21753 -0.627184,2.70912 -0.778114,4.30642 -1.481879,6.86653 -2.187708,7.95833 -1.057344,1.63554 -1.901219,1.84565 -6.953417,1.73128 l -4.34922,-0.0985 -1.133121,3.43958 c -1.894453,5.75061 -1.432032,7.48855 2.532457,9.51782 4.052578,2.07436 14.340253,3.26765 21.922661,2.54285 z m -7.344971,-9.16351 c 3.907803,-0.94623 4.495374,-1.23867 4.495374,-2.23738 0,-0.45233 0.13685,-1.65109 0.304112,-2.6639 0.167262,-1.01281 0.224131,-1.92145 0.126378,-2.01921 -0.09775,-0.0977 -0.800153,0.0963 -1.560885,0.43131 -3.520078,1.54999 -5.587498,2.12968 -7.608129,2.13327 -1.327909,0.002 -2.176473,-0.12591 -2.546239,-0.3849 -0.444968,-0.31167 -0.861901,-0.33813 -2.10939,-0.13383 -0.855144,0.14004 -2.35621,0.25531 -3.335703,0.25616 -1.664271,0.001 -1.791454,0.0436 -1.942118,0.64389 -0.464098,1.84912 1.475425,3.69772 4.781349,4.55723 1.835457,0.4772 6.114042,0.21186 9.395251,-0.58264 z m 5.26275,-3.37579 c -0.02083,-1.08483 -0.07089,-1.23445 -0.238209,-0.71199 -0.312391,0.97544 -0.312391,2.44202 0,2.24896 0.14552,-0.0899 0.252714,-0.78158 0.238209,-1.53697 z m -11.166708,-3.77216 c 0.408123,-0.29657 1.006092,-1.0688 1.32882,-1.71608 0.719365,-1.4428 2.264166,-8.93363 2.179719,-10.56959 -0.0338,-0.65484 -0.07478,-4.243992 -0.09106,-7.97588 -0.02572,-5.89727 0.02635,-6.84949 0.398013,-7.27604 0.242276,-0.27807 0.499475,-1.21645 0.59341,-2.16505 0.272037,-2.7471 0.911725,-4.73264 2.827642,-8.77678 0.999641,-2.11005 1.965933,-4.40058 2.147313,-5.09005 0.507765,-1.93016 -0.01889,-2.45743 -3.771156,-3.77552 -4.144667,-1.45593 -4.878354,-1.95058 -9.022851,-6.08328 -2.861762,-2.85362 -3.751262,-3.59453 -4.233333,-3.52615 -0.528608,0.075 -0.602231,0.22179 -0.549992,1.09666 0.06849,1.14698 0.290912,1.61512 1.8336,3.85921 0.63211,0.9195 1.181026,2.07897 1.290227,2.72532 0.104534,0.61873 0.356301,1.37868 0.559483,1.68877 0.203181,0.3101 0.293102,0.7627 0.199821,1.00578 -0.09328,0.24309 0.03359,1.48805 0.281924,2.7666 0.369419,1.90191 0.395266,2.53355 0.142142,3.47357 -0.351001,1.30352 -1.54817,2.65284 -2.353696,2.65284 -0.490842,0 -0.419873,0.23466 0.773395,2.55722 0.722607,1.40646 1.313831,2.72488 1.313831,2.92981 0,0.20957 0.198578,0.33436 0.453816,0.28521 0.535342,-0.1031 1.729563,-3.69221 2.16,-6.49167 0.354674,-2.30672 0.126111,-3.25246 -1.425778,-5.89956 -0.688785,-1.17489 -1.192207,-2.19628 -1.118712,-2.26978 0.209643,-0.20964 2.478411,3.86976 2.859408,5.14141 0.27953,0.93299 0.280072,1.51612 0.0029,3.17282 -0.413052,2.46927 -1.523831,6.1055 -2.04484,6.69395 -0.315952,0.35685 -0.32783,0.64394 -0.06914,1.67127 0.459952,1.82664 0.175403,3.58694 -1.627584,10.0687 -0.89053,3.201458 -2.362814,9.00838 -3.271742,12.90426 -1.614753,6.92122 -1.639957,7.08625 -1.100585,7.20627 1.047284,0.23304 2.942151,0.32908 5.763096,0.29208 2.391196,-0.0314 2.944855,-0.12069 3.571875,-0.57632 z m 12.811289,-1.76848 c 0.976556,-1.40917 2.380264,-2.90593 3.846106,-4.10106 0.758563,-0.61847 1.437309,-1.33285 1.508328,-1.5875 0.07102,-0.25465 0.206124,-0.73089 0.300236,-1.05831 0.314812,-1.09524 -0.699069,-0.6598 -3.031101,1.30178 -2.364893,1.98923 -3.900554,2.85 -5.101672,2.85959 -0.555202,0.004 -0.727604,0.13431 -0.727604,0.54812 0,0.85778 0.734838,2.05454 1.52468,2.4831 0.986158,0.53508 1.004747,0.53016 1.681027,-0.44572 z m 30.48452,-4.91215 c 0.777968,-0.85965 0.845029,-2.03779 0.143947,-2.52885 -1.260674,-0.88301 -1.81959,-0.45591 -1.81959,1.39045 0,1.51919 0.824256,2.07917 1.675643,1.1384 z M 41.251609,94.93791 c 0.04405,-3.38351 0.0091,-6.15171 -0.07769,-6.15157 -0.209185,3.5e-4 -0.503682,5.62488 -0.503682,9.61972 0,2.00659 0.0928,3.09331 0.250643,2.93503 0.138554,-0.13895 0.286456,-3.00243 0.330729,-6.40318 z M 31.205266,80.53957 c -0.728377,-1.34913 -1.600327,-2.63507 -1.937668,-2.85765 -0.71586,-0.47233 -0.66761,-0.36474 0.708387,1.57969 0.46341,0.65484 1.162198,1.82754 1.552863,2.60599 0.390666,0.77846 0.775648,1.35002 0.855517,1.27015 0.07987,-0.0799 -0.450723,-1.24905 -1.179099,-2.59818 z m 93.330004,-0.35192 c 0.0135,-0.44781 0.0596,-0.46815 0.29946,-0.13229 0.22231,0.31121 0.25076,0.25411 0.13186,-0.26459 -0.0834,-0.3638 -0.15508,-1.43536 -0.1593,-2.38125 -0.005,-1.22238 -0.083,-1.605 -0.26799,-1.32291 -0.14318,0.21828 -0.24404,1.11125 -0.22413,1.98437 0.0199,0.87313 -0.0992,1.92267 -0.26479,2.33233 -0.16554,0.40965 -0.29131,1.00497 -0.27949,1.32292 0.0186,0.50119 0.0698,0.4725 0.38494,-0.21567 0.1999,-0.43656 0.37064,-1.03187 0.37944,-1.32291 z M 32.311258,76.90754 c 0.73523,-0.81242 0.832435,-2.8792 0.279948,-5.95219 -0.399232,-2.22057 -0.767019,-3.24816 -2.169104,-6.06047 -2.015472,-4.04266 -2.450497,-4.41619 -5.144945,-4.4177 -2.356369,-10e-4 -3.070124,0.62089 -2.212945,1.92911 0.253993,0.38764 0.302915,0.72242 0.143309,0.98066 -0.307479,0.49752 -0.716271,0.1098 -0.837276,-0.79409 -0.0689,-0.51469 -0.305763,-0.71513 -1.067457,-0.90332 -1.801212,-0.44502 -2.253939,0.71095 -0.871885,2.22623 0.331816,0.3638 0.929056,1.31278 1.327201,2.10884 0.398145,0.79606 1.409049,2.16528 2.246453,3.04271 0.837404,0.87743 2.028123,2.42876 2.646041,3.44741 0.617922,1.01865 1.584344,2.43318 2.147608,3.14342 0.563263,0.71023 1.024114,1.39867 1.024114,1.52988 0,0.3688 1.14267,0.71317 1.590461,0.47932 0.219908,-0.11485 0.624224,-0.45676 0.898477,-0.75981 z m -1.15294,-11.90779 c -0.304152,-0.59619 -0.607166,-1.08398 -0.673367,-1.08398 -0.160139,0 0.284141,1.15146 0.703164,1.82243 0.571995,0.9159 0.551194,0.40038 -0.0298,-0.73845 z M 118.44703,61.6495 c -0.60202,-0.97409 -2.51874,-2.43623 -2.81079,-2.14418 -0.0907,0.0907 0.59633,0.92389 1.52673,1.85154 1.77548,1.77025 2.26642,1.88213 1.28406,0.29264 z M 88.824405,87.62683 c 0,-0.0558 0.297656,-0.15835 0.661462,-0.2279 0.3638,-0.0696 0.66145,-0.0239 0.66145,0.10145 0,0.12534 -0.29765,0.22789 -0.66145,0.22789 -0.363806,0 -0.661462,-0.0457 -0.661462,-0.10144 z m 2.053602,-0.35027 c 0.32912,-0.0633 0.80537,-0.0609 1.05834,0.005 0.25296,0.0662 -0.0163,0.118 -0.5984,0.11507 -0.58208,-0.003 -0.78905,-0.0571 -0.45994,-0.12041 z m 31.406943,-6.439 c -0.006,-0.94245 0.077,-1.41736 0.20613,-1.18655 0.30379,0.54285 0.33378,2.22858 0.0448,2.51687 -0.14577,0.14541 -0.24534,-0.38249 -0.25091,-1.33032 z"
       id="path1838" />
  </g>
</svg>
