<svg id="eNCcrbMQaEU1" xmlns="http://www.w3.org/2000/svg" xmlns:xlink="http://www.w3.org/1999/xlink" viewBox="0 0 70 20" shape-rendering="geometricPrecision" text-rendering="geometricPrecision"><style><![CDATA[#eNCcrbMQaEU3_to {animation: eNCcrbMQaEU3_to__to 3000ms linear infinite normal forwards}@keyframes eNCcrbMQaEU3_to__to { 0% {transform: translate(7.886505px,11.360296px)} 100% {transform: translate(58.275375px,10.911301px)}}]]></style><g id="eNCcrbMQaEU2"><g id="eNCcrbMQaEU3_to" transform="translate(7.886505,11.360296)"><path id="eNCcrbMQaEU3" d="M31.866814,18.387945C30.734005,17.997407,29.827365,16.742447,28.233282,13.358453C27.977102,12.814622,27.568824,12.033736,27.325997,11.623149C26.945464,10.979722,26.884493,10.821919,26.884493,10.480465C26.884493,9.862559,27.192926,9.420482,27.792669,9.178769C28.458108,8.910580,28.991022,9.101309,29.772865,9.887481C30.069680,10.185939,30.326940,10.430132,30.344554,10.430132C30.362164,10.430132,30.376574,8.649225,30.376574,6.472557C30.376574,2.112172,30.366004,2.212505,30.870612,1.785142C31.416301,1.322994,32.089216,1.272250,32.681482,1.648589C33.245148,2.006755,33.294154,2.207221,33.294154,4.154808L33.294154,5.871870L33.467478,5.782397C33.728762,5.647515,34.399691,5.666546,34.696025,5.817247C34.838195,5.889545,35.044514,6.046130,35.154510,6.165210L35.354504,6.381719L35.731995,6.227882C36.439580,5.939527,37.294547,6.261066,37.600853,6.930730C37.718041,7.186934,37.773889,7.236098,37.904618,7.198135C38.340469,7.071562,38.675218,7.069828,39.008002,7.192395C39.393815,7.334519,39.803304,7.731680,39.896999,8.054628C40.005303,8.427926,39.969469,14.677538,39.856379,15.141101C39.554480,16.378486,38.436816,17.636320,37.023132,18.329678C36.706142,18.485149,36.588600,18.492353,34.420966,18.489166C32.777251,18.486766,32.072423,18.458816,31.866817,18.387928ZM37.122534,17.465784C37.841307,17.033662,38.610176,16.246826,38.901588,15.645160C39.233810,14.959233,39.283762,14.394272,39.285343,11.304826C39.286643,8.775635,39.272813,8.463741,39.148910,8.225445C38.904882,7.756130,38.365197,7.652536,37.980477,8.001160C37.829852,8.137651,37.803014,8.269779,37.752841,9.121878C37.694781,10.107759,37.641433,10.278012,37.390519,10.278012C37.038775,10.278012,37.000274,10.119403,37.000274,8.670315C37.000274,7.877063,36.966134,7.240142,36.919074,7.155330C36.797681,6.936531,36.394580,6.761829,36.137028,6.816393C36.015532,6.842133,35.831830,6.949638,35.728803,7.055294C35.552397,7.236198,35.539991,7.311351,35.515944,8.344702C35.492574,9.349172,35.477104,9.448874,35.333235,9.523146C35.213585,9.584916,35.130263,9.575336,34.984217,9.483036C34.793427,9.362454,34.792371,9.354653,34.792371,8.067057C34.792371,6.793821,34.789171,6.769231,34.598820,6.585636C34.289880,6.287638,33.823402,6.307664,33.511000,6.632334C33.299926,6.851701,33.294154,6.881557,33.294154,7.754011C33.294154,8.695184,33.248874,8.832866,32.939313,8.832866C32.586964,8.832866,32.584472,8.810036,32.584472,5.581635L32.584472,2.512951L32.394129,2.329352C32.145360,2.089394,31.850080,2.023417,31.554128,2.141662C31.077328,2.332163,31.086255,2.238046,31.086255,7.074272C31.086255,10.981801,31.072145,11.497724,30.962342,11.603633C30.894192,11.669373,30.781513,11.723156,30.711949,11.723156C30.642389,11.723156,30.152770,11.287539,29.623918,10.755117C28.696112,9.821048,28.650939,9.787077,28.336668,9.787077C28.087989,9.787077,27.960639,9.835617,27.798143,9.992362C27.502546,10.277489,27.526664,10.608722,27.883663,11.166850C28.039232,11.410068,28.558731,12.410538,29.038104,13.390115C30.384336,16.141082,31.062173,17.160669,31.825626,17.583039L32.229634,17.806550L34.391488,17.807240L36.553341,17.807929L37.122532,17.465735Z" transform="scale(0.860324,0.910510) translate(-33.423320,-9.944094)" fill="rgb(255,255,255)" stroke="none" stroke-width="0.077444" stroke-miterlimit="1"/></g><rect id="eNCcrbMQaEU4" width="69.022400" height="18.775700" rx="4.544434" ry="4.544434" transform="matrix(1 0 0 1 -10.14330000000000 27.88250000000000)" fill="none" stroke="rgb(255,255,255)" stroke-width="0.500000" stroke-miterlimit="1"/></g><rect id="eNCcrbMQaEU5" width="67.627119" height="17.889247" rx="2.840000" ry="2.840000" transform="matrix(0.99523157999007 0 0 1 1.34767775372692 1.39851987000000)" fill="rgba(210,219,237,0)" stroke="rgb(255,255,255)" stroke-width="1" stroke-miterlimit="1"/></svg>