<?xml version="1.0" encoding="UTF-8" standalone="no"?>
<svg
   xmlns:dc="http://purl.org/dc/elements/1.1/"
   xmlns:cc="http://creativecommons.org/ns#"
   xmlns:rdf="http://www.w3.org/1999/02/22-rdf-syntax-ns#"
   xmlns:svg="http://www.w3.org/2000/svg"
   xmlns="http://www.w3.org/2000/svg"
   xmlns:sodipodi="http://sodipodi.sourceforge.net/DTD/sodipodi-0.dtd"
   xmlns:inkscape="http://www.inkscape.org/namespaces/inkscape"
   width="55mm"
   height="90mm"
   viewBox="0 0 55 90"
   version="1.1"
   id="svg8"
   inkscape:version="1.0.1 (3bc2e813f5, 2020-09-07)"
   sodipodi:docname="services2.svg">
  <defs
     id="defs2" />
  <sodipodi:namedview
     id="base"
     pagecolor="#ffffff"
     bordercolor="#666666"
     borderopacity="1.0"
     inkscape:pageopacity="0.0"
     inkscape:pageshadow="2"
     inkscape:zoom="1.4"
     inkscape:cx="316.70761"
     inkscape:cy="153.52093"
     inkscape:document-units="mm"
     inkscape:current-layer="layer1"
     inkscape:document-rotation="0"
     showgrid="false"
     inkscape:window-width="3840"
     inkscape:window-height="2066"
     inkscape:window-x="-11"
     inkscape:window-y="-11"
     inkscape:window-maximized="1" />
  <metadata
     id="metadata5">
    <rdf:RDF>
      <cc:Work
         rdf:about="">
        <dc:format>image/svg+xml</dc:format>
        <dc:type
           rdf:resource="http://purl.org/dc/dcmitype/StillImage" />
        <dc:title />
      </cc:Work>
    </rdf:RDF>
  </metadata>
  <g
     inkscape:label="Layer 1"
     inkscape:groupmode="layer"
     id="layer1">
    <ellipse
       style="opacity:0;fill:none;fill-opacity:1;stroke:#000000;stroke-width:0.765;stroke-miterlimit:4;stroke-dasharray:none"
       id="path889"
       cx="52.184376"
       cy="94.346146"
       rx="35.48003"
       ry="17.907059" />
    <path
       style="fill:#ffffff;stroke-width:0.100145;stroke:#ffffff"
       d="m 18.100951,26.335186 c -0.135724,-0.06323 -1.216296,-1.346291 -2.401276,-2.851251 -1.184977,-1.50496 -2.224083,-2.789206 -2.309125,-2.853881 -0.122887,-0.09346 -0.230962,-0.08064 -0.52662,0.06245 -1.036788,0.501776 -2.706124,0.649763 -3.8205966,0.338697 C 7.6710416,20.648172 6.3315246,19.596112 5.7385976,18.435648 5.4917702,17.952562 5.4685004,17.829203 5.5479663,17.425019 c 0.085589,-0.435352 0.2580138,-0.661118 0.4590045,-0.601 0.049475,0.0148 0.1714345,0.277141 0.2710174,0.582982 0.4968853,1.526047 1.84463,2.623794 3.5774267,2.913836 1.8019071,0.301609 3.7490011,-0.673371 4.5956401,-2.301202 0.288432,-0.554574 0.446645,-0.744144 0.727129,-0.871243 0.197166,-0.08934 0.404245,-0.13557 0.460177,-0.102722 0.233346,0.137041 -0.352537,1.537974 -0.933928,2.233166 -0.171567,0.205148 -0.311939,0.407093 -0.311939,0.448764 0,0.04167 1.084322,1.287717 2.409605,2.768988 2.568004,2.870256 2.728039,3.114026 2.405077,3.663449 -0.167991,0.285787 -0.690984,0.368592 -1.106225,0.175149 z M 10.875173,19.08168 C 10.331566,18.801395 10.11424,17.973264 10.431363,17.390522 10.573544,17.129257 10.558455,17.086846 10.059741,16.345929 9.7738407,15.921181 9.4897381,15.543592 9.4284011,15.506844 9.3670641,15.470095 9.1909934,15.463954 9.0371326,15.493196 8.8771679,15.523599 8.6154071,15.479057 8.425797,15.389171 8.2434207,15.302717 8.0204066,15.23352 7.9302047,15.235402 c -0.090198,0.0019 -0.7418723,0.345991 -1.4481623,0.764688 l -1.2841633,0.761269 -0.05608,0.431184 C 5.036901,17.999072 4.5764948,18.455806 3.8741769,18.450059 3.3598072,18.445853 3.0408252,18.288679 2.7781365,17.910013 2.4057385,17.373192 2.6293349,16.495666 3.2143255,16.198164 3.555591,16.02461 4.235602,16.05064 4.5549607,16.249482 l 0.2753506,0.171441 1.3652134,-0.80253 c 0.7508688,-0.441392 1.3945172,-0.846009 1.4303246,-0.899149 0.0358,-0.05314 0.067553,-0.264707 0.070539,-0.470149 0.00695,-0.47963 0.1567498,-0.738248 0.5643572,-0.97442 1.1384176,-0.65961 2.3904855,0.516138 1.7679215,1.660155 -0.1469461,0.270023 -0.1351301,0.303225 0.371707,1.044592 0.287911,0.421138 0.538983,0.781973 0.557939,0.801857 0.01895,0.01988 0.262529,0.04784 0.541281,0.06214 0.326592,0.01674 0.615059,0.102034 0.81122,0.239847 l 0.304409,0.213861 1.530716,-0.657096 c 0.841897,-0.361402 1.564682,-0.705252 1.606197,-0.764109 0.04151,-0.05886 0.07618,-0.208038 0.07705,-0.331512 0.0043,-0.61825 0.583829,-1.093404 1.33351,-1.093404 0.332183,0 0.495992,0.06832 0.801283,0.334177 0.348037,0.303082 0.38374,0.380991 0.38374,0.837291 0,0.456301 -0.03568,0.534209 -0.38374,0.837292 -0.465469,0.405349 -1.017261,0.44887 -1.61868,0.127668 l -0.386672,-0.206509 -1.52788,0.657112 c -0.840333,0.361411 -1.561848,0.706938 -1.603359,0.767838 -0.04151,0.0609 -0.07619,0.233078 -0.07705,0.382621 -0.0046,0.794635 -1.076265,1.305099 -1.875161,0.893189 z m 1.063398,-0.438853 c 0.492746,-0.250591 0.446428,-1.024812 -0.07482,-1.250491 -0.366873,-0.158843 -0.507101,-0.138645 -0.821478,0.11832 -0.72054,0.588947 0.05017,1.562477 0.896296,1.132171 z M 4.4298599,17.696183 c 0.3769176,-0.455339 0.1557246,-1.007035 -0.4629145,-1.15458 -0.8152499,-0.194436 -1.2234049,1.05777 -0.4460164,1.368376 0.3987391,0.159316 0.6487543,0.100508 0.9089309,-0.213796 z M 17.404189,16.28988 c 0.504989,-0.255577 0.63207,-0.769609 0.279238,-1.129488 -0.282259,-0.287897 -0.569176,-0.352645 -0.898347,-0.202726 -0.552685,0.251717 -0.569832,1.059739 -0.02803,1.32024 0.316548,0.152196 0.368181,0.153151 0.647128,0.01197 z M 9.3421946,14.88045 C 9.6977567,14.643796 9.7988461,14.299985 9.6131848,13.958817 9.1879454,13.177401 7.872766,13.732516 8.2265343,14.544099 c 0.1975815,0.453272 0.7085459,0.60732 1.1156603,0.336351 z m 5.5115134,0.443059 C 14.731216,14.634564 14.126163,13.628353 13.51543,13.097946 11.826645,11.631275 9.4085443,11.573813 7.6307533,12.958108 7.118659,13.356856 6.4292088,14.305745 6.3254674,14.754569 6.2479778,15.089835 5.4817719,15.687232 5.3228945,15.536258 5.160701,15.382136 5.3553549,14.662443 5.7744166,13.866838 6.42771,12.626526 7.61191,11.692736 9.0433334,11.289161 c 0.7234716,-0.203975 2.1626456,-0.20476 2.8906016,-0.0016 1.626605,0.454009 3.012689,1.652978 3.533943,3.05687 0.121148,0.326286 0.11937,0.449793 -0.01262,0.877678 -0.112649,0.36516 -0.203942,0.49796 -0.342326,0.49796 -0.140581,0 -0.20669,-0.101138 -0.259217,-0.396583 z"
       id="path1032" />
    <path
       style="fill:#ffffff;stroke-width:0.0373286;stroke:#ffffff"
       d="m 6.992305,63.241093 c -0.130788,-0.15667 -0.138167,-0.39437 -0.01746,-0.56263 l 0.08223,-0.11463 0.608421,-0.0204 0.608422,-0.0204 0.02149,-0.28789 c 0.03705,-0.49642 0.269407,-0.89371 0.639413,-1.09331 0.133125,-0.0718 0.243939,-0.0877 0.712239,-0.10234 0.53231,-0.0166 0.555261,-0.0208 0.571382,-0.10441 0.0092,-0.0479 0.09349,-0.47019 0.187229,-0.93839 0.09374,-0.4682 0.17043,-0.87666 0.17043,-0.90768 0,-0.0474 -0.446965,-0.0583 -2.805249,-0.068 l -2.805251,-0.0116 -0.192788,-0.0934 c -0.373954,-0.18111 -0.669478,-0.53511 -0.820671,-0.98306 l -0.07795,-0.23094 -0.01,-5.43375 c -0.0069,-3.76492 0.0014,-5.51532 0.02701,-5.69932 0.07554,-0.54273 0.355555,-0.99646 0.769013,-1.24608 l 0.203009,-0.12257 4.791947,-0.0204 c 2.635572,-0.0112 4.809721,-0.0343 4.831442,-0.0511 0.02172,-0.0169 0.302602,-0.49887 0.624179,-1.07105 0.342695,-0.609754 0.643431,-1.100555 0.726628,-1.185861 0.572696,-0.587207 1.425218,-0.563682 1.978653,0.0546 0.277514,0.310032 0.412553,0.619242 0.466713,1.068661 0.03338,0.27697 -0.01142,0.68615 -0.101976,0.93136 -0.03744,0.1014 -0.05944,0.19472 -0.04887,0.20737 0.01057,0.0127 0.138442,0.0353 0.284169,0.0503 0.643697,0.0663 1.13115,0.62421 1.232362,1.41058 0.02445,0.18995 0.03303,2.03081 0.02653,5.69403 l -0.0096,5.41332 -0.07794,0.23094 c -0.151194,0.44795 -0.446718,0.80195 -0.820672,0.98306 l -0.192788,0.0934 -2.805251,0.0116 c -2.358285,0.01 -2.80525,0.0206 -2.80525,0.068 0,0.031 0.07669,0.43948 0.170431,0.90768 0.09374,0.4682 0.17799,0.89047 0.187228,0.93839 0.01612,0.0836 0.03907,0.0878 0.571382,0.10441 0.468301,0.0146 0.579115,0.0305 0.71224,0.10234 0.370006,0.1996 0.60236,0.59689 0.639413,1.09331 l 0.02149,0.28789 0.608423,0.0204 0.608421,0.0204 0.08223,0.11463 c 0.120704,0.16826 0.113325,0.40596 -0.01746,0.56263 l -0.0997,0.11942 H 11.769775 7.091952 Z m 7.568179,-0.85574 c 0.006,-0.0757 -0.0076,-0.19133 -0.03028,-0.25697 -0.08685,-0.25115 0.05728,-0.23866 -2.753158,-0.23866 -1.697224,0 -2.591964,0.0143 -2.635304,0.0421 -0.12576,0.0806 -0.227079,0.48715 -0.145706,0.58463 0.01262,0.0151 1.267305,0.0228 2.788198,0.017 l 2.765261,-0.0105 z m -1.938001,-1.38981 c 0,-0.0688 -0.343407,-1.7821 -0.375565,-1.87377 -0.0311,-0.0886 -0.04806,-0.0919 -0.477095,-0.0919 -0.429029,0 -0.445991,0.003 -0.477094,0.0919 -0.03216,0.0917 -0.375565,1.80499 -0.375565,1.87377 0,0.0201 0.379657,0.0362 0.852659,0.0362 0.473003,0 0.85266,-0.0161 0.85266,-0.0362 z m 6.020593,-2.92616 c 0.11783,-0.0873 0.19126,-0.18173 0.253117,-0.32563 0.08519,-0.19819 0.08739,-0.2247 0.09869,-1.18811 0.01027,-0.87544 0.0052,-0.99296 -0.04507,-1.05323 -0.05229,-0.0626 -0.469266,-0.0678 -5.441101,-0.0678 H 8.124243 l -0.08832,-0.0919 c -0.116558,-0.12132 -0.14985,-0.35834 -0.07067,-0.5031 0.127924,-0.23387 -0.171453,-0.22209 5.641566,-0.22209 4.848999,0 5.354097,-0.006 5.372853,-0.0646 0.03563,-0.11124 0.02309,-7.57535 -0.01317,-7.84066 -0.03684,-0.2695 -0.09365,-0.38234 -0.286887,-0.56983 l -0.12876,-0.12493 h -0.515641 -0.51564 l -1.512725,2.20619 c -0.831999,1.2134 -1.527332,2.23761 -1.545185,2.27602 -0.02102,0.0452 -0.01882,0.13877 0.0063,0.26556 0.06392,0.32318 0.04699,0.89245 -0.03588,1.20649 -0.152485,0.57785 -0.547947,1.07024 -1.013519,1.26194 -0.217351,0.0895 -0.286863,0.0963 -1.017732,0.0991 -0.731459,0.003 -0.797772,0.009 -0.981732,0.0958 -0.108506,0.051 -0.263899,0.15364 -0.345317,0.22809 -0.295967,0.27062 -0.442386,0.29789 -0.598067,0.11141 -0.173502,-0.20784 -0.32409,-1.17112 -0.320679,-2.05132 0.0027,-0.6891 0.06773,-1.05541 0.275261,-1.54986 0.309867,-0.73827 1.001871,-1.25959 1.776049,-1.33798 l 0.25218,-0.0255 0.749247,-1.34534 c 0.412086,-0.73994 0.757585,-1.37137 0.767776,-1.40319 0.01592,-0.0497 -0.608037,-0.0578 -4.433786,-0.0578 -2.672557,0 -4.485769,0.0152 -4.536009,0.0381 -0.04603,0.021 -0.141406,0.0988 -0.21194,0.173 -0.252693,0.26577 -0.236333,-0.0202 -0.247329,4.32382 -0.0054,2.14593 -0.0013,3.94305 0.0092,3.99361 0.01863,0.0899 0.02973,0.0919 0.496987,0.0919 0.526325,0 0.66836,0.0411 0.767352,0.22209 0.07918,0.14476 0.04589,0.38178 -0.07067,0.5031 -0.08307,0.0865 -0.118437,0.0919 -0.595576,0.0919 -0.427194,0 -0.516196,0.0107 -0.563887,0.0678 -0.05031,0.0603 -0.05534,0.1777 -0.04507,1.05203 0.01102,0.93841 0.01532,0.99334 0.09243,1.18095 0.09066,0.22057 0.27632,0.39209 0.475035,0.43886 0.06942,0.0163 3.104917,0.0271 6.745543,0.0239 l 6.619322,-0.006 z M 6.676785,55.351103 c -0.188486,-0.1776 -0.143191,-0.53019 0.0853,-0.66399 0.11324,-0.0663 0.136738,-0.0676 0.244618,-0.0136 0.164837,0.0825 0.240967,0.23264 0.215424,0.42483 -0.0404,0.30394 -0.342455,0.44396 -0.545342,0.25279 z m 4.632603,-2.73924 c 0.213317,-0.0809 0.318657,-0.0913 0.989084,-0.0976 0.87734,-0.008 0.980708,-0.033 1.211135,-0.29121 0.214594,-0.24045 0.309639,-0.50706 0.310599,-0.87125 0.0015,-0.55218 0.0023,-0.5508 -0.691411,-1.16965 -0.68384,-0.61007 -0.660272,-0.59948 -1.09059,-0.49022 -0.54448,0.13824 -0.935263,0.54093 -1.099591,1.13309 -0.09587,0.34546 -0.130817,0.86598 -0.09054,1.34855 0.02024,0.24252 0.04623,0.47039 0.05776,0.50639 0.0233,0.0727 0.03942,0.07 0.40355,-0.0681 z m 3.026941,-3.24509 c 0.182896,-0.2667 0.332538,-0.50662 0.332538,-0.53317 0,-0.0266 -0.200983,-0.22601 -0.446629,-0.44325 -0.379436,-0.33556 -0.454556,-0.3871 -0.499328,-0.3426 -0.09374,0.0932 -0.593356,1.01663 -0.582397,1.07644 0.01293,0.0706 0.781209,0.75535 0.829172,0.73906 0.01876,-0.006 0.18375,-0.22979 0.366644,-0.49648 z m 1.989758,-2.89993 c 0.631577,-0.92129 1.178649,-1.75564 1.215718,-1.85411 0.102523,-0.27235 0.07522,-0.67852 -0.06125,-0.91111 -0.282273,-0.481097 -0.81695,-0.574433 -1.176832,-0.205432 -0.09099,0.09329 -0.494252,0.778642 -1.129195,1.919072 -0.543217,0.97568 -0.995622,1.79879 -1.005345,1.82914 -0.0184,0.0574 0.924355,0.93271 0.979699,0.90958 0.01588,-0.007 0.545627,-0.76585 1.177202,-1.68714 z"
       id="path1034" />
    <path
       style="fill:#ffffff;stroke:#ffffff;stroke-width:0.265;stroke-linecap:butt;stroke-linejoin:miter;stroke-miterlimit:4;stroke-dasharray:0.795, 0.26500000000000001;stroke-dashoffset:0;stroke-opacity:1"
       d="m 11.358955,30.268275 v 9.15398"
       id="path1060" />
    <path
       style="fill:#ffffff;stroke:#ffffff;stroke-width:0.264583px;stroke-linecap:butt;stroke-linejoin:miter;stroke-opacity:1"
       d="M 2.2717909,5.0113035 H 52.384828"
       id="path1062" />
    <path
       style="fill:#ffffff;stroke:#ffffff;stroke-width:0.264583px;stroke-linecap:butt;stroke-linejoin:miter;stroke-opacity:1"
       d="m 48.910322,2.6726951 3.474506,2.3386084"
       id="path1064" />
    <path
       style="fill:#ffffff;stroke:#ffffff;stroke-width:0.261699px;stroke-linecap:butt;stroke-linejoin:miter;stroke-opacity:1"
       d="M 48.858983,7.4829045 52.386054,5.2291021"
       id="path1064-3" />
    <text
       xml:space="preserve"
       style="font-size:4.9389px;line-height:1.25;font-family:'Franklin Gothic Medium';-inkscape-font-specification:'Franklin Gothic Medium, ';stroke-width:0.264583;fill:#ffffff;stroke:#ffffff;"
       x="23.786987"
       y="27.395124"
       id="text1098"><tspan
         sodipodi:role="line"
         id="tspan1096"
         x="23.786987"
         y="27.395124"
         style="stroke-width:0.264583;fill:#ffffff;stroke:#ffffff;">Analysis</tspan><tspan
         sodipodi:role="line"
         x="23.786987"
         y="33.568748"
         style="stroke-width:0.264583;fill:#ffffff;stroke:#ffffff;"
         id="tspan1112">Analiza</tspan></text>
    <text
       xml:space="preserve"
       style="font-size:4.9389px;line-height:1.25;font-family:'Franklin Gothic Medium';-inkscape-font-specification:'Franklin Gothic Medium, ';stroke-width:0.264583;fill:#ffffff;stroke:#ffffff;"
       x="23.452902"
       y="50.24667"
       id="text1102"><tspan
         sodipodi:role="line"
         id="tspan1100"
         x="23.452902"
         y="50.24667"
         style="stroke-width:0.264583;fill:#ffffff;stroke:#ffffff;">Concept</tspan><tspan
         sodipodi:role="line"
         x="23.452902"
         y="56.420296"
         style="stroke-width:0.264583;fill:#ffffff;stroke:#ffffff;"
         id="tspan1104">Koncepcja</tspan></text>
  </g>
</svg>
