<?xml version="1.0" encoding="UTF-8" standalone="no"?>
<svg
   xmlns:dc="http://purl.org/dc/elements/1.1/"
   xmlns:cc="http://creativecommons.org/ns#"
   xmlns:rdf="http://www.w3.org/1999/02/22-rdf-syntax-ns#"
   xmlns:svg="http://www.w3.org/2000/svg"
   xmlns="http://www.w3.org/2000/svg"
   xmlns:sodipodi="http://sodipodi.sourceforge.net/DTD/sodipodi-0.dtd"
   xmlns:inkscape="http://www.inkscape.org/namespaces/inkscape"
   width="55mm"
   height="90mm"
   viewBox="0 0 55 90"
   version="1.1"
   id="svg8"
   inkscape:version="1.0.1 (3bc2e813f5, 2020-09-07)"
   sodipodi:docname="services4.svg">
  <defs
     id="defs2" />
  <sodipodi:namedview
     id="base"
     pagecolor="#ffffff"
     bordercolor="#666666"
     borderopacity="1.0"
     inkscape:pageopacity="0.0"
     inkscape:pageshadow="2"
     inkscape:zoom="2.8"
     inkscape:cx="18.390962"
     inkscape:cy="102.05925"
     inkscape:document-units="mm"
     inkscape:current-layer="layer1"
     inkscape:document-rotation="0"
     showgrid="false"
     inkscape:window-width="3840"
     inkscape:window-height="2066"
     inkscape:window-x="-11"
     inkscape:window-y="-11"
     inkscape:window-maximized="1" />
  <metadata
     id="metadata5">
    <rdf:RDF>
      <cc:Work
         rdf:about="">
        <dc:format>image/svg+xml</dc:format>
        <dc:type
           rdf:resource="http://purl.org/dc/dcmitype/StillImage" />
        <dc:title />
      </cc:Work>
    </rdf:RDF>
  </metadata>
  <g
     inkscape:label="Layer 1"
     inkscape:groupmode="layer"
     id="layer1">
    <ellipse
       style="opacity:0;fill:none;fill-opacity:1;stroke:#000000;stroke-width:0.765;stroke-miterlimit:4;stroke-dasharray:none"
       id="path889"
       cx="52.184376"
       cy="94.346146"
       rx="35.48003"
       ry="17.907059" />
    <path
       style="fill:#ffffff;stroke-width:0.0477547;stroke:#ffffff"
       d="m 3.5287251,68.051305 c -0.276382,-0.0615 -0.711224,-0.305616 -0.931019,-0.522663 -0.250501,-0.247362 -0.504862,-0.69315 -0.606371,-1.062689 -0.08027,-0.292238 -0.08301,-0.65913 -0.07177,-9.61284 l 0.01166,-9.309004 0.147505,-0.352951 c 0.08113,-0.194123 0.217358,-0.449546 0.302738,-0.567608 0.201412,-0.278509 0.642223,-0.610053 0.942728,-0.709039 0.233423,-0.07689 0.23889,-0.08317 0.316876,-0.364117 0.100434,-0.361809 0.373123,-0.827015 0.618094,-1.054469 0.163486,-0.151794 0.592833,-0.406863 0.846455,-0.502865 0.04343,-0.01642 0.100462,-0.09341 0.126811,-0.171084 0.147002,-0.43333 0.356066,-0.832059 0.555508,-1.059508 0.257155,-0.293261 0.695187,-0.556703 1.050618,-0.631866 0.333954,-0.07062 12.7360979,-0.06988 13.0649279,7.88e-4 0.314391,0.06756 0.732574,0.295131 0.966123,0.525758 0.250501,0.247363 0.504862,0.693151 0.606371,1.062689 0.08027,0.292239 0.08301,0.65913 0.07177,9.612839 l -0.01166,9.309005 -0.147505,0.352951 c -0.08113,0.194123 -0.217358,0.449548 -0.302739,0.567608 -0.201412,0.278511 -0.642223,0.610052 -0.942727,0.70904 -0.233424,0.07689 -0.23889,0.08317 -0.316877,0.364117 -0.100434,0.361808 -0.373123,0.827014 -0.618094,1.054467 -0.163486,0.151796 -0.592833,0.406864 -0.846455,0.502867 -0.04343,0.01643 -0.100461,0.09341 -0.126811,0.171084 -0.147002,0.433328 -0.356066,0.832059 -0.555508,1.059508 -0.257155,0.293261 -0.695187,0.556701 -1.050618,0.631865 -0.300714,0.06359 -12.8134769,0.05989 -13.1000319,-0.0039 z M 16.713391,67.059529 c 0.290416,-0.152967 0.480607,-0.352689 0.619057,-0.65008 l 0.12117,-0.260255 v -9.200876 -9.200876 l -0.0988,-0.209255 C 17.19559,47.200926 17.040105,47.024897 16.767409,46.873161 L 16.511505,46.730772 H 10.096196 3.6808871 l -0.204163,0.107038 c -0.283594,0.148687 -0.49647,0.373946 -0.626974,0.663462 l -0.110969,0.24617 -0.01173,9.122565 c -0.01299,10.127961 -0.03484,9.381204 0.287205,9.807539 0.171745,0.227354 0.405036,0.385476 0.677125,0.458945 0.09634,0.02601 2.887003,0.04213 6.4945169,0.0375 6.31646,-0.0081 6.325872,-0.0083 6.527465,-0.114458 z M 4.5225661,66.147695 c -0.0539,-0.04276 -0.118823,-0.162856 -0.144321,-0.266876 -0.06263,-0.255504 -0.06263,-4.596103 0,-4.851609 0.08519,-0.347558 0.07046,-0.344624 1.730388,-0.344624 1.315571,0 1.491262,0.0093 1.515335,0.08041 0.03924,0.115859 0.03226,0.696116 -0.0093,0.770191 -0.02611,0.04652 -0.341076,0.06618 -1.221812,0.07625 l -1.186672,0.01356 v 1.830009 1.830008 h 1.615042 1.615042 l 0.01222,-0.902297 0.01229,-0.902295 h 0.402718 0.402733 v 1.216106 1.216105 l -0.11615,0.156401 -0.116142,0.156401 h -2.20671 c -1.907824,0 -2.219988,-0.01053 -2.304678,-0.07775 z m 5.5784329,-0.460161 c -0.01501,-0.04422 -0.02723,-0.213916 -0.02723,-0.377093 0,-0.163178 0.01229,-0.33287 0.02723,-0.377096 0.02444,-0.07215 0.319251,-0.08041 2.871183,-0.08041 h 2.843961 v 0.457503 0.457502 h -2.843961 c -2.551932,0 -2.846753,-0.0083 -2.871183,-0.08041 z M 6.6418001,64.338945 c -0.158829,-0.101938 -0.874815,-0.929948 -0.874815,-1.01169 0,-0.08612 0.445664,-0.609327 0.519015,-0.609327 0.02485,0 0.144558,0.114376 0.266077,0.254169 0.121511,0.139791 0.240705,0.254167 0.264862,0.254167 0.02416,0 0.433159,-0.438932 0.908887,-0.975404 l 0.86495,-0.975405 0.27958,0.31679 0.27958,0.316791 -1.074621,1.216903 c -1.112344,1.259624 -1.219543,1.350335 -1.433515,1.213006 z m 3.4861349,-0.461633 c -0.07177,-0.08132 -0.07204,-0.76297 -3.42e-4,-0.844215 0.06312,-0.07154 5.535585,-0.08877 5.634399,-0.01773 0.04175,0.03002 0.05432,0.161552 0.04489,0.469431 l -0.0132,0.427732 -2.805806,0.01308 c -2.145024,0.01001 -2.818561,-0.0013 -2.85997,-0.04829 z m -0.02695,-1.900628 c -0.01501,-0.04422 -0.02723,-0.213916 -0.02723,-0.377093 0,-0.163178 0.01229,-0.332872 0.02723,-0.377096 0.02444,-0.07215 0.319251,-0.08041 2.871183,-0.08041 h 2.843961 v 0.457503 0.457502 h -2.843961 c -2.551932,0 -2.846753,-0.0083 -2.871183,-0.08041 z M 4.5225521,59.640999 c -0.0539,-0.04276 -0.118823,-0.162856 -0.144321,-0.266875 -0.06263,-0.255506 -0.06263,-4.596106 0,-4.85161 0.08519,-0.347557 0.07046,-0.344625 1.730389,-0.344625 1.31557,0 1.491261,0.0093 1.515334,0.08041 0.03924,0.115858 0.03226,0.696116 -0.0093,0.77019 -0.02611,0.04652 -0.341076,0.06618 -1.221812,0.07625 l -1.186672,0.01356 v 1.830008 1.830009 h 1.615042 1.615042 l 0.01222,-0.902295 0.01229,-0.902297 h 0.402718 0.402733 v 1.216105 1.216106 l -0.11615,0.1564 -0.116142,0.156401 h -2.20671 c -1.907824,0 -2.219988,-0.01053 -2.304678,-0.07775 z m 5.5784329,-0.460161 c -0.01501,-0.04422 -0.02723,-0.213916 -0.02723,-0.377095 0,-0.163177 0.01229,-0.332869 0.02723,-0.377093 0.02444,-0.07215 0.319251,-0.08041 2.871183,-0.08041 h 2.843961 v 0.457502 0.457502 h -2.843961 c -2.551932,0 -2.846753,-0.0083 -2.871183,-0.08041 z m -3.4591989,-1.34859 c -0.158829,-0.101937 -0.874815,-0.929948 -0.874815,-1.01169 0,-0.08612 0.445664,-0.609325 0.519015,-0.609325 0.02486,0 0.144558,0.114375 0.266077,0.254166 0.121511,0.139794 0.240705,0.254169 0.264862,0.254169 0.02416,0 0.433159,-0.438933 0.908887,-0.975405 l 0.86495,-0.975405 0.27958,0.31679 0.27958,0.31679 -1.074621,1.216903 c -1.112344,1.259626 -1.219543,1.350335 -1.433515,1.213007 z m 3.4861349,-0.461633 c -0.07177,-0.08132 -0.07204,-0.762969 -3.42e-4,-0.844215 0.06312,-0.07154 5.535585,-0.08877 5.634399,-0.01775 0.04175,0.03002 0.05432,0.161552 0.04489,0.469432 l -0.0132,0.427732 -2.805806,0.01308 c -2.145024,0.01001 -2.818561,-0.0013 -2.85997,-0.04829 z m -0.02695,-1.900627 c -0.01501,-0.04423 -0.02723,-0.213918 -0.02723,-0.377095 0,-0.163177 0.01229,-0.332869 0.02723,-0.377093 0.02444,-0.07215 0.319251,-0.08041 2.871183,-0.08041 h 2.843961 v 0.457502 0.457502 h -2.843961 c -2.551932,0 -2.846753,-0.0083 -2.871183,-0.08041 z M 4.5225381,53.134302 c -0.0539,-0.04276 -0.118823,-0.162857 -0.144321,-0.266876 -0.06263,-0.255504 -0.06263,-4.596104 0,-4.851609 0.08519,-0.347558 0.07046,-0.344624 1.730389,-0.344624 1.31557,0 1.491261,0.0093 1.515334,0.08041 0.03924,0.115858 0.03226,0.696116 -0.0093,0.77019 -0.02611,0.04652 -0.341076,0.06618 -1.221812,0.07625 l -1.186672,0.01356 v 1.830007 1.830008 h 1.615042 1.615042 l 0.01222,-0.902295 0.01229,-0.902295 h 0.402718 0.402733 v 1.216104 1.216107 l -0.11615,0.156399 -0.116142,0.156403 h -2.20671 c -1.907824,0 -2.219988,-0.01053 -2.304678,-0.07775 z M 10.100971,52.67414 c -0.01501,-0.04422 -0.02723,-0.213916 -0.02723,-0.377093 0,-0.163177 0.01229,-0.332869 0.02723,-0.377093 0.02444,-0.07215 0.319251,-0.08041 2.871183,-0.08041 h 2.843961 v 0.457502 0.457502 h -2.843961 c -2.551932,0 -2.846753,-0.0083 -2.871183,-0.08041 z M 6.6417721,51.325552 c -0.158829,-0.101939 -0.874815,-0.929948 -0.874815,-1.01169 0,-0.08612 0.445664,-0.609327 0.519015,-0.609327 0.02486,0 0.144558,0.114375 0.266077,0.254169 0.121512,0.139791 0.240705,0.254166 0.264862,0.254166 0.02416,0 0.433159,-0.438931 0.908887,-0.975403 l 0.86495,-0.975405 0.27958,0.31679 0.27958,0.31679 -1.074621,1.216903 c -1.112344,1.259625 -1.219543,1.350335 -1.433515,1.213007 z m 3.4861349,-0.461633 c -0.07177,-0.08132 -0.07204,-0.76297 -3.42e-4,-0.844215 0.06312,-0.07154 5.535586,-0.08877 5.634399,-0.01773 0.04175,0.03002 0.05432,0.161551 0.04489,0.469431 l -0.0132,0.427732 -2.805806,0.01308 c -2.145024,0.01001 -2.818561,-0.0013 -2.85997,-0.04829 z m -0.02695,-1.900629 c -0.01501,-0.04422 -0.02723,-0.213916 -0.02723,-0.377093 0,-0.163177 0.01229,-0.332871 0.02723,-0.377095 0.02444,-0.07215 0.319251,-0.08041 2.871183,-0.08041 h 2.843961 v 0.457502 0.457502 H 12.97214 c -2.551932,0 -2.846753,-0.0083 -2.871183,-0.08041 z m 8.54873,16.027257 c 0.120737,-0.104349 0.244552,-0.280088 0.328739,-0.466618 l 0.135057,-0.299226 v -9.128217 -9.128218 l -0.09447,-0.231334 c -0.131217,-0.321347 -0.330017,-0.562553 -0.585524,-0.710433 l -0.217253,-0.125738 -6.370451,-0.01444 c -4.4010189,-0.01 -6.4303749,0.0023 -6.5642939,0.03976 -0.106619,0.02981 -0.273275,0.111015 -0.37035,0.180452 -0.187393,0.134039 -0.458029,0.513111 -0.431282,0.604078 0.01117,0.038 1.841149,0.06237 6.0910809,0.08113 5.520288,0.02437 6.094494,0.03456 6.287318,0.111639 0.490131,0.195916 0.972979,0.647199 1.174188,1.097429 0.26732,0.598181 0.251081,-0.01247 0.251081,9.439916 0,4.757185 0.01347,8.664677 0.02988,8.683316 0.05837,0.06617 0.145005,0.03178 0.336251,-0.133504 z m 1.600345,-1.814853 c 0.211361,-0.173489 0.380475,-0.451164 0.451626,-0.741535 0.03428,-0.140014 0.04887,-2.879469 0.04908,-9.22576 3.36e-4,-10.0662 0.02576,-9.281859 -0.315466,-9.721072 -0.100406,-0.129255 -0.275021,-0.276014 -0.411606,-0.345947 l -0.237215,-0.121459 h -6.415316 c -6.4149449,0 -6.4153219,6e-6 -6.6171879,0.106335 -0.265553,0.139875 -0.455389,0.326158 -0.562902,0.552371 -0.0763,0.160545 -0.07887,0.190007 -0.02018,0.232027 0.0414,0.02965 2.36734,0.04843 6.0593829,0.04891 6.539425,8.46e-4 6.177976,-0.01492 6.664776,0.290809 0.281179,0.176596 0.633007,0.584283 0.79257,0.918401 0.264366,0.55359 0.254271,0.176847 0.255115,9.521687 5.1e-4,4.713332 0.01424,8.584944 0.03072,8.603582 0.04894,0.05547 0.0823,0.04121 0.27669,-0.118348 z"
       id="path1056" />
    <path
       style="fill:#ffffff;stroke-width:0.089953;stroke:#ffffff"
       d="m 7.5911908,27.682605 c -0.820193,-0.223178 -1.327852,-0.784135 -1.388057,-1.533788 -0.06473,-0.806097 0.0042,-0.858746 1.124937,-0.858746 0.763515,0 0.958274,-0.02539 1.003175,-0.130778 0.03063,-0.07193 -0.109974,-0.542533 -0.312481,-1.045789 l -0.368197,-0.91501 -2.273298,-0.04269 c -2.160807,-0.04057 -2.290555,-0.05235 -2.622007,-0.237988 -0.204696,-0.114645 -0.429772,-0.346132 -0.544993,-0.560519 -0.191951,-0.357145 -0.196289,-0.480253 -0.196289,-5.570458 v -5.205237 l 0.213258,-0.380914 c 0.155791,-0.278268 0.327219,-0.432674 0.636163,-0.572997 l 0.422909,-0.192083 h 8.0636752 8.063678 l 0.422909,0.192083 c 0.308945,0.140323 0.480373,0.294729 0.636164,0.572997 l 0.213258,0.380914 v 5.205242 c 0,5.090205 -0.0043,5.213313 -0.196289,5.570458 -0.115221,0.214387 -0.340297,0.445874 -0.544994,0.560519 -0.331452,0.185638 -0.4612,0.197414 -2.622007,0.237988 l -2.273298,0.04269 -0.368197,0.91501 c -0.202507,0.503256 -0.343124,0.973861 -0.31248,1.045789 0.0449,0.105388 0.239659,0.130778 1.003174,0.130778 1.120702,0 1.189673,0.05265 1.124937,0.858746 -0.05204,0.648009 -0.396336,1.105931 -1.053169,1.400745 l -0.481806,0.216253 -3.559403,-0.0073 C 9.4447908,27.75452 7.7297188,27.72034 7.5911908,27.68265 Z M 15.432975,26.72128 c 0.18945,-0.186249 0.324367,-0.40818 0.324367,-0.533565 v -0.21468 H 11.349986 6.9426328 v 0.206875 c 0,0.235186 0.407914,0.711908 0.703135,0.821743 0.108511,0.04037 1.832041,0.06555 3.8300642,0.05596 l 3.632772,-0.01745 z m -2.073578,-1.498965 c 0.140065,-0.08019 0.891063,-1.944007 0.812005,-2.015217 -0.07441,-0.06702 -5.5684172,-0.06702 -5.6428292,0 -0.07906,0.07121 0.67194,1.935024 0.812005,2.015217 0.06258,0.03583 0.9668102,0.06514 2.0094082,0.06514 1.042601,0 1.946836,-0.02931 2.009411,-0.06514 z m 6.126952,-2.844271 c 0.296715,-0.121768 0.465367,-0.408626 0.425478,-0.7237 l -0.03149,-0.24863 H 11.349974 2.8196108 l -0.03149,0.24863 c -0.03837,0.303106 0.12604,0.60016 0.397765,0.71867 0.294046,0.128245 15.9884002,0.133088 16.3004362,0.005 z m 0.418528,-6.289773 0.02454,-4.549109 -0.233477,-0.210295 -0.23348,-0.210296 H 11.349997 3.2375388 l -0.232647,0.209546 -0.232649,0.209546 v 4.514287 c 0,2.482858 0.02866,4.540103 0.06369,4.571655 0.03503,0.03155 3.884358,0.04756 8.5540572,0.03557 l 8.490367,-0.0218 z m -14.4016432,3.41795 c -0.152907,-0.161061 -0.693462,-0.967256 -1.010339,-1.506834 -0.218474,-0.372024 -0.145348,-0.648771 0.171432,-0.648771 0.195164,0 0.384632,0.193885 0.78316,0.801404 0.142074,0.216581 0.297112,0.393783 0.344531,0.393783 0.04742,0 0.414563,-0.497369 0.815874,-1.105263 0.815092,-1.234685 0.936332,-1.361792 1.172026,-1.228756 0.315021,0.17781 0.211618,0.436776 -0.748157,1.873755 -1.121233,1.678711 -1.20747,1.758862 -1.528527,1.420682 z m 7.9627692,0.04269 c -0.232427,-0.168059 -1.230898,-1.765186 -1.197894,-1.916124 0.03974,-0.181722 0.300627,-0.321449 0.482698,-0.25852 0.08087,0.02795 0.304693,0.304751 0.497392,0.615112 0.192696,0.310361 0.398904,0.550409 0.458238,0.533438 0.05933,-0.01697 0.437546,-0.527761 0.840476,-1.135091 0.402927,-0.607329 0.817769,-1.138511 0.921867,-1.180403 0.211331,-0.08504 0.478127,0.05912 0.478127,0.258354 0,0.124771 -1.723268,2.783501 -1.970744,3.040549 -0.170124,0.176703 -0.308766,0.188303 -0.51016,0.04269 z M 7.3407168,19.126327 c -0.145578,-0.131121 -0.145578,-0.346953 0,-0.478075 0.145667,-0.131202 3.3201732,-0.143647 3.5889822,-0.01407 0.23587,0.113699 0.23587,0.392517 0,0.506216 -0.268809,0.129577 -3.4433152,0.117132 -3.5889822,-0.01407 z m 7.9190212,0.01128 c -0.198578,-0.105429 -0.21665,-0.362193 -0.03504,-0.497944 0.09041,-0.06758 0.665482,-0.09059 1.861717,-0.07448 1.528265,0.02058 1.743132,0.0408 1.835419,0.172706 0.07618,0.108882 0.07618,0.189916 0,0.298797 -0.0923,0.131923 -0.302891,0.151714 -1.80037,0.169192 -1.035881,0.01209 -1.760394,-0.01448 -1.861713,-0.06827 z M 8.1757988,17.991984 c -0.158385,-0.171892 -0.05773,-0.370053 0.239695,-0.471906 0.265431,-0.0909 2.0427132,-0.114 2.3863602,-0.03102 0.254304,0.06141 0.369547,0.335629 0.21262,0.505936 -0.168569,0.182949 -2.6697732,0.180297 -2.8386752,-0.003 z m 7.9315052,0.07224 c -0.03609,-0.03251 -0.06562,-0.149692 -0.06562,-0.260413 0,-0.28814 0.318267,-0.367825 1.469118,-0.367825 1.210006,0 1.493409,0.07917 1.451715,0.405551 l -0.02998,0.234727 -1.379804,0.02353 c -0.758893,0.01294 -1.409336,-0.0031 -1.445424,-0.03557 z M 5.5845308,15.447817 c -0.08367,-0.05687 -0.407455,-0.503058 -0.719527,-0.991522 -0.45079,-0.705593 -0.548147,-0.920521 -0.473713,-1.045788 0.05153,-0.08672 0.193953,-0.157672 0.316503,-0.157672 0.175315,0 0.307538,0.128443 0.620198,0.602475 0.319287,0.484073 0.422923,0.583383 0.527347,0.505325 0.07148,-0.05343 0.455992,-0.595668 0.854469,-1.204967 0.664683,-1.016348 0.745292,-1.10565 0.976268,-1.081576 0.474913,0.0495 0.378037,0.330236 -0.644664,1.868127 -0.527577,0.793344 -1.03697,1.479919 -1.131991,1.525723 -0.118535,0.05714 -0.220516,0.05082 -0.32489,-0.02012 z m 7.9665632,0.01311 c -0.237909,-0.11992 -1.312048,-1.793445 -1.280263,-1.994663 0.01809,-0.11445 0.111847,-0.179555 0.28441,-0.197475 0.226968,-0.02357 0.308978,0.04569 0.692958,0.585263 0.239541,0.336598 0.464908,0.585897 0.50082,0.553998 0.03591,-0.0319 0.406642,-0.564184 0.823845,-1.182856 0.632613,-0.938108 0.796124,-1.124858 0.984879,-1.124858 0.124482,0 0.270575,0.06318 0.324654,0.140397 0.07805,0.111456 -0.10542,0.451872 -0.890099,1.651457 -0.543629,0.831084 -1.053499,1.542587 -1.13304,1.581117 -0.07954,0.03853 -0.218216,0.03296 -0.308164,-0.01238 z M 7.2383488,14.894011 c -0.05714,-0.09617 -0.05664,-0.205421 0.0014,-0.298797 0.08153,-0.131216 0.285166,-0.147194 1.875995,-0.147194 1.9072842,0 2.0866432,0.03886 1.9513642,0.422756 -0.0593,0.168287 -0.130489,0.174838 -1.9001292,0.174838 -1.664157,0 -1.847069,-0.01438 -1.928606,-0.151603 z m 7.9020952,-0.02145 c -0.138818,-0.393953 0.0367,-0.42984 1.980803,-0.404998 l 1.811285,0.02314 v 0.256111 0.256112 l -1.864923,0.02313 c -1.813595,0.02249 -1.866638,0.01827 -1.927165,-0.153494 z M 8.2289558,13.887015 c -0.178094,-0.160412 -0.189675,-0.307232 -0.03521,-0.446365 0.158213,-0.142504 2.6473272,-0.142504 2.8055432,0 0.170783,0.153826 0.137023,0.392545 -0.0696,0.492145 -0.100831,0.04861 -0.716235,0.08837 -1.3675662,0.08837 -0.950199,0 -1.213667,-0.02651 -1.333176,-0.134154 z m 7.9264702,0.03171 c -0.06256,-0.05634 -0.113739,-0.163911 -0.113739,-0.239037 0,-0.292724 0.2046,-0.341482 1.432933,-0.341482 0.662999,0 1.272922,0.02332 1.355379,0.05182 0.176694,0.06107 0.198686,0.382338 0.03619,0.528701 -0.157911,0.142232 -2.552847,0.142232 -2.710758,0 z"
       id="path1054" />
    <path
       style="fill:#ffffff;stroke:#ffffff;stroke-width:0.265;stroke-linecap:butt;stroke-linejoin:miter;stroke-miterlimit:4;stroke-dasharray:0.795, 0.26500000000000001;stroke-dashoffset:0;stroke-opacity:1"
       d="m 11.358955,30.268275 v 9.15398"
       id="path1060" />
    <path
       style="fill:#ffffff;stroke:#ffffff;stroke-width:0.264583px;stroke-linecap:butt;stroke-linejoin:miter;stroke-opacity:1"
       d="M 2.2717909,5.0113035 H 52.384828"
       id="path1062" />
    <path
       style="fill:#ffffff;stroke:#ffffff;stroke-width:0.264583px;stroke-linecap:butt;stroke-linejoin:miter;stroke-opacity:1"
       d="m 48.910322,2.6726951 3.474506,2.3386084"
       id="path1064" />
    <path
       style="fill:#ffffff;stroke:#ffffff;stroke-width:0.261699px;stroke-linecap:butt;stroke-linejoin:miter;stroke-opacity:1"
       d="M 48.858983,7.4829045 52.386054,5.2291021"
       id="path1064-3" />
    <text
       xml:space="preserve"
       style="font-size:4.9389px;line-height:1.25;font-family:'Franklin Gothic Medium';-inkscape-font-specification:'Franklin Gothic Medium, ';stroke-width:0.264583;fill:#ffffff;stroke:#ffffff;"
       x="24.221708"
       y="15.303482"
       id="text1098"><tspan
         sodipodi:role="line"
         id="tspan1096"
         x="24.221708"
         y="15.303482"
         style="stroke-width:0.264583;fill:#ffffff;stroke:#ffffff;">Final Design</tspan><tspan
         sodipodi:role="line"
         x="24.221708"
         y="21.477108"
         style="stroke-width:0.264583;fill:#ffffff;stroke:#ffffff;"
         id="tspan1128">Finalowy</tspan><tspan
         sodipodi:role="line"
         x="24.221708"
         y="27.650734"
         style="stroke-width:0.264583;fill:#ffffff;stroke:#ffffff;"
         id="tspan1130">projekt</tspan><tspan
         sodipodi:role="line"
         x="24.221708"
         y="33.824356"
         style="stroke-width:0.264583;fill:#ffffff;stroke:#ffffff;"
         id="tspan1112" /></text>
    <text
       xml:space="preserve"
       style="font-size:4.9389px;line-height:1.25;font-family:'Franklin Gothic Medium';-inkscape-font-specification:'Franklin Gothic Medium, ';stroke-width:0.264583;fill:#ffffff;stroke:#ffffff;"
       x="22.082739"
       y="56.57777"
       id="text1102"><tspan
         sodipodi:role="line"
         id="tspan1100"
         x="22.082739"
         y="56.57777"
         style="stroke-width:0.264583;fill:#ffffff;stroke:#ffffff;">Documentation</tspan><tspan
         sodipodi:role="line"
         x="22.082739"
         y="62.751396"
         style="stroke-width:0.264583;fill:#ffffff;stroke:#ffffff;"
         id="tspan1132">Dokumentacja</tspan><tspan
         sodipodi:role="line"
         x="22.082739"
         y="68.925018"
         style="stroke-width:0.264583;fill:#ffffff;stroke:#ffffff;"
         id="tspan1104" /></text>
  </g>
</svg>
