<?xml version="1.0" encoding="UTF-8" standalone="no"?>
<svg
   xmlns:dc="http://purl.org/dc/elements/1.1/"
   xmlns:cc="http://creativecommons.org/ns#"
   xmlns:rdf="http://www.w3.org/1999/02/22-rdf-syntax-ns#"
   xmlns:svg="http://www.w3.org/2000/svg"
   xmlns="http://www.w3.org/2000/svg"
   xmlns:sodipodi="http://sodipodi.sourceforge.net/DTD/sodipodi-0.dtd"
   xmlns:inkscape="http://www.inkscape.org/namespaces/inkscape"
   width="55mm"
   height="90mm"
   viewBox="0 0 55 90"
   version="1.1"
   id="svg8"
   inkscape:version="1.0.1 (3bc2e813f5, 2020-09-07)"
   sodipodi:docname="services1.svg">
  <defs
     id="defs2" />
  <sodipodi:namedview
     id="base"
     pagecolor="#ffffff"
     bordercolor="#666666"
     borderopacity="1.0"
     inkscape:pageopacity="0.0"
     inkscape:pageshadow="2"
     inkscape:zoom="2.8"
     inkscape:cx="220.31749"
     inkscape:cy="171.16856"
     inkscape:document-units="mm"
     inkscape:current-layer="layer1"
     inkscape:document-rotation="0"
     showgrid="false"
     inkscape:window-width="3840"
     inkscape:window-height="2066"
     inkscape:window-x="-11"
     inkscape:window-y="-11"
     inkscape:window-maximized="1" />
  <metadata
     id="metadata5">
    <rdf:RDF>
      <cc:Work
         rdf:about="">
        <dc:format>image/svg+xml</dc:format>
        <dc:type
           rdf:resource="http://purl.org/dc/dcmitype/StillImage" />
        <dc:title />
      </cc:Work>
    </rdf:RDF>
  </metadata>
  <g
     inkscape:label="Layer 1"
     inkscape:groupmode="layer"
     id="layer1">
    <ellipse
       style="opacity:0;fill:none;fill-opacity:1;stroke:#000000;stroke-width:0.765;stroke-miterlimit:4;stroke-dasharray:none"
       id="path889"
       cx="52.184376"
       cy="94.346146"
       rx="35.48003"
       ry="17.907059" />
    <path
       style="fill:#ffffff;stroke-width:0.0507717;stroke:#ffffff"
       d="m 2.8949269,56.86767 c -0.018918,-0.01879 -0.034373,-0.634551 -0.034373,-1.368362 0,-1.498616 0.00864,-1.544587 0.3469656,-1.84787 0.3999052,-0.358477 1.0945253,-0.63462 1.956519,-0.777806 0.4393367,-0.07298 0.5904794,-0.07759 0.9557683,-0.02918 1.0900893,0.144471 1.9753458,0.531032 2.2932171,1.001373 l 0.1273522,0.188435 v 1.42071 1.420711 l -2.8055228,0.01308 c -1.54304,0.0072 -2.8209988,-0.0023 -2.8399126,-0.02108 z m 11.2068221,0 c -0.05796,-0.05758 -0.03986,-2.678278 0.01958,-2.83518 0.08686,-0.229275 0.40398,-0.517863 0.773857,-0.704248 0.349,-0.175865 1.213082,-0.449195 1.314197,-0.415712 0.03042,0.01008 0.186651,0.245517 0.34718,0.523211 0.16053,0.277694 0.324191,0.504898 0.363692,0.504898 0.0395,0 0.206398,-0.233412 0.370881,-0.518693 0.20604,-0.357352 0.32774,-0.518693 0.391257,-0.518693 0.149908,0 0.959427,0.245917 1.189752,0.361423 0.390505,0.195838 0.685815,0.444473 0.795676,0.669919 0.101144,0.207559 0.105832,0.287259 0.09294,1.579836 l -0.01357,1.361249 -2.805523,0.01308 c -1.543039,0.0072 -2.820997,-0.0023 -2.83991,-0.02108 z M 5.2921385,52.395932 C 4.7693902,52.26493 4.2783058,51.8595 4.0514933,51.371683 3.9234452,51.096275 3.9050782,50.998351 3.9069079,50.600764 c 0.00182,-0.391859 0.021833,-0.495973 0.1434956,-0.745804 0.3822708,-0.784996 1.2667541,-1.203677 2.1155203,-1.001404 0.8268052,0.19704 1.4374923,1.044917 1.3684017,1.899904 -0.072605,0.898572 -0.8051868,1.616306 -1.7044651,1.66992 -0.1902461,0.01134 -0.4322217,-0.001 -0.5377219,-0.02745 z m 11.2068195,0 C 15.97621,52.26493 15.485125,51.8595 15.258315,51.371683 c -0.128051,-0.275408 -0.146416,-0.373332 -0.144588,-0.770919 0.0018,-0.391859 0.02183,-0.495973 0.143497,-0.745804 0.382269,-0.784996 1.266755,-1.203677 2.115522,-1.001404 0.826804,0.19704 1.437489,1.044917 1.368401,1.899904 -0.0726,0.898572 -0.805187,1.616306 -1.704465,1.66992 -0.190249,0.01134 -0.432223,-0.001 -0.537724,-0.02745 z M 7.9430774,48.639852 7.9290807,47.817534 7.5890659,47.788492 C 7.3229787,47.765761 7.2082748,47.728553 7.0615244,47.617357 6.7299333,47.366109 6.7266893,47.342401 6.7429167,45.288296 c 0.01396,-1.768363 0.018662,-1.846241 0.1195699,-1.980419 0.057762,-0.07682 0.1683288,-0.186621 0.2457008,-0.244006 0.1380025,-0.102355 0.1927136,-0.104335 2.8839657,-0.104335 2.6912519,0 2.7459629,0.002 2.8839679,0.104335 0.07737,0.05739 0.187936,0.167187 0.245701,0.244006 0.100897,0.134178 0.1056,0.212056 0.119568,1.980419 0.01625,2.058104 0.01359,2.077304 -0.323468,2.332804 l -0.192385,0.145832 -1.774725,0.01452 -1.7747291,0.01452 -0.5605689,0.833098 c -0.3083176,0.458205 -0.5825954,0.833099 -0.6095063,0.833099 -0.028686,0 -0.054724,-0.339969 -0.062933,-0.822318 z m 2.2273666,-2.264536 c 0,-0.168681 -0.0085,-0.177115 -0.1782909,-0.177115 -0.147778,0 -0.181159,0.02012 -0.195053,0.11754 -0.02883,0.20226 0.02668,0.269877 0.2074389,0.252572 0.1526,-0.01461 0.165905,-0.03008 0.165905,-0.192997 z m 0.03204,-0.756024 c 0.02872,-0.08183 0.132625,-0.20971 0.230916,-0.284185 0.264039,-0.200062 0.373384,-0.409156 0.373607,-0.714403 1.53e-4,-0.210829 -0.02661,-0.293437 -0.137515,-0.424366 -0.236442,-0.279143 -0.609622,-0.367937 -1.0433784,-0.24826 -0.2203348,0.06079 -0.460882,0.320206 -0.4388844,0.473305 0.012069,0.08402 0.057031,0.110289 0.2102131,0.122813 0.1558301,0.01274 0.2191109,-0.01006 0.3159438,-0.113859 0.235979,-0.252945 0.5844099,-0.115616 0.5844099,0.230336 0,0.173684 -0.0363,0.240732 -0.254697,0.470109 -0.1886779,0.198181 -0.2547029,0.306711 -0.2547029,0.418671 0,0.187946 0.03014,0.218613 0.2148999,0.218613 0.116847,0 0.157685,-0.0305 0.199188,-0.148774 z m 5.037739,1.795248 -0.560591,-0.833131 -0.497159,-0.01449 -0.49716,-0.01449 -0.02547,-1.56873 c -0.02411,-1.484901 -0.03135,-1.579545 -0.13542,-1.771146 -0.128654,-0.236851 -0.328203,-0.431487 -0.57774,-0.563519 -0.1543,-0.08164 -0.335955,-0.09774 -1.349911,-0.119637 l -1.171624,-0.0253 0.01112,-0.150243 c 0.01265,-0.17113 0.134773,-0.352547 0.339566,-0.504485 0.137259,-0.101832 0.204662,-0.10467 2.809785,-0.11829 2.969519,-0.01552 2.898192,-0.02276 3.162119,0.32085 l 0.1468,0.191123 0.01455,1.839611 c 0.01293,1.635698 0.0051,1.859428 -0.07085,2.018384 -0.118021,0.247067 -0.373899,0.426843 -0.666665,0.468388 l -0.244907,0.03475 -0.014,0.821742 c -0.0082,0.481979 -0.03423,0.821742 -0.06293,0.821742 -0.02692,0 -0.301201,-0.37491 -0.609528,-0.833132 z"
       id="path1028" />
    <path
       style="fill:#ffffff;stroke-width:0.0928577;stroke:#ffffff"
       d="M 8.6996925,89.072134 C 6.7520496,88.657588 5.2743691,87.859738 3.939654,86.502022 1.6356871,84.158366 0.75111924,80.802665 1.5971179,77.615354 2.0751735,75.814259 2.5959945,75.10816 3.1933564,75.451257 c 0.212632,0.122127 0.2457415,0.199724 0.2384484,0.558831 -0.00466,0.229357 -0.1180816,0.674978 -0.2520473,0.990268 -0.4402237,1.03606 -0.5600624,1.672201 -0.5624252,2.985595 -0.00281,1.476167 0.1453934,2.136158 0.7773157,3.465202 0.9752736,2.051168 2.6051023,3.442708 4.8376965,4.130401 0.713797,0.219867 0.99039,0.254655 2.0669835,0.259986 1.316176,0.0065 1.874672,-0.09571 2.960699,-0.541932 3.317103,-1.362922 5.34313,-5.024379 4.736582,-8.560005 -0.531136,-3.096044 -2.582791,-5.443274 -5.551413,-6.351191 -0.693363,-0.212054 -0.991016,-0.249278 -2.053798,-0.256828 -1.3648575,-0.0097 -2.0842235,0.140586 -3.3254032,0.694729 -0.3674386,0.16405 -0.6868503,0.251307 -0.7870735,0.215018 -0.5250138,-0.190091 -0.6550926,-0.729656 -0.26465,-1.09774 0.2688682,-0.253473 1.1931605,-0.634027 2.2135322,-0.911368 1.079891,-0.293518 3.0859515,-0.296692 4.2295885,-0.0067 3.317222,0.841166 5.865065,3.445761 6.703892,6.853212 0.2792,1.134152 0.277077,3.08609 -0.0046,4.240121 -0.832838,3.412024 -3.357551,5.983654 -6.693748,6.818133 -0.992213,0.248182 -2.9087855,0.317007 -3.7632295,0.135142 z m 0.608761,-2.581371 c -3.768348,-0.686811 -6.180311,-4.454947 -5.2205495,-8.155909 0.2276716,-0.87794 0.6290094,-1.201197 1.1008717,-0.886697 0.3180259,0.211967 0.3621452,0.501258 0.1742432,1.142485 -0.2159347,0.736887 -0.2151723,2.055039 0.0017,2.80012 0.7523216,2.585626 3.1976416,4.198194 5.7644911,3.801403 2.14804,-0.332054 3.967552,-2.154772 4.329405,-4.337038 0.457435,-2.758709 -1.366072,-5.435758 -4.100425,-6.019734 -0.823036,-0.175774 -1.227367,-0.17335 -2.0254915,0.01214 -1.151926,0.267724 -1.19425,0.267228 -1.4136739,-0.01653 -0.2554232,-0.330312 -0.2496705,-0.560236 0.020913,-0.835467 0.4323319,-0.439781 1.9752299,-0.695263 3.1710774,-0.52509 2.726636,0.388009 4.797296,2.226882 5.50469,4.888502 0.214317,0.806382 0.213968,2.445678 -6.98e-4,3.265942 -0.598242,2.286003 -2.41923,4.144412 -4.627288,4.722377 -0.716079,0.187437 -2.0469535,0.258715 -2.6791755,0.143488 z m 0.363524,-2.626526 c -1.138063,-0.198842 -2.2834953,-1.058018 -2.776705,-2.082776 -0.603375,-1.253659 -0.5101114,-2.123298 0.2277166,-2.123298 0.3642195,0 0.56286,0.214908 0.6492372,0.702407 0.2335492,1.318078 1.3222142,2.244065 2.6191717,2.227792 0.721309,-0.009 1.166972,-0.189655 1.69904,-0.688548 1.576602,-1.478301 0.772353,-4.124116 -1.376803,-4.529402 -0.479998,-0.09052 -0.690511,-0.292445 -0.690511,-0.662349 0,-0.614328 0.580585,-0.787575 1.534863,-0.45801 1.028685,0.355268 1.795596,1.060195 2.276501,2.092518 0.265649,0.570242 0.285655,0.685341 0.285655,1.64338 0,0.958044 -0.02,1.073143 -0.285655,1.643385 -0.157106,0.33725 -0.426406,0.776404 -0.59844,0.975894 -0.828986,0.961291 -2.297985,1.480216 -3.5640705,1.259007 z M 7.3985973,77.874448 C 5.9304409,76.378311 4.6039514,75.074293 4.4508361,74.976633 4.2977208,74.878973 3.9135484,74.756659 3.5971162,74.704821 3.2806832,74.65298 2.9087912,74.528354 2.770691,74.42787 2.4417802,74.188552 1.2766834,72.957476 1.2766834,72.849257 c 0,-0.216345 0.2618599,-0.308798 0.8746436,-0.308798 0.3856617,0 0.6989799,-0.04608 0.7641627,-0.112384 0.065181,-0.0663 0.110481,-0.385023 0.110481,-0.777329 0,-0.62487 0.090845,-0.889712 0.3051902,-0.889712 0.133249,0 1.5395083,1.424307 1.6829323,1.704533 0.071193,0.139095 0.1296684,0.370887 0.1299501,0.515098 0.00141,0.783581 0.080208,0.885075 3.0017702,3.872493 2.4739895,2.52976 2.7979915,2.894998 2.7979915,3.154134 0,0.374736 -0.210935,0.587414 -0.582597,0.587414 -0.261609,0 -0.5811745,-0.293425 -2.9626107,-2.720258 z"
       id="path1030" />
    <path
       style="fill:#ffffff;stroke-width:0.0401193;stroke:#ffffff"
       d="M 5.5572506,28.58356 C 5.464247,28.514339 5.4573364,28.479308 5.4376385,27.977251 l -0.020907,-0.532845 -0.9131644,-0.01925 c -0.8974288,-0.01892 -0.9145397,-0.02081 -0.9930075,-0.110129 -0.078059,-0.08885 -0.079843,-0.286071 -0.079843,-8.82691 V 9.7520848 l 0.1026263,-0.094488 0.102628,-0.094489 h 6.8189695 6.818969 l 0.102626,0.094489 0.102627,0.094488 v 1.068996 1.068992 l 1.00346,0.926718 1.00346,0.926721 v 7.362268 7.362265 l -0.102627,0.09449 -0.102625,0.09449 h -6.812436 c -6.6410619,0 -6.8149192,-0.0017 -6.9111436,-0.07347 z M 18.796206,21.11185 v -6.909995 h -0.313583 -0.31358 l -0.02091,1.61063 -0.02091,1.61063 -0.09871,0.07356 c -0.09605,0.07158 -0.246114,0.07356 -5.573195,0.07356 H 6.9808368 l -0.1026257,-0.0945 -0.102627,-0.09449 v -2.576691 c 0,-2.479579 0.00299,-2.58013 0.079921,-2.667585 l 0.079921,-0.09088 4.4251969,-0.01925 4.425199,-0.01925 V 11.718872 11.430155 H 10.956669 6.1275161 l -0.010717,8.257348 c -0.0059,4.541541 -0.00172,8.279056 0.0092,8.305591 0.015864,0.03843 1.3069291,0.04626 6.3450644,0.0385 l 6.325151,-0.0098 z M 8.1807891,26.690149 C 7.5268094,26.48306 7.0541629,26.01316 6.8797642,25.396689 c -0.1755691,-0.620615 0.04439,-1.303203 0.568172,-1.763198 0.6879787,-0.60419 1.7163216,-0.66829 2.5322031,-0.157842 l 0.1596307,0.09987 0.357014,-0.327184 c 0.196357,-0.179952 0.370699,-0.327185 0.387424,-0.327185 0.04805,0 0.364868,0.274066 0.413464,0.357671 0.03819,0.0657 -0.007,0.122704 -0.345357,0.435522 l -0.389301,0.35993 0.09575,0.241474 c 0.389732,0.982926 -0.163584,2.041304 -1.2420599,2.37581 -0.3458563,0.107269 -0.8946782,0.106651 -1.23591,-0.0015 z M 9.3354814,26.068345 C 9.8128562,25.867124 10.096991,25.45933 10.09862,24.973076 10.10021,24.522733 10.074178,24.52741 9.4583269,25.088452 8.772848,25.712928 8.7937407,25.710195 8.2753926,25.24318 8.0713894,25.059381 7.904479,24.894861 7.904479,24.877581 c 0,-0.04675 0.293867,-0.337485 0.3880184,-0.383878 0.069071,-0.03404 0.1132045,-0.01161 0.2864914,0.145534 l 0.2048439,0.185765 0.4248678,-0.391181 c 0.4786257,-0.440677 0.4784676,-0.439785 0.1055771,-0.592979 -0.3186801,-0.130924 -0.7625449,-0.12719 -1.0789292,0.0091 -0.5918481,0.254907 -0.9094429,0.870004 -0.7347993,1.423122 0.2357313,0.746593 1.0811736,1.113031 1.8349323,0.795308 z m 2.1404576,0.073 c -0.01201,-0.02882 -0.01617,-0.163182 -0.0093,-0.298574 l 0.01261,-0.246169 h 3.323963 3.323961 v 0.288719 0.288718 l -3.314724,0.0099 c -2.765109,0.0082 -3.318348,0.0012 -3.336567,-0.04255 z m 0,-1.231865 c -0.01201,-0.02882 -0.01617,-0.163182 -0.0093,-0.298574 l 0.01261,-0.246168 h 3.323963 3.323961 v 0.288718 0.288719 l -3.314724,0.0099 c -2.765109,0.0082 -3.318348,0.0012 -3.336567,-0.04255 z M 8.1807891,21.762689 c -0.6539797,-0.20709 -1.1266262,-0.67699 -1.3010249,-1.293461 -0.1755691,-0.620616 0.04439,-1.303204 0.568172,-1.763196 0.6879787,-0.604192 1.7163216,-0.668293 2.5322031,-0.157844 l 0.1596307,0.09987 0.357014,-0.327185 c 0.196357,-0.179951 0.370699,-0.327185 0.387424,-0.327185 0.04805,0 0.364868,0.274067 0.413464,0.357671 0.03819,0.0657 -0.007,0.122704 -0.345357,0.435523 l -0.389301,0.359929 0.09575,0.241474 c 0.389732,0.982927 -0.163584,2.041305 -1.2420599,2.375812 -0.3458563,0.107269 -0.8946782,0.106651 -1.23591,-0.0014 z M 9.3354814,21.140884 C 9.8128562,20.939663 10.096991,20.531868 10.09862,20.045615 10.10021,19.595272 10.074178,19.599948 9.4583269,20.160991 8.772848,20.785467 8.7937407,20.782733 8.2753926,20.315718 8.0713894,20.131919 7.904479,19.9674 7.904479,19.95012 c 0,-0.04676 0.293867,-0.337484 0.3880184,-0.383878 0.069071,-0.03403 0.1132045,-0.01161 0.2864914,0.145534 l 0.2048439,0.185765 0.4248678,-0.391182 c 0.4786257,-0.440676 0.4784676,-0.439785 0.1055771,-0.592978 -0.3186801,-0.130924 -0.7625449,-0.127191 -1.0789292,0.0091 -0.5918481,0.254906 -0.9094429,0.870003 -0.7347993,1.423121 0.2357313,0.746594 1.0811736,1.113032 1.8349323,0.795308 z m 2.1404576,0.073 c -0.01201,-0.02882 -0.01617,-0.163183 -0.0093,-0.298574 l 0.01261,-0.246168 h 3.323963 3.323961 v 0.288718 0.288718 l -3.314724,0.0099 c -2.765109,0.0082 -3.318348,0.0012 -3.336567,-0.04256 z m 0,-1.231866 c -0.01201,-0.02882 -0.01617,-0.163182 -0.0093,-0.298573 l 0.01261,-0.246169 h 3.323963 3.323961 v 0.288718 0.288719 l -3.314724,0.0099 c -2.765109,0.0082 -3.318348,0.0012 -3.336567,-0.04255 z m -6.0383005,-1.115951 0.020907,-7.923913 0.098707,-0.07359 c 0.096026,-0.07159 0.2428261,-0.07359 5.4071545,-0.07359 h 5.308452 l 0.246933,0.216861 c 0.178483,0.156745 0.253346,0.201477 0.270063,0.161366 0.01272,-0.03052 0.0178,-0.262362 0.01129,-0.515203 l -0.01186,-0.459708 H 10.454942 4.1205984 l -0.010716,8.257348 c -0.0059,4.541541 -0.0016,8.279453 0.00956,8.306473 0.015505,0.03753 0.1709371,0.04662 0.6587879,0.03849 l 0.6385078,-0.01062 z M 17.458258,15.568456 v -1.366601 l -0.740781,-0.01925 c -0.637204,-0.01656 -0.751202,-0.02884 -0.815311,-0.08787 -0.06411,-0.05903 -0.07745,-0.163986 -0.09544,-0.750668 l -0.02091,-0.682047 H 11.625643 7.4654633 l -0.010854,2.098021 c -0.00597,1.153914 -0.00182,2.119746 0.0092,2.146299 0.015969,0.03841 1.0395899,0.04628 5.0072617,0.03849 l 4.987191,-0.0098 z m -9.327209,0.717921 c -0.01201,-0.0288 -0.016152,-0.16313 -0.00922,-0.298522 l 0.012612,-0.246169 h 4.3274223 4.327424 v 0.288719 0.288718 l -4.318207,0.0098 c -3.6095298,0.0082 -4.3217895,0.0012 -4.3400288,-0.04255 z m 0,-1.231867 C 8.119039,15.025716 8.114898,14.89138 8.121839,14.755989 L 8.134451,14.50982 h 4.327422 4.327424 v 0.288719 0.288718 l -4.318206,0.0098 c -3.6095309,0.0082 -4.3217902,0.0012 -4.3400296,-0.04255 z m 1.77e-5,-1.231824 c -0.01201,-0.02882 -0.016162,-0.163171 -0.00923,-0.298563 l 0.012612,-0.246168 h 3.4912043 3.491206 v 0.288718 0.288719 l -3.481971,0.0099 c -2.905849,0.0082 -3.4855879,0.0011 -3.5038116,-0.04255 z M 18.247255,13.539575 c 0.03726,-0.03431 -1.691457,-1.630758 -1.737497,-1.60456 -0.04056,0.02308 -0.04651,1.568865 -0.0062,1.605994 0.03739,0.03443 1.706219,0.03306 1.743677,-0.0014 z"
       id="path1026" />
    <path
       style="fill:#ffffff;stroke:#ffffff;stroke-width:0.265;stroke-linecap:butt;stroke-linejoin:miter;stroke-miterlimit:4;stroke-dasharray:0.795, 0.26500000000000001;stroke-dashoffset:0;stroke-opacity:1"
       d="m 11.358955,30.268275 v 9.15398"
       id="path1060" />
    <path
       style="fill:#ffffff;stroke:#ffffff;stroke-width:0.264583px;stroke-linecap:butt;stroke-linejoin:miter;stroke-opacity:1"
       d="M 2.2717909,5.0113035 H 52.384828"
       id="path1062" />
    <path
       style="fill:#ffffff;stroke:#ffffff;stroke-width:0.264583px;stroke-linecap:butt;stroke-linejoin:miter;stroke-opacity:1"
       d="m 48.910322,2.6726951 3.474506,2.3386084"
       id="path1064" />
    <path
       style="fill:#ffffff;stroke:#ffffff;stroke-width:0.261699px;stroke-linecap:butt;stroke-linejoin:miter;stroke-opacity:1"
       d="M 48.858983,7.4829045 52.386054,5.2291021"
       id="path1064-3" />
    <path
       style="fill:#ffffff;stroke:#ffffff;stroke-width:0.264999;stroke-linecap:butt;stroke-linejoin:miter;stroke-miterlimit:4;stroke-dasharray:0.794999, 0.26499899999999998;stroke-dashoffset:0;stroke-opacity:1"
       d="m 11.49259,60.169053 v 9.153981"
       id="path1060-3" />
    <text
       xml:space="preserve"
       style="font-size:4.9389px;line-height:1.25;font-family:'Franklin Gothic Medium';-inkscape-font-specification:'Franklin Gothic Medium, ';stroke-width:0.264583;fill:#ffffff;stroke:#ffffff;"
       x="23.786987"
       y="27.395124"
       id="text1098"><tspan
         sodipodi:role="line"
         id="tspan1096"
         x="23.786987"
         y="27.395124"
         style="stroke-width:0.264583;fill:#ffffff;stroke:#ffffff;">Brief</tspan></text>
    <text
       xml:space="preserve"
       style="font-size:4.9389px;line-height:1.25;font-family:'Franklin Gothic Medium';-inkscape-font-specification:'Franklin Gothic Medium, ';stroke-width:0.264583;fill:#ffffff;stroke:#ffffff;"
       x="23.452902"
       y="50.24667"
       id="text1102"><tspan
         sodipodi:role="line"
         id="tspan1100"
         x="23.452902"
         y="50.24667"
         style="stroke-width:0.264583;fill:#ffffff;stroke:#ffffff;">Consultations</tspan><tspan
         sodipodi:role="line"
         x="23.452902"
         y="56.420296"
         style="stroke-width:0.264583;fill:#ffffff;stroke:#ffffff;"
         id="tspan1104">Konsultacje</tspan></text>
    <text
       xml:space="preserve"
       style="font-size:4.9389px;line-height:1.25;font-family:'Franklin Gothic Medium';-inkscape-font-specification:'Franklin Gothic Medium, ';stroke-width:0.264583;fill:#ffffff;stroke:#ffffff;"
       x="23.653351"
       y="78.844513"
       id="text1108"><tspan
         sodipodi:role="line"
         id="tspan1106"
         x="23.653351"
         y="78.844513"
         style="stroke-width:0.264583;fill:#ffffff;stroke:#ffffff;">Targets</tspan><tspan
         sodipodi:role="line"
         x="23.653351"
         y="85.018135"
         style="stroke-width:0.264583;fill:#ffffff;stroke:#ffffff;"
         id="tspan1110">Cele</tspan></text>
  </g>
</svg>
