<?xml version="1.0" encoding="UTF-8" standalone="no"?>
<svg
   xmlns:dc="http://purl.org/dc/elements/1.1/"
   xmlns:cc="http://creativecommons.org/ns#"
   xmlns:rdf="http://www.w3.org/1999/02/22-rdf-syntax-ns#"
   xmlns:svg="http://www.w3.org/2000/svg"
   xmlns="http://www.w3.org/2000/svg"
   xmlns:sodipodi="http://sodipodi.sourceforge.net/DTD/sodipodi-0.dtd"
   xmlns:inkscape="http://www.inkscape.org/namespaces/inkscape"
   width="55mm"
   height="90mm"
   viewBox="0 0 55 90"
   version="1.1"
   id="svg8"
   inkscape:version="1.0.1 (3bc2e813f5, 2020-09-07)"
   sodipodi:docname="services3.svg">
  <defs
     id="defs2" />
  <sodipodi:namedview
     id="base"
     pagecolor="#ffffff"
     bordercolor="#666666"
     borderopacity="1.0"
     inkscape:pageopacity="0.0"
     inkscape:pageshadow="2"
     inkscape:zoom="3.959798"
     inkscape:cx="52.100886"
     inkscape:cy="149.09339"
     inkscape:document-units="mm"
     inkscape:current-layer="layer1"
     inkscape:document-rotation="0"
     showgrid="false"
     inkscape:window-width="3840"
     inkscape:window-height="2066"
     inkscape:window-x="-11"
     inkscape:window-y="-11"
     inkscape:window-maximized="1" />
  <metadata
     id="metadata5">
    <rdf:RDF>
      <cc:Work
         rdf:about="">
        <dc:format>image/svg+xml</dc:format>
        <dc:type
           rdf:resource="http://purl.org/dc/dcmitype/StillImage" />
        <dc:title />
      </cc:Work>
    </rdf:RDF>
  </metadata>
  <g
     inkscape:label="Layer 1"
     inkscape:groupmode="layer"
     id="layer1">
    <ellipse
       style="opacity:0;fill:none;fill-opacity:1;stroke:#000000;stroke-width:0.765;stroke-miterlimit:4;stroke-dasharray:none"
       id="path889"
       cx="52.184376"
       cy="94.346146"
       rx="35.48003"
       ry="17.907059" />
    <path
       style="fill:#ffffff;stroke-width:0.0373286;stroke:#ffffff"
       d="m 6.992305,63.241093 c -0.130788,-0.15667 -0.138167,-0.39437 -0.01746,-0.56263 l 0.08223,-0.11463 0.608421,-0.0204 0.608422,-0.0204 0.02149,-0.28789 c 0.03705,-0.49642 0.269407,-0.89371 0.639413,-1.09331 0.133125,-0.0718 0.243939,-0.0877 0.712239,-0.10234 0.53231,-0.0166 0.555261,-0.0208 0.571382,-0.10441 0.0092,-0.0479 0.09349,-0.47019 0.187229,-0.93839 0.09374,-0.4682 0.17043,-0.87666 0.17043,-0.90768 0,-0.0474 -0.446965,-0.0583 -2.805249,-0.068 l -2.805251,-0.0116 -0.192788,-0.0934 c -0.373954,-0.18111 -0.669478,-0.53511 -0.820671,-0.98306 l -0.07795,-0.23094 -0.01,-5.43375 c -0.0069,-3.76492 0.0014,-5.51532 0.02701,-5.69932 0.07554,-0.54273 0.355555,-0.99646 0.769013,-1.24608 l 0.203009,-0.12257 4.791947,-0.0204 c 2.635572,-0.0112 4.809721,-0.0343 4.831442,-0.0511 0.02172,-0.0169 0.302602,-0.49887 0.624179,-1.07105 0.342695,-0.609754 0.643431,-1.100555 0.726628,-1.185861 0.572696,-0.587207 1.425218,-0.563682 1.978653,0.0546 0.277514,0.310032 0.412553,0.619242 0.466713,1.068661 0.03338,0.27697 -0.01142,0.68615 -0.101976,0.93136 -0.03744,0.1014 -0.05944,0.19472 -0.04887,0.20737 0.01057,0.0127 0.138442,0.0353 0.284169,0.0503 0.643697,0.0663 1.13115,0.62421 1.232362,1.41058 0.02445,0.18995 0.03303,2.03081 0.02653,5.69403 l -0.0096,5.41332 -0.07794,0.23094 c -0.151194,0.44795 -0.446718,0.80195 -0.820672,0.98306 l -0.192788,0.0934 -2.805251,0.0116 c -2.358285,0.01 -2.80525,0.0206 -2.80525,0.068 0,0.031 0.07669,0.43948 0.170431,0.90768 0.09374,0.4682 0.17799,0.89047 0.187228,0.93839 0.01612,0.0836 0.03907,0.0878 0.571382,0.10441 0.468301,0.0146 0.579115,0.0305 0.71224,0.10234 0.370006,0.1996 0.60236,0.59689 0.639413,1.09331 l 0.02149,0.28789 0.608423,0.0204 0.608421,0.0204 0.08223,0.11463 c 0.120704,0.16826 0.113325,0.40596 -0.01746,0.56263 l -0.0997,0.11942 H 11.769775 7.091952 Z m 7.568179,-0.85574 c 0.006,-0.0757 -0.0076,-0.19133 -0.03028,-0.25697 -0.08685,-0.25115 0.05728,-0.23866 -2.753158,-0.23866 -1.697224,0 -2.591964,0.0143 -2.635304,0.0421 -0.12576,0.0806 -0.227079,0.48715 -0.145706,0.58463 0.01262,0.0151 1.267305,0.0228 2.788198,0.017 l 2.765261,-0.0105 z m -1.938001,-1.38981 c 0,-0.0688 -0.343407,-1.7821 -0.375565,-1.87377 -0.0311,-0.0886 -0.04806,-0.0919 -0.477095,-0.0919 -0.429029,0 -0.445991,0.003 -0.477094,0.0919 -0.03216,0.0917 -0.375565,1.80499 -0.375565,1.87377 0,0.0201 0.379657,0.0362 0.852659,0.0362 0.473003,0 0.85266,-0.0161 0.85266,-0.0362 z m 6.020593,-2.92616 c 0.11783,-0.0873 0.19126,-0.18173 0.253117,-0.32563 0.08519,-0.19819 0.08739,-0.2247 0.09869,-1.18811 0.01027,-0.87544 0.0052,-0.99296 -0.04507,-1.05323 -0.05229,-0.0626 -0.469266,-0.0678 -5.441101,-0.0678 H 8.124243 l -0.08832,-0.0919 c -0.116558,-0.12132 -0.14985,-0.35834 -0.07067,-0.5031 0.127924,-0.23387 -0.171453,-0.22209 5.641566,-0.22209 4.848999,0 5.354097,-0.006 5.372853,-0.0646 0.03563,-0.11124 0.02309,-7.57535 -0.01317,-7.84066 -0.03684,-0.2695 -0.09365,-0.38234 -0.286887,-0.56983 l -0.12876,-0.12493 h -0.515641 -0.51564 l -1.512725,2.20619 c -0.831999,1.2134 -1.527332,2.23761 -1.545185,2.27602 -0.02102,0.0452 -0.01882,0.13877 0.0063,0.26556 0.06392,0.32318 0.04699,0.89245 -0.03588,1.20649 -0.152485,0.57785 -0.547947,1.07024 -1.013519,1.26194 -0.217351,0.0895 -0.286863,0.0963 -1.017732,0.0991 -0.731459,0.003 -0.797772,0.009 -0.981732,0.0958 -0.108506,0.051 -0.263899,0.15364 -0.345317,0.22809 -0.295967,0.27062 -0.442386,0.29789 -0.598067,0.11141 -0.173502,-0.20784 -0.32409,-1.17112 -0.320679,-2.05132 0.0027,-0.6891 0.06773,-1.05541 0.275261,-1.54986 0.309867,-0.73827 1.001871,-1.25959 1.776049,-1.33798 l 0.25218,-0.0255 0.749247,-1.34534 c 0.412086,-0.73994 0.757585,-1.37137 0.767776,-1.40319 0.01592,-0.0497 -0.608037,-0.0578 -4.433786,-0.0578 -2.672557,0 -4.485769,0.0152 -4.536009,0.0381 -0.04603,0.021 -0.141406,0.0988 -0.21194,0.173 -0.252693,0.26577 -0.236333,-0.0202 -0.247329,4.32382 -0.0054,2.14593 -0.0013,3.94305 0.0092,3.99361 0.01863,0.0899 0.02973,0.0919 0.496987,0.0919 0.526325,0 0.66836,0.0411 0.767352,0.22209 0.07918,0.14476 0.04589,0.38178 -0.07067,0.5031 -0.08307,0.0865 -0.118437,0.0919 -0.595576,0.0919 -0.427194,0 -0.516196,0.0107 -0.563887,0.0678 -0.05031,0.0603 -0.05534,0.1777 -0.04507,1.05203 0.01102,0.93841 0.01532,0.99334 0.09243,1.18095 0.09066,0.22057 0.27632,0.39209 0.475035,0.43886 0.06942,0.0163 3.104917,0.0271 6.745543,0.0239 l 6.619322,-0.006 z M 6.676785,55.351103 c -0.188486,-0.1776 -0.143191,-0.53019 0.0853,-0.66399 0.11324,-0.0663 0.136738,-0.0676 0.244618,-0.0136 0.164837,0.0825 0.240967,0.23264 0.215424,0.42483 -0.0404,0.30394 -0.342455,0.44396 -0.545342,0.25279 z m 4.632603,-2.73924 c 0.213317,-0.0809 0.318657,-0.0913 0.989084,-0.0976 0.87734,-0.008 0.980708,-0.033 1.211135,-0.29121 0.214594,-0.24045 0.309639,-0.50706 0.310599,-0.87125 0.0015,-0.55218 0.0023,-0.5508 -0.691411,-1.16965 -0.68384,-0.61007 -0.660272,-0.59948 -1.09059,-0.49022 -0.54448,0.13824 -0.935263,0.54093 -1.099591,1.13309 -0.09587,0.34546 -0.130817,0.86598 -0.09054,1.34855 0.02024,0.24252 0.04623,0.47039 0.05776,0.50639 0.0233,0.0727 0.03942,0.07 0.40355,-0.0681 z m 3.026941,-3.24509 c 0.182896,-0.2667 0.332538,-0.50662 0.332538,-0.53317 0,-0.0266 -0.200983,-0.22601 -0.446629,-0.44325 -0.379436,-0.33556 -0.454556,-0.3871 -0.499328,-0.3426 -0.09374,0.0932 -0.593356,1.01663 -0.582397,1.07644 0.01293,0.0706 0.781209,0.75535 0.829172,0.73906 0.01876,-0.006 0.18375,-0.22979 0.366644,-0.49648 z m 1.989758,-2.89993 c 0.631577,-0.92129 1.178649,-1.75564 1.215718,-1.85411 0.102523,-0.27235 0.07522,-0.67852 -0.06125,-0.91111 -0.282273,-0.481097 -0.81695,-0.574433 -1.176832,-0.205432 -0.09099,0.09329 -0.494252,0.778642 -1.129195,1.919072 -0.543217,0.97568 -0.995622,1.79879 -1.005345,1.82914 -0.0184,0.0574 0.924355,0.93271 0.979699,0.90958 0.01588,-0.007 0.545627,-0.76585 1.177202,-1.68714 z"
       id="path1034" />
    <path
       style="fill:#ffffff;stroke-width:0.109405;stroke:#ffffff"
       d="m 5.8383429,27.168507 c -0.032816,-0.143537 -0.045458,-2.838736 -0.028094,-5.989332 0.028789,-5.223128 0.048141,-5.768796 0.2194075,-6.18687 0.2351851,-0.574108 0.8327375,-1.261564 1.3784592,-1.585853 0.4064788,-0.241545 0.5345794,-0.249096 4.7771974,-0.281592 l 4.359518,-0.03339 v 0.239683 c 0,0.131826 -0.07062,0.3896 -0.156936,0.572832 l -0.156935,0.333148 -4.05377,0.0337 -4.0537665,0.0337 -0.4196492,0.304999 c -0.7681674,0.5583 -0.7655467,0.539176 -0.7655467,5.587028 0,2.465012 0.038798,4.48184 0.086219,4.48184 0.047419,0 0.1993314,-0.132176 0.3375805,-0.293725 0.1382518,-0.161548 0.4166273,-0.406566 0.618617,-0.544485 0.3564661,-0.243398 0.4622767,-0.250979 3.6042559,-0.258207 3.023632,-0.007 3.27293,-0.02314 3.781993,-0.24556 0.776958,-0.339463 1.508448,-0.966822 1.952434,-1.67449 0.453866,-0.723422 0.646412,-1.367824 0.748485,-2.504962 0.05367,-0.597949 0.186457,-1.102054 0.466219,-1.769961 0.215147,-0.513639 0.44295,-0.969016 0.50623,-1.01195 0.151387,-0.102709 0.155316,2.685118 0.0053,3.718205 -0.166648,1.147165 -0.615453,2.0808 -1.430204,2.975209 -0.388455,0.426434 -0.951896,0.911964 -1.252093,1.078956 -1.055105,0.586936 -1.489064,0.645598 -4.775846,0.645598 H 8.5533341 l -1.197421,1.318226 c -0.658578,0.725025 -1.2560253,1.318226 -1.3276547,1.318226 -0.071632,0 -0.157089,-0.117439 -0.1899074,-0.260975 z m 3.0838575,-6.100899 c -0.1037097,-0.137178 -0.1037097,-0.206707 0,-0.343885 0.1063573,-0.140681 0.4575742,-0.171943 1.9317626,-0.171943 1.474186,0 1.825405,0.03126 1.93176,0.171943 0.10371,0.137178 0.10371,0.206707 0,0.343885 -0.192005,0.253972 -3.6715171,0.253972 -3.8635226,0 z m 4.6102916,0.07245 c -0.07744,-0.05496 -0.123783,-0.196905 -0.102991,-0.315442 0.0346,-0.19722 0.148527,-0.215521 1.341625,-0.215521 h 1.303816 v 0.286571 0.286571 l -1.200825,0.02887 c -0.660455,0.01588 -1.264186,-0.01609 -1.341625,-0.07105 z m 2.434523,-3.019888 0.07561,-1.1707 1.151015,-2.841292 c 0.688366,-1.699236 1.208081,-2.841293 1.292986,-2.841293 0.232944,0 1.295213,0.610815 1.295213,0.744761 0,0.06812 -0.489706,1.334051 -1.088233,2.813173 -1.004772,2.483057 -1.142682,2.757445 -1.798189,3.577682 -0.390478,0.488603 -0.776118,0.88837 -0.85698,0.88837 -0.121758,0 -0.134032,-0.201193 -0.07142,-1.170701 z m 0.911464,-0.2836 c 0.366,-0.384932 0.364864,-0.433831 -0.01409,-0.606144 -0.393912,-0.179116 -0.528401,-0.08087 -0.528401,0.385994 0,0.613066 0.121873,0.662524 0.542489,0.22015 z m -7.9562786,1.053101 c -0.103769,-0.137256 -0.1034996,-0.206983 0.00135,-0.345644 0.1126543,-0.14901 0.5484178,-0.169378 3.0656696,-0.143285 2.777118,0.02879 2.936373,0.04196 2.972116,0.245937 0.02077,0.118537 -0.02559,0.2596 -0.103028,0.313473 -0.07744,0.05387 -1.41549,0.09874 -2.973447,0.09971 -2.3918821,0.0015 -2.8528741,-0.025 -2.9626384,-0.170188 z m 0.00377,-2.172941 c -0.1087463,-0.143841 -0.1087463,-0.210039 0,-0.35388 0.099724,-0.131909 0.2956479,-0.168375 0.7698264,-0.143286 0.6006742,0.03178 0.6360592,0.0496 0.6360592,0.320226 0,0.270629 -0.03538,0.288443 -0.6360592,0.320226 -0.4741812,0.02509 -0.6701028,-0.01138 -0.7698264,-0.143286 z m 2.1223726,-0.005 c -0.03306,-0.09457 -0.03306,-0.249317 0,-0.343885 0.05058,-0.144682 0.382072,-0.171943 2.090861,-0.171943 2.117423,0 2.244355,0.03046 2.030377,0.487171 -0.08451,0.180386 -0.293854,0.2006 -2.077559,0.2006 -1.666851,0 -1.993171,-0.02746 -2.043679,-0.171943 z m 8.250287,-5.606126 c -0.294474,-0.150519 -0.566579,-0.32904 -0.604679,-0.396713 -0.08566,-0.15215 0.212359,-0.8078242 0.403837,-0.8884842 0.07722,-0.03253 0.36844,0.06039 0.647163,0.2064972 0.545326,0.285853 0.690521,0.641342 0.457318,1.119684 -0.145572,0.298596 -0.248412,0.293932 -0.903639,-0.04098 z"
       id="path1036" />
    <path
       style="fill:#0c0c0c;stroke-width:0.264583"
       d="m 540.69462,219.88306 c -1.63004,-0.32013 -4.19458,-1.5907 -5.49088,-2.72041 -1.47735,-1.28749 -2.97751,-3.60777 -3.57615,-5.53118 -0.47341,-1.52107 -0.48956,-3.4307 -0.42326,-50.03381 l 0.0689,-48.45238 0.86993,-1.83707 c 0.47845,-1.01039 1.2819,-2.33984 1.78544,-2.95434 1.18785,-1.44961 3.78763,-3.17526 5.55991,-3.69047 1.37664,-0.4002 1.40888,-0.43291 1.86883,-1.89519 0.59233,-1.88318 2.20056,-4.304526 3.64532,-5.4884 0.96418,-0.790074 3.49634,-2.117679 4.99213,-2.617362 0.25592,-0.08549 0.59246,-0.486205 0.74786,-0.890471 0.867,-2.255435 2.09996,-4.330777 3.27623,-5.514629 1.51662,-1.526391 4.09998,-2.897578 6.1962,-3.288795 1.96955,-0.367578 75.11334,-0.363704 77.05266,0.0041 1.85421,0.351643 4.32051,1.536126 5.69791,2.736517 1.47736,1.287499 2.97752,3.607777 3.57615,5.531183 0.47342,1.521073 0.48957,3.430704 0.42327,50.033807 l -0.0689,48.45238 -0.86993,1.83707 c -0.47845,1.01039 -1.2819,2.33985 -1.78544,2.95434 -1.18785,1.44962 -3.78763,3.17526 -5.55991,3.69048 -1.37664,0.4002 -1.40888,0.4329 -1.86883,1.89519 -0.59233,1.88317 -2.20056,4.30452 -3.64532,5.48839 -0.96418,0.79008 -3.49634,2.11768 -4.99213,2.61737 -0.25592,0.0855 -0.59246,0.4862 -0.74786,0.89047 -0.867,2.25543 -2.09996,4.33078 -3.27623,5.51463 -1.51662,1.52639 -4.09998,2.89757 -6.1962,3.28879 -1.7735,0.33099 -75.5697,0.3117 -77.2597,-0.0202 z m 77.75884,-5.16209 c 1.71278,-0.79618 2.83446,-1.83571 3.65103,-3.3836 l 0.71459,-1.3546 v -47.88958 -47.88958 l -0.58266,-1.08915 c -0.9391,-1.75541 -1.8561,-2.67162 -3.46438,-3.46139 l -1.50921,-0.74112 H 579.42742 541.592 l -1.20406,0.55712 c -1.67258,0.7739 -2.92803,1.94635 -3.69773,3.45325 l -0.65446,1.28129 -0.069,47.48198 c -0.0766,52.71496 -0.20558,48.82817 1.69383,51.0472 1.0129,1.18335 2.38878,2.00636 3.99346,2.38876 0.56819,0.1354 17.02661,0.21926 38.30255,0.19516 37.25244,-0.0422 37.30796,-0.0431 38.49687,-0.59574 z m -71.89751,-4.746 c -0.31777,-0.22257 -0.70078,-0.84765 -0.85115,-1.38906 -0.36934,-1.32987 -0.36934,-23.92223 0,-25.25211 0.50241,-1.809 0.41556,-1.79373 10.20527,-1.79373 7.75882,0 8.79498,0.0485 8.93696,0.41851 0.2314,0.60303 0.19017,3.62321 -0.0547,4.00876 -0.15379,0.24213 -2.01155,0.34445 -7.20584,0.39688 l -6.99862,0.0706 v 9.525 9.525 h 9.525 9.525 l 0.0722,-4.69636 0.0723,-4.69635 h 2.37514 2.37515 v 6.3297 6.3297 l -0.68498,0.81405 -0.68498,0.81405 h -13.01448 c -11.25171,0 -13.09274,-0.0548 -13.59224,-0.40468 z m 32.89978,-2.39509 c -0.0883,-0.23018 -0.1606,-1.11341 -0.1606,-1.96273 0,-0.84932 0.0723,-1.73255 0.1606,-1.96274 0.1441,-0.37554 1.88286,-0.41851 16.93333,-0.41851 h 16.77273 v 2.38125 2.38125 h -16.77273 c -15.05047,0 -16.78923,-0.043 -16.93333,-0.41852 z m -20.40123,-7.01926 c -0.93672,-0.53058 -5.15937,-4.84028 -5.15937,-5.26574 0,-0.44823 2.62837,-3.17148 3.06097,-3.17148 0.14642,0 0.85257,0.59531 1.56924,1.32292 0.71666,0.7276 1.41961,1.32291 1.5621,1.32291 0.14249,0 2.55463,-2.28459 5.3603,-5.07687 l 5.10121,-5.07688 1.64886,1.64886 1.64886,1.64886 -6.33775,6.33385 c -6.56025,6.55621 -7.19248,7.02835 -8.45442,6.31357 z m 20.5601,-2.40275 c -0.42326,-0.42326 -0.42485,-3.97118 -0.002,-4.39405 0.37236,-0.37236 32.64707,-0.46206 33.22984,-0.0923 0.24627,0.15623 0.32041,0.84086 0.26459,2.44334 l -0.0777,2.2263 -16.54772,0.0681 c -12.65065,0.0521 -16.62295,-0.007 -16.86718,-0.25135 z m -0.15887,-9.89257 c -0.0883,-0.23018 -0.1606,-1.11341 -0.1606,-1.96273 0,-0.84932 0.0723,-1.73256 0.1606,-1.96274 0.1441,-0.37554 1.88286,-0.41851 16.93333,-0.41851 h 16.77273 v 2.38125 2.38125 h -16.77273 c -15.05047,0 -16.78923,-0.043 -16.93333,-0.41852 z m -32.89978,-12.15699 c -0.31777,-0.22257 -0.70078,-0.84765 -0.85115,-1.38906 -0.36934,-1.32988 -0.36934,-23.92224 0,-25.25211 0.50241,-1.809 0.41556,-1.79374 10.20527,-1.79374 7.75882,0 8.79498,0.0485 8.93696,0.41852 0.2314,0.60303 0.19017,3.62321 -0.0547,4.00876 -0.15379,0.24212 -2.01155,0.34444 -7.20584,0.39687 l -6.99862,0.0706 v 9.525 9.525 h 9.525 9.525 l 0.0722,-4.69635 0.0723,-4.69636 h 2.37514 2.37515 v 6.3297 6.3297 l -0.68498,0.81405 -0.68498,0.81405 h -13.01448 c -11.25171,0 -13.09274,-0.0548 -13.59224,-0.40467 z m 32.89978,-2.39509 c -0.0883,-0.23018 -0.1606,-1.11341 -0.1606,-1.96274 0,-0.84932 0.0723,-1.73255 0.1606,-1.96273 0.1441,-0.37554 1.88286,-0.41852 16.93333,-0.41852 h 16.77273 v 2.38125 2.38125 h -16.77273 c -15.05047,0 -16.78923,-0.043 -16.93333,-0.41851 z m -20.40123,-7.01927 c -0.93672,-0.53057 -5.15937,-4.84028 -5.15937,-5.26574 0,-0.44822 2.62837,-3.17147 3.06097,-3.17147 0.14642,0 0.85257,0.59531 1.56924,1.32291 0.71666,0.72761 1.41961,1.32292 1.5621,1.32292 0.14249,0 2.55463,-2.2846 5.3603,-5.07688 l 5.10121,-5.07688 1.64886,1.64886 1.64886,1.64886 -6.33775,6.33385 c -6.56025,6.55622 -7.19248,7.02835 -8.45442,6.31357 z m 20.5601,-2.40275 c -0.42326,-0.42325 -0.42485,-3.97117 -0.002,-4.39405 0.37236,-0.37236 32.64707,-0.46205 33.22984,-0.0924 0.24627,0.15623 0.32041,0.84086 0.26459,2.44334 l -0.0777,2.2263 -16.54772,0.0681 c -12.65065,0.0521 -16.62295,-0.007 -16.86718,-0.25135 z m -0.15887,-9.89256 c -0.0883,-0.23019 -0.1606,-1.11342 -0.1606,-1.96274 0,-0.84932 0.0723,-1.73255 0.1606,-1.96273 0.1441,-0.37554 1.88286,-0.41852 16.93333,-0.41852 h 16.77273 v 2.38125 2.38125 h -16.77273 c -15.05047,0 -16.78923,-0.043 -16.93333,-0.41851 z m -32.89978,-12.157 c -0.31777,-0.22257 -0.70078,-0.84765 -0.85115,-1.38906 -0.36934,-1.32987 -0.36934,-23.92223 0,-25.25211 0.50241,-1.809 0.41556,-1.79373 10.20527,-1.79373 7.75882,0 8.79498,0.0485 8.93696,0.41851 0.2314,0.60303 0.19017,3.62321 -0.0547,4.00876 -0.15379,0.24213 -2.01155,0.34445 -7.20584,0.39688 l -6.99862,0.0706 v 9.52499 9.525 h 9.525 9.525 l 0.0722,-4.69635 0.0723,-4.69635 h 2.37514 2.37515 v 6.32969 6.32971 l -0.68498,0.81404 -0.68498,0.81406 h -13.01448 c -11.25171,0 -13.09274,-0.0548 -13.59224,-0.40468 z m 32.89978,-2.39509 c -0.0883,-0.23018 -0.1606,-1.11341 -0.1606,-1.96273 0,-0.84932 0.0723,-1.73255 0.1606,-1.96273 0.1441,-0.37555 1.88286,-0.41852 16.93333,-0.41852 h 16.77273 v 2.38125 2.38125 h -16.77273 c -15.05047,0 -16.78923,-0.043 -16.93333,-0.41852 z m -20.40123,-7.01926 c -0.93672,-0.53058 -5.15937,-4.84028 -5.15937,-5.26574 0,-0.44823 2.62837,-3.17148 3.06097,-3.17148 0.14642,0 0.85257,0.59531 1.56924,1.32292 0.71666,0.7276 1.41961,1.32291 1.5621,1.32291 0.14249,0 2.55463,-2.28459 5.3603,-5.07687 l 5.10121,-5.07688 1.64886,1.64886 1.64886,1.64886 -6.33775,6.33385 c -6.56025,6.55621 -7.19248,7.02835 -8.45442,6.31357 z m 20.5601,-2.40275 c -0.42326,-0.42326 -0.42485,-3.97118 -0.002,-4.39405 0.37236,-0.37236 32.64707,-0.46206 33.22984,-0.0923 0.24627,0.15623 0.32041,0.84086 0.26459,2.44334 l -0.0777,2.2263 -16.54772,0.0681 c -12.65065,0.0521 -16.62295,-0.007 -16.86718,-0.25136 z m -0.15887,-9.89257 c -0.0883,-0.23018 -0.1606,-1.11341 -0.1606,-1.96273 0,-0.84932 0.0723,-1.73256 0.1606,-1.96274 0.1441,-0.37554 1.88286,-0.41851 16.93333,-0.41851 h 16.77273 v 2.38125 2.38125 h -16.77273 c -15.05047,0 -16.78923,-0.043 -16.93333,-0.41852 z m 50.41764,83.42017 c 0.71208,-0.54313 1.44228,-1.45783 1.9388,-2.4287 l 0.7965,-1.55744 v -47.5114 -47.5114 l -0.55713,-1.20407 c -0.77389,-1.67258 -1.94635,-2.92803 -3.45325,-3.69773 l -1.28129,-0.654453 -37.57083,-0.07515 c -25.9558,-0.05191 -37.92427,0.01207 -38.7141,0.206977 -0.62879,0.155168 -1.61168,0.577821 -2.18418,0.939231 -1.10517,0.69766 -2.70132,2.67069 -2.54356,3.14416 0.0659,0.19776 10.85848,0.32463 35.92322,0.42228 32.55684,0.12684 35.94333,0.17991 37.08054,0.58107 2.89064,1.01972 5.73833,3.3686 6.92498,5.712 1.57659,3.11347 1.4808,-0.0649 1.4808,49.13376 0,24.76064 0.0794,45.09872 0.17639,45.19573 0.3444,0.3444 0.85519,0.16542 1.98311,-0.69487 z m 9.43829,-9.44612 c 1.24654,-0.90299 2.24393,-2.34826 2.66355,-3.85961 0.20234,-0.72876 0.28823,-14.98733 0.28927,-48.0191 0.002,-52.393502 0.15176,-48.31109 -1.86051,-50.597149 -0.59218,-0.672755 -1.622,-1.436619 -2.42752,-1.800614 l -1.39903,-0.632183 H 598.742 c -37.83326,0 -37.83548,3.2e-5 -39.02604,0.553465 -1.56616,0.728034 -2.68574,1.697614 -3.31982,2.875032 -0.45001,0.835618 -0.46515,0.988964 -0.11917,1.207673 0.24416,0.154355 13.96182,0.252074 35.73628,0.25457 38.56739,0.0044 36.43571,-0.07767 39.30667,1.513625 1.65833,0.919164 3.7333,3.041131 4.67432,4.780181 1.55915,2.88138 1.49961,0.92047 1.50462,49.55937 0.003,24.53239 0.084,44.68372 0.18099,44.78073 0.28872,0.28872 0.48537,0.21449 1.63181,-0.61599 z"
       id="path1056" />
    <path
       style="fill:#242424;stroke-width:0.264583"
       d="m 573.49124,64.549596 c -2.28957,-0.691682 -3.7067,-2.430219 -3.87476,-4.753571 -0.18071,-2.498286 0.0118,-2.661459 3.14026,-2.661459 2.13135,0 2.67502,-0.07869 2.80036,-0.405313 0.0855,-0.222922 -0.30699,-1.681438 -0.87229,-3.241146 l -1.02782,-2.835833 -6.34591,-0.132292 c -6.03189,-0.125746 -6.39408,-0.162245 -7.31933,-0.737581 -0.57141,-0.355312 -1.19971,-1.072745 -1.52135,-1.73718 -0.53583,-1.106877 -0.54794,-1.488419 -0.54794,-17.26417 V 14.648774 l 0.59531,-1.180542 c 0.43489,-0.862421 0.91343,-1.34096 1.77585,-1.775854 l 1.18055,-0.595312 h 22.50974 22.50975 l 1.18055,0.595312 c 0.86242,0.434894 1.34096,0.913433 1.77585,1.775854 l 0.59531,1.180542 v 16.132277 c 0,15.775751 -0.0121,16.157293 -0.54794,17.26417 -0.32164,0.664435 -0.94994,1.381868 -1.52135,1.73718 -0.92525,0.575336 -1.28744,0.611835 -7.31933,0.737581 l -6.34591,0.132292 -1.02782,2.835833 c -0.5653,1.559708 -0.95783,3.018224 -0.87229,3.241146 0.12534,0.326623 0.66901,0.405313 2.80036,0.405313 3.12844,0 3.32097,0.163173 3.14026,2.661459 -0.14527,2.008331 -1.10637,3.427542 -2.93992,4.341239 l -1.34496,0.670218 -9.93607,-0.02273 c -5.46484,-0.01252 -10.25246,-0.118325 -10.63916,-0.235146 z m 21.89033,-2.979373 c 0.52885,-0.577231 0.90547,-1.265047 0.90547,-1.653646 v -0.665345 h -12.30313 -12.30312 v 0.641157 c 0,0.728896 1.13869,2.206371 1.9628,2.546774 0.30291,0.125121 5.11414,0.203162 10.69162,0.173426 l 10.14088,-0.05407 z m -5.78839,-4.645647 c 0.39099,-0.248539 2.4874,-6.02494 2.26671,-6.245635 -0.20772,-0.207719 -15.54423,-0.207719 -15.75195,0 -0.22069,0.220695 1.87572,5.997096 2.26671,6.245635 0.17468,0.111038 2.69885,0.201885 5.60926,0.201885 2.91042,0 5.43459,-0.09085 5.60927,-0.201885 z m 17.10338,-8.81507 c 0.82828,-0.377388 1.29907,-1.26643 1.18772,-2.24292 l -0.0879,-0.770562 h -23.8125 -23.8125 l -0.0879,0.770562 c -0.10712,0.9394 0.35184,1.860039 1.11036,2.227331 0.82083,0.39746 44.6316,0.41247 45.50265,0.01558 z m 1.16832,-19.493498 0.0685,-14.098765 -0.65175,-0.651755 -0.65176,-0.651756 h -22.64593 -22.64592 l -0.64943,0.649432 -0.64944,0.649432 v 13.990846 c 0,7.694965 0.08,14.070854 0.1778,14.168641 0.0978,0.09779 10.84318,0.147397 23.87864,0.110242 l 23.70085,-0.06755 z m -40.20217,10.593037 c -0.42684,-0.499166 -1.9358,-2.997756 -2.82036,-4.670036 -0.60987,-1.152989 -0.40574,-2.010693 0.47855,-2.010693 0.5448,0 1.0737,0.600895 2.18619,2.483741 0.3966,0.671235 0.82939,1.220425 0.96176,1.220425 0.13237,0 1.15725,-1.541462 2.27751,-3.425471 2.27533,-3.826582 2.61377,-4.220517 3.27171,-3.808206 0.87938,0.551074 0.59073,1.35367 -2.08848,5.807211 -3.12992,5.202724 -3.37065,5.451131 -4.26688,4.403029 z m 22.22806,0.132291 c -0.64882,-0.520853 -3.43605,-5.47073 -3.34392,-5.938522 0.11092,-0.5632 0.8392,-0.996247 1.34745,-0.801214 0.22574,0.08662 0.85055,0.944495 1.38847,1.906378 0.53791,0.961883 1.11354,1.705846 1.27917,1.653249 0.16563,-0.05259 1.22141,-1.635655 2.34619,-3.517914 1.12477,-1.882259 2.2828,-3.528516 2.57339,-3.658349 0.58993,-0.263575 1.33469,0.183218 1.33469,0.800699 0,0.386695 -4.8105,8.626729 -5.50133,9.423382 -0.4749,0.547645 -0.86192,0.583597 -1.42411,0.132291 z m -17.09873,-1.309687 c -0.40638,-0.406376 -0.40638,-1.07529 0,-1.481667 0.40663,-0.406627 9.26826,-0.445198 10.01864,-0.04361 0.65843,0.35238 0.65843,1.216504 0,1.568884 -0.75038,0.40159 -9.61201,0.363019 -10.01864,-0.04361 z m 22.10594,0.03497 c -0.55433,-0.326749 -0.60478,-1.122521 -0.0978,-1.543245 0.25238,-0.209455 1.85769,-0.280758 5.19698,-0.230834 4.26615,0.06378 4.86595,0.126442 5.12357,0.535258 0.21265,0.337449 0.21265,0.588592 0,0.926042 -0.25764,0.40886 -0.84552,0.470196 -5.02573,0.524364 -2.89166,0.03747 -4.91414,-0.04487 -5.19697,-0.211585 z m -19.77481,-3.550556 c -0.44213,-0.532733 -0.16116,-1.146882 0.66911,-1.462549 0.74095,-0.28171 5.70223,-0.353313 6.66152,-0.09614 0.70989,0.190311 1.03159,1.040193 0.59353,1.568016 -0.47056,0.567 -7.45267,0.558782 -7.92416,-0.0093 z m 22.14079,0.2239 c -0.10074,-0.100745 -0.18317,-0.463931 -0.18317,-0.807082 0,-0.893015 0.88844,-1.139979 4.10104,-1.139979 3.37773,0 4.16885,0.245374 4.05246,1.256899 l -0.0837,0.727476 -3.85172,0.07293 c -2.11845,0.04011 -3.93416,-0.0095 -4.0349,-0.110241 z m -29.37431,-8.108875 c -0.23356,-0.176263 -1.13741,-1.559095 -2.00856,-3.07296 -1.25838,-2.1868 -1.53015,-2.852912 -1.32237,-3.241146 0.14384,-0.268765 0.54142,-0.488663 0.88352,-0.488663 0.48939,0 0.85849,0.398077 1.73128,1.867213 0.89129,1.500258 1.18059,1.808042 1.47209,1.566123 0.19954,-0.165601 1.2729,-1.846116 2.38525,-3.734478 1.85546,-3.149903 2.08048,-3.426672 2.72525,-3.35206 1.32572,0.153409 1.05529,1.023479 -1.79958,5.789767 -1.47273,2.458761 -2.8947,4.586621 -3.15995,4.728578 -0.33089,0.177085 -0.61557,0.157506 -0.90693,-0.06237 z m 22.23865,0.04062 c -0.66412,-0.37166 -3.66258,-5.55831 -3.57385,-6.181932 0.0505,-0.354708 0.31222,-0.556483 0.79393,-0.612021 0.63358,-0.07305 0.86251,0.141612 1.93439,1.813867 0.66868,1.043197 1.29779,1.815835 1.39804,1.716973 0.10025,-0.09886 1.13514,-1.748539 2.29976,-3.66595 1.76594,-2.907421 2.22238,-3.486202 2.74929,-3.486202 0.34749,0 0.75531,0.195805 0.90627,0.435122 0.21789,0.345429 -0.29428,1.400459 -2.48471,5.118258 -1.51754,2.575725 -2.94084,4.78084 -3.16288,4.900256 -0.22204,0.119416 -0.60915,0.102149 -0.86024,-0.03837 z m -17.62202,-1.756994 c -0.15951,-0.298062 -0.15811,-0.636647 0.004,-0.926041 0.22759,-0.40667 0.79604,-0.456189 5.23684,-0.456189 5.32418,0 5.82486,0.120429 5.44723,1.31022 -0.16553,0.521562 -0.36426,0.541864 -5.30421,0.541864 -4.64549,0 -5.15609,-0.04456 -5.3837,-0.469854 z m 22.05869,-0.06648 c -0.38751,-1.220952 0.10245,-1.332174 5.52941,-1.255185 l 5.0562,0.07173 v 0.79375 0.79375 l -5.20593,0.07167 c -5.06265,0.0697 -5.21072,0.05661 -5.37968,-0.475718 z m -19.29341,-3.054438 c -0.49715,-0.497156 -0.52948,-0.952186 -0.0983,-1.383393 0.44165,-0.441654 7.39001,-0.441654 7.83167,0 0.47674,0.476743 0.3825,1.21659 -0.19428,1.525274 -0.28147,0.150641 -1.99937,0.273893 -3.81756,0.273893 -2.65248,0 -3.38795,-0.08217 -3.72156,-0.415774 z m 22.12673,0.09827 c -0.17463,-0.174625 -0.3175,-0.508 -0.3175,-0.740834 0,-0.90722 0.57114,-1.058333 4.00003,-1.058333 1.85076,0 3.55336,0.07227 3.78354,0.160599 0.49324,0.189276 0.55463,1.184956 0.10101,1.638568 -0.44081,0.440812 -7.12627,0.440812 -7.56708,0 z"
       id="path1054" />
    <path
       style="fill:#ffffff;stroke:#ffffff;stroke-width:0.265;stroke-linecap:butt;stroke-linejoin:miter;stroke-miterlimit:4;stroke-dasharray:0.795, 0.26500000000000001;stroke-dashoffset:0;stroke-opacity:1"
       d="m 11.358955,30.268275 v 9.15398"
       id="path1060" />
    <path
       style="fill:#ffffff;stroke:#ffffff;stroke-width:0.264583px;stroke-linecap:butt;stroke-linejoin:miter;stroke-opacity:1"
       d="M 2.2717909,5.0113035 H 52.384828"
       id="path1062" />
    <path
       style="fill:#ffffff;stroke:#ffffff;stroke-width:0.264583px;stroke-linecap:butt;stroke-linejoin:miter;stroke-opacity:1"
       d="m 48.910322,2.6726951 3.474506,2.3386084"
       id="path1064" />
    <path
       style="fill:#ffffff;stroke:#ffffff;stroke-width:0.261699px;stroke-linecap:butt;stroke-linejoin:miter;stroke-opacity:1"
       d="M 48.858983,7.4829045 52.386054,5.2291021"
       id="path1064-3" />
    <text
       xml:space="preserve"
       style="font-size:4.9389px;line-height:1.25;font-family:'Franklin Gothic Medium';-inkscape-font-specification:'Franklin Gothic Medium, ';stroke-width:0.264583;fill:#ffffff;stroke:#ffffff;"
       x="22.851545"
       y="23.051994"
       id="text1098"><tspan
         sodipodi:role="line"
         id="tspan1096"
         x="22.851545"
         y="23.051994"
         style="stroke-width:0.264583;fill:#ffffff;stroke:#ffffff;">Feedback</tspan><tspan
         sodipodi:role="line"
         x="22.851545"
         y="29.225618"
         style="stroke-width:0.264583;fill:#ffffff;stroke:#ffffff;"
         id="tspan1112" /></text>
    <text
       xml:space="preserve"
       style="font-size:4.9389px;line-height:1.25;font-family:'Franklin Gothic Medium';-inkscape-font-specification:'Franklin Gothic Medium, ';stroke-width:0.264583;fill:#ffffff;stroke:#ffffff;"
       x="23.452902"
       y="50.24667"
       id="text1102"><tspan
         sodipodi:role="line"
         id="tspan1100"
         x="23.452902"
         y="50.24667"
         style="stroke-width:0.264583;fill:#ffffff;stroke:#ffffff;">Design</tspan><tspan
         sodipodi:role="line"
         x="23.452902"
         y="56.420296"
         style="stroke-width:0.264583;fill:#ffffff;stroke:#ffffff;"
         id="tspan1104" /></text>
  </g>
</svg>
