<?xml version="1.0" encoding="UTF-8" standalone="no"?>
<svg
   xmlns:dc="http://purl.org/dc/elements/1.1/"
   xmlns:cc="http://creativecommons.org/ns#"
   xmlns:rdf="http://www.w3.org/1999/02/22-rdf-syntax-ns#"
   xmlns:svg="http://www.w3.org/2000/svg"
   xmlns="http://www.w3.org/2000/svg"
   xmlns:sodipodi="http://sodipodi.sourceforge.net/DTD/sodipodi-0.dtd"
   xmlns:inkscape="http://www.inkscape.org/namespaces/inkscape"
   width="60mm"
   height="40mm"
   viewBox="0 0 60 40"
   version="1.1"
   id="svg8"
   inkscape:version="1.0.1 (3bc2e813f5, 2020-09-07)"
   sodipodi:docname="wizualizacjeLogo.svg">
  <defs
     id="defs2">
    <inkscape:perspective
       sodipodi:type="inkscape:persp3d"
       inkscape:vp_x="0 : 24.999999 : 1"
       inkscape:vp_y="0 : 999.99997 : 0"
       inkscape:vp_z="50.000001 : 24.999999 : 1"
       inkscape:persp3d-origin="25 : 19.999999 : 1"
       id="perspective833" />
  </defs>
  <sodipodi:namedview
     id="base"
     pagecolor="#ffffff"
     bordercolor="#666666"
     borderopacity="1.0"
     inkscape:pageopacity="0.0"
     inkscape:pageshadow="2"
     inkscape:zoom="3.959798"
     inkscape:cx="110.19487"
     inkscape:cy="90.608403"
     inkscape:document-units="mm"
     inkscape:current-layer="layer1"
     inkscape:document-rotation="0"
     showgrid="false"
     inkscape:window-width="1920"
     inkscape:window-height="1137"
     inkscape:window-x="-8"
     inkscape:window-y="-8"
     inkscape:window-maximized="1" />
  <metadata
     id="metadata5">
    <rdf:RDF>
      <cc:Work
         rdf:about="">
        <dc:format>image/svg+xml</dc:format>
        <dc:type
           rdf:resource="http://purl.org/dc/dcmitype/StillImage" />
        <dc:title></dc:title>
      </cc:Work>
    </rdf:RDF>
  </metadata>
  <g
     inkscape:label="Layer 1"
     inkscape:groupmode="layer"
     id="layer1">
    <path
       style="fill:#ffffff;stroke-width:0.264583"
       d="m 49.476474,37.412789 c -1.008345,-0.514428 -4.208286,-3.487983 -7.327002,-6.808641 l -2.989185,-3.182743 1.006317,-1.02084 1.006318,-1.02084 3.296749,3.906397 c 3.863109,4.57749 6.184916,7.894383 5.781601,8.259496 -0.101979,0.09232 -0.450637,0.03255 -0.774792,-0.132827 z m 0.760656,-4.260498 c -1.243168,0.701256 -1.321991,0.7057 -1.821785,0.102718 -0.287316,-0.346641 -0.504713,-0.985947 -0.483101,-1.420685 0.04861,-0.977847 -0.720787,-1.870083 -1.768158,-2.050447 -1.218763,-0.209877 -1.806953,-1.291396 -1.331374,-2.448032 0.209993,-0.510717 0.281889,-1.242443 0.159768,-1.626057 -0.190296,-0.597773 -0.346465,-0.707567 -1.092442,-0.768036 -0.478723,-0.03881 -1.120228,0.06264 -1.425568,0.225434 -0.47622,0.2539 -0.725999,0.146297 -1.756563,-0.756715 -1.51864,-1.330678 -1.82604,-2.456993 -1.158538,-4.244903 0.379944,-1.017684 0.676264,-1.401399 1.596167,-2.06693 3.383611,-2.447971 8.022758,-2.313812 11.66252,0.337266 2.797874,2.037879 3.793873,4.652275 2.943641,7.726756 -0.744043,2.690492 -3.029734,5.582327 -5.524565,6.989629 z m 2.818662,-5.309388 c 0.194874,-1.145171 -0.718203,-2.238092 -1.76063,-2.10741 -1.618511,0.202901 -2.393384,1.999339 -1.356456,3.144762 0.561418,0.620159 2.015104,0.699946 2.628899,0.14429 0.186664,-0.168984 0.406348,-0.700723 0.488187,-1.181642 z M 51.45202,21.663616 c 0.08851,-1.780279 -1.690498,-2.590158 -3.028637,-1.378768 -1.193468,1.080422 -0.459518,2.934496 1.215388,3.070265 1.082909,0.08778 1.756011,-0.540126 1.813247,-1.691499 z m -5.923308,-1.308794 c -0.06696,-0.691799 -0.224653,-0.948214 -0.775477,-1.260907 -1.420736,-0.806528 -3.155128,0.473533 -2.744739,2.025745 0.28035,1.060373 0.373094,1.146242 1.432749,1.326563 1.193152,0.203039 2.210849,-0.816576 2.087467,-2.091401 z m -1.455183,14.85934 c -4.341258,0.507046 -8.122269,-0.697826 -9.277152,-2.956294 -0.410458,-0.802687 -0.430845,-1.188917 -0.09992,-1.893132 0.438754,-0.933684 1.381913,-1.889488 2.693955,-2.730075 l 0.790601,-0.506513 3.603235,3.841313 c 1.981777,2.112724 3.525501,3.906596 3.430412,3.98646 -0.09505,0.07984 -0.608562,0.19604 -1.14113,0.258243 z m -3.409615,-3.784291 c 0.05571,-1.120636 -0.359034,-1.620213 -1.507318,-1.815616 -1.769067,-0.301041 -2.82176,1.716662 -1.599842,3.066431 1.109813,1.225933 3.022305,0.456042 3.10716,-1.250815 z m -2.238683,-5.038293 c -0.58911,-0.682144 -2.462326,-3.733617 -2.449562,-3.99035 0.03306,-0.665037 0.864751,-0.376542 2.360163,0.818691 0.905554,0.723779 1.830974,1.429981 2.05649,1.569339 0.352164,0.217619 0.269755,0.380364 -0.583926,1.153185 -0.903061,0.817523 -1.029548,0.858595 -1.383165,0.449135 z m -3.488098,-4.451839 c -1.070804,-0.05323 -2.28912,-1.587814 -2.667169,-3.359541 -0.14919,-0.699186 -0.226528,-1.311738 -0.171861,-1.361228 0.05467,-0.04949 0.609274,0.131002 1.232458,0.401091 2.653724,1.150129 3.874473,4.432426 1.606572,4.319678 z"
       id="path915" />
    <path
       style="fill:#ffffff;stroke-width:0.340155"
       d="M 5.2923937,38.152188 C 3.4051756,38.062063 2.7626824,37.90638 2.7626824,37.53923 c 0,-0.270682 0.3304949,-0.543124 0.7344328,-0.605424 0.6462412,-0.09968 0.7218123,-0.288071 0.6293396,-1.568965 -0.117139,-1.622615 0.5080924,-2.620776 1.6416234,-2.620776 0.6588076,0 0.6700885,-0.120792 0.5048613,-5.405751 L 6.1039348,21.932563 7.2065285,19.938905 c 0.6064263,-1.096511 1.3235103,-2.192762 1.5935173,-2.436112 0.4102298,-0.369728 0.4909243,-1.74814 0.4909243,-8.3858771 0,-6.4889408 0.083842,-7.9783569 0.4578626,-8.13422336 0.2518253,-0.1049426 1.1698643,0.12253356 2.0400893,0.50550236 0.870224,0.3829689 2.065222,0.8944975 2.655548,1.1367336 1.460055,0.5991201 1.7012,1.2474278 1.7012,4.5735968 0,2.7876127 0.01974,2.8591077 0.789339,2.8591077 1.701132,0 1.821976,0.22445 1.821976,3.384045 v 2.953719 l 1.224054,0.11002 1.224053,0.11002 0.199655,5.848846 c 0.109811,3.216864 0.219975,6.925564 0.24481,8.241555 0.04329,2.293534 0.0785,2.39271 0.849708,2.39271 0.969531,0 1.480349,0.90934 1.480349,2.635263 0,0.695183 0.146887,1.263967 0.326415,1.263967 0.179528,0 0.326414,0.319028 0.326414,0.708951 0,0.692443 -0.195713,0.707289 -8.40517,0.637617 C 11.604431,38.305105 6.6837343,38.218637 5.2923937,38.152195 Z M 8.638141,36.154984 c 0,-1.076003 0.7570181,-1.762908 1.616408,-1.466702 0.473513,0.163207 0.668492,0.533613 0.668492,1.269952 0,1.295533 0.572434,1.376237 0.712752,0.100481 0.214458,-1.949838 2.224977,-2.072278 2.224977,-0.135494 0,0.591002 0.146887,1.074549 0.326414,1.074549 0.179528,0 0.326415,-0.467794 0.326415,-1.039537 0,-0.736339 0.194979,-1.106745 0.668492,-1.269952 0.85939,-0.296207 1.616408,0.390699 1.616408,1.466702 0,0.463535 0.146887,0.842787 0.326414,0.842787 0.179528,0 0.326415,-0.467794 0.326415,-1.039537 0,-0.755924 0.193588,-1.106266 0.70956,-1.284107 0.734792,-0.253262 1.57534,0.549863 1.57534,1.505207 0,0.313564 0.476147,0.463962 1.468864,0.463962 1.402391,0 1.468865,-0.04641 1.468865,-1.025501 0,-0.608125 -0.210141,-1.113075 -0.516317,-1.240665 -0.283977,-0.11834 -4.265626,-0.215162 -8.848111,-0.215162 -7.4633988,0 -8.3111414,0.05844 -8.1336612,0.560705 0.108972,0.308387 0.1981297,0.85609 0.1981297,1.21712 0,0.639697 0.5608611,0.862486 2.5297114,1.004868 0.5694122,0.04117 0.7344321,-0.136254 0.7344321,-0.789676 z m 1.2022205,-0.287103 c -0.1041976,-0.282776 -0.1815451,-0.198783 -0.1972081,0.214163 -0.014175,0.373674 0.06298,0.583038 0.1714388,0.46525 0.1084662,-0.117791 0.1200629,-0.423527 0.025772,-0.679413 z m 5.8754575,0 c -0.104197,-0.282776 -0.181545,-0.198783 -0.197208,0.214163 -0.01417,0.373674 0.06297,0.583038 0.171439,0.46525 0.108466,-0.117791 0.120063,-0.423527 0.02577,-0.679413 z M 17.777742,22.1098 V 11.12106 H 16.961706 16.14567 V 22.1098 33.098542 h 0.816036 0.816036 z m 2.69274,2.995512 c -0.233932,-7.101584 -0.27319,-7.426455 -0.897462,-7.426455 -0.731239,0 -0.683111,-0.806989 -0.55867,9.367609 0.06177,5.05026 0.129287,5.660593 0.640274,5.787633 0.314175,0.07811 0.68131,0.04204 0.815858,-0.08016 0.134549,-0.122199 0.134549,-3.564081 0,-7.64863 z M 9.2909701,25.831793 c 0,-3.80175 -0.071604,-6.912272 -0.1591129,-6.912272 -0.087518,0 -0.5281707,0.634886 -0.9792436,1.410858 -0.7848613,1.350185 -0.82013,1.64744 -0.82013,6.912272 v 5.501414 h 0.979243 0.9792435 z m 2.9377289,-7.963227 c 0,-14.3441803 -0.02255,-14.8886064 -0.63137,-15.2424464 -0.347254,-0.2018213 -0.714469,-0.3669482 -0.816036,-0.3669482 -0.101569,0 -0.184666,6.8591017 -0.184666,15.2424476 v 15.242446 h 0.816035 0.816037 z m 2.611314,0.767375 c 0,-14.3548886 -0.04877,-14.9588667 -1.207733,-14.9588667 -0.338193,0 -0.42407,2.0329527 -0.423016,10.0139327 7.18e-4,5.507664 0.09685,12.047736 0.213581,14.533496 0.191332,4.074022 0.271648,4.519562 0.814713,4.519562 0.575573,0 0.602455,-0.629523 0.602455,-14.108124 z"
       id="path931" />
  </g>
</svg>
