<?xml version="1.0" encoding="UTF-8" standalone="no"?>
<svg
   xmlns:dc="http://purl.org/dc/elements/1.1/"
   xmlns:cc="http://creativecommons.org/ns#"
   xmlns:rdf="http://www.w3.org/1999/02/22-rdf-syntax-ns#"
   xmlns:svg="http://www.w3.org/2000/svg"
   xmlns="http://www.w3.org/2000/svg"
   xmlns:sodipodi="http://sodipodi.sourceforge.net/DTD/sodipodi-0.dtd"
   xmlns:inkscape="http://www.inkscape.org/namespaces/inkscape"
   width="100mm"
   height="100mm"
   viewBox="0 0 100 100"
   version="1.1"
   id="svg8"
   sodipodi:docname="wnetrza.svg"
   inkscape:version="1.0.1 (3bc2e813f5, 2020-09-07)">
  <sodipodi:namedview
     pagecolor="#ffffff"
     bordercolor="#666666"
     borderopacity="1"
     objecttolerance="10"
     gridtolerance="10"
     guidetolerance="10"
     inkscape:pageopacity="0"
     inkscape:pageshadow="2"
     inkscape:window-width="1405"
     inkscape:window-height="928"
     id="namedview445"
     showgrid="false"
     inkscape:zoom="0.74786067"
     inkscape:cx="266.53093"
     inkscape:cy="213.04503"
     inkscape:window-x="0"
     inkscape:window-y="25"
     inkscape:window-maximized="0"
     inkscape:current-layer="svg8"
     inkscape:document-rotation="0" />
  <defs
     id="defs2" />
  <metadata
     id="metadata5">
    <rdf:RDF>
      <cc:Work
         rdf:about="">
        <dc:format>image/svg+xml</dc:format>
        <dc:type
           rdf:resource="http://purl.org/dc/dcmitype/StillImage" />
        <dc:title />
      </cc:Work>
    </rdf:RDF>
  </metadata>
  <path
     style="fill:#ffffff;stroke-width:0.553934"
     d="m 26.902602,94.936507 c -0.654781,-0.444774 -0.989753,-2.373408 -1.512355,-8.707531 -0.4524,-5.48326 -0.886951,-8.232481 -1.3327,-8.43143 -0.363781,-0.162366 -3.607781,-0.06665 -7.208891,0.212695 -7.3957696,0.573676 -6.798268,0.0702 -7.6925842,6.481922 C 8.759474,87.335536 8.6560179,87.488467 7.0048347,87.672055 6.0508028,87.778132 5.0518655,87.610934 4.7849717,87.300516 4.4803785,86.946237 4.7277042,82.203655 5.4492592,74.562139 L 6.5988043,62.388178 4.7157596,54.446757 c -1.035674,-4.367778 -1.8830447,-8.295729 -1.8830447,-8.72878 0,-0.433052 1.0270567,-2.070142 2.2823467,-3.63798 l 2.2823447,-2.850612 5.0368537,0.367314 c 2.770268,0.202016 8.674508,0.542463 13.120525,0.756529 4.934836,0.237604 8.264955,0.649024 8.54906,1.056195 0.255976,0.366838 1.182389,3.466392 2.058718,6.887896 0.876328,3.421502 1.729245,6.378656 1.89536,6.571457 0.166173,0.192803 3.868623,-1.07763 8.227748,-2.823167 7.937663,-3.178493 9.555965,-3.406359 10.205689,-1.437013 0.746011,2.261156 3.882135,39.781067 3.374493,40.371524 -0.333278,0.387633 -1.192213,0.402526 -2.438159,0.04229 -2.160092,-0.624563 -2.254418,-0.942287 -2.958536,-9.96532 l -0.36129,-4.62989 -5.477685,0.03441 c -3.012717,0.01897 -6.402196,0.224256 -7.532191,0.456281 l -2.054505,0.421841 -0.440048,3.975509 c -0.39167,3.538408 -0.579993,4.016366 -1.712977,4.347103 -0.7001,0.204386 -1.746348,0.196822 -2.325002,-0.01671 -0.97085,-0.358389 -1.0267,-0.706305 -0.723182,-4.504673 l 0.328909,-4.116288 h -2.027778 c -1.115281,0 -2.145943,0.222359 -2.290358,0.49415 -0.144411,0.271783 0.07078,3.968228 0.478184,8.214321 0.998549,10.40687 1.054106,9.814385 -0.918272,9.792919 -0.918109,-0.0099 -2.047771,-0.275255 -2.510361,-0.589483 z m 2.642453,-1.632619 c 0.0019,-0.575002 -0.716442,-9.37926 -1.596601,-19.565017 -1.055032,-12.209555 -1.830236,-18.801823 -2.275181,-19.348002 -1.006654,-1.235683 -2.44831,-0.374196 -2.01726,1.205446 0.191952,0.703442 1.095816,9.466843 2.008578,19.474221 1.619054,17.751013 1.88732,19.231569 3.491559,19.269664 0.21187,0.0047 0.386878,-0.461309 0.388905,-1.036312 z m 29.273113,-4.710987 c 0,-1.624196 -3.078817,-35.061284 -3.365329,-36.548744 -0.197428,-1.025046 -0.560756,-1.330586 -1.403889,-1.180627 -0.697091,0.123982 -1.065273,0.543777 -0.950951,1.084241 0.102693,0.485058 0.870311,8.812477 1.706028,18.505373 0.835737,9.692896 1.611274,17.95949 1.723441,18.370205 0.306488,1.122208 2.2907,0.922587 2.2907,-0.230448 z M 7.2617794,86.125882 c 0.3172698,-0.2414 1.0812803,-5.412305 1.6978009,-11.490903 0.6165225,-6.078596 1.2494097,-11.925697 1.4064157,-12.99356 0.225436,-1.533287 0.109119,-1.941564 -0.5531513,-1.941564 -1.302228,0 -1.7212204,1.91066 -2.8493707,12.993487 C 5.5598728,86.48218 5.5803707,87.4052 7.2617794,86.125882 Z M 36.966754,83.446704 c 0.111235,-0.410716 0.349331,-2.02371 0.528977,-3.584431 0.295073,-2.563524 0.227691,-2.837672 -0.69748,-2.837672 -0.563259,0 -1.142088,0.470455 -1.286286,1.045457 -0.245493,0.978932 -0.488463,4.678794 -0.372724,5.675349 0.08697,0.749003 1.611119,0.49989 1.827513,-0.298703 z m -14.208558,-7.368508 1.691688,-0.312323 -0.319501,-3.701822 c -0.493709,-5.720265 -0.14938,-5.401067 -5.447185,-5.049727 -4.10509,0.272238 -4.790052,0.173362 -5.638931,-0.813976 -0.531434,-0.618117 -0.966248,-1.542965 -0.966248,-2.055215 0,-0.512252 -0.197293,-0.789536 -0.438432,-0.616199 -0.241139,0.17334 -0.592981,2.470584 -0.781873,5.104992 -0.188885,2.634407 -0.472501,5.540406 -0.630247,6.457776 l -0.2868071,1.667942 5.5629261,-0.184561 c 3.059609,-0.101516 6.324182,-0.325103 7.25461,-0.496887 z m 24.374937,-1.197988 6.548761,-0.36554 -0.0058,-2.18011 c -0.0039,-1.199065 -0.153167,-3.218306 -0.333355,-4.487206 l -0.327687,-2.307082 -11.35168,0.408075 c -6.243439,0.224436 -11.743912,0.53693 -12.22328,0.694413 -0.722231,0.23727 -0.826597,0.818575 -0.609086,3.392519 0.543151,6.427445 -0.0068,5.939103 6.252039,5.551309 3.025646,-0.187474 8.448121,-0.505338 12.049936,-0.706378 z m -24.88242,-9.591523 c 1.109067,-0.345496 1.164386,-0.581883 0.871838,-3.72562 -0.523549,-5.626122 -0.665899,-6.045048 -2.0541,-6.045048 -1.08737,0 -7.189975,2.360708 -8.456918,3.271433 -0.394952,0.283912 0.5452,4.933956 1.275384,6.308126 0.337573,0.635299 6.48687,0.775806 8.363796,0.191109 z M 38.60839,64.288181 C 38.900784,63.948104 33.500711,43.2169 32.957175,42.592814 32.370206,41.918869 7.9689962,40.749434 7.9689962,41.395248 c 0,0.7166 3.6054528,14.931011 3.8632828,15.23089 0.156758,0.182326 2.886857,-0.66448 6.066873,-1.881813 8.470833,-3.242696 9.237003,-3.065728 9.815707,2.267207 0.178267,1.642863 0.450117,4.167682 0.604091,5.610707 l 0.27995,2.623684 4.940307,-0.403911 c 2.717158,-0.222156 4.998307,-0.471377 5.069183,-0.553831 z m 9.872858,-0.205651 4.301488,-0.389412 -0.351758,-5.132999 c -0.193545,-2.823159 -0.635203,-5.469245 -0.981623,-5.880194 -0.5031,-0.596819 -1.577729,-0.377439 -5.339758,1.09008 -5.107892,1.992519 -4.988329,1.834976 -5.520101,7.274021 l -0.33586,3.435079 1.963072,-0.0036 c 1.079677,-0.0018 3.898733,-0.178826 6.26454,-0.392998 z m -8.675191,-6.622934 c 0.0039,-0.410716 -0.363561,-0.746756 -0.817528,-0.746756 -0.541614,0 -0.718212,0.324868 -0.513621,0.944968 0.171414,0.51973 0.315301,1.25902 0.31963,1.642864 0.0097,0.931008 1.001327,-0.872402 1.011519,-1.841076 z M 9.4149404,58.056989 10.461062,57.011532 8.7178901,50.210335 C 7.7591467,46.469677 6.8531496,43.267741 6.7045647,43.094921 c -0.437149,-0.508452 -2.3306086,1.768548 -2.3348949,2.807856 -0.00932,2.276144 2.7737814,13.199671 3.3631028,13.199671 0.3498268,0 1.1068022,-0.470456 1.6821678,-1.045459 z M 71.402051,94.849018 c -5.388057,-2.342917 -6.531757,-6.955595 -4.09286,-16.506842 0.881628,-3.452654 1.901592,-4.304601 5.153551,-4.304601 1.107204,0 1.764266,-0.289887 1.764266,-0.77836 0,-1.65269 -4.160979,-10.675496 -6.580016,-14.268362 -4.943894,-7.342842 -6.003828,-10.641697 -3.419239,-10.641697 4.714202,0 11.540139,6.812516 11.540139,11.517434 v 1.555277 l 2.007934,-1.529058 c 2.14097,-1.630366 3.861169,-5.550957 3.551012,-8.093249 -0.143071,-1.172124 -0.545147,-1.403778 -2.91806,-1.680876 -3.089844,-0.360816 -4.18177,-1.497172 -4.18177,-4.351934 0,-1.270309 0.604822,-2.460107 2.184609,-4.297582 2.342086,-2.724089 4.838794,-3.864423 8.473164,-3.869971 1.956743,-0.0029 2.18292,-0.150851 2.18292,-1.427168 0,-1.720506 1.405617,-2.287781 4.365842,-1.761959 6.291912,1.117627 6.390373,3.86321 0.296354,8.262669 -4.030836,2.909978 -7.295219,6.926382 -8.851459,10.890593 -1.781563,4.538153 -1.797462,4.941712 -0.194632,4.941712 1.321987,0 2.486478,1.70412 2.113637,3.0931 -0.11667,0.434517 -0.346886,1.508604 -0.511641,2.386854 -0.436612,2.327322 -2.751015,5.273335 -4.14277,5.273335 -1.251014,0 -1.806994,1.003241 -1.806994,3.260613 0,1.234999 0.288066,1.39846 2.910276,1.651385 3.539753,0.341423 4.468418,1.437409 5.335837,6.297229 1.384437,7.75661 0.63827,10.986841 -3.130882,13.553776 -2.031017,1.383195 -9.579261,1.901701 -12.049218,0.827682 z m 11.366278,-2.069909 c 3.288028,-1.814761 3.914981,-5.018058 2.405701,-12.291178 -0.697673,-3.362022 -1.104331,-4.280395 -2.087953,-4.715368 -1.601666,-0.708283 -11.004756,-0.697421 -12.614808,0.01468 -1.609197,0.711604 -2.409602,3.321386 -2.769553,9.030315 -0.261839,4.152617 -0.18675,4.638928 0.955203,6.183024 2.382735,3.221919 9.802118,4.157079 14.11141,1.778643 z M 76.979828,72.394711 c 0.139577,-0.575004 0.406676,-2.187997 0.593388,-3.584431 0.276301,-2.066436 0.191021,-2.538971 -0.458043,-2.538971 -0.943555,0 -2.050409,-2.148339 -1.682073,-3.264794 0.177044,-0.536662 -0.06367,-0.684004 -0.767559,-0.469896 -0.606958,0.184607 -1.665339,-0.238315 -2.593305,-1.036301 -0.862313,-0.741515 -1.467834,-1.113933 -1.345612,-0.827585 0.1223,0.286348 1.364287,3.275219 2.760158,6.641942 1.395851,3.366719 2.695707,6.122251 2.888534,6.123402 0.192768,0.0012 0.464856,-0.468365 0.604512,-1.043366 z m 3.647396,-4.703568 c 0.996609,-0.444817 2.845088,-4.456934 2.845088,-6.175273 0,-0.904771 -0.333976,-1.218611 -1.296789,-1.218611 -1.423825,0 -2.055068,1.303945 -2.619823,5.411718 -0.339392,2.468567 -0.276961,2.584034 1.071524,1.982166 z M 78.644739,62.95776 c 0.180539,-0.836732 0.212472,-1.65603 0.07086,-1.820663 -0.393282,-0.457434 -1.920519,1.521524 -1.920519,2.488561 0,1.471918 1.505126,0.928405 1.849585,-0.667898 z m -4.419653,-3.407257 c -0.0039,-3.136204 -3.212843,-6.8613 -7.830913,-9.092132 -2.585133,-1.248796 -2.543454,-0.348852 0.195117,4.213854 2.317334,3.860878 2.873198,4.456044 3.782683,4.050113 0.332191,-0.148254 1.162104,0.270918 1.844286,0.931503 1.6091,1.558201 2.011176,1.537518 2.008827,-0.103345 z M 90.978043,41.417464 c 4.986465,-3.614849 4.768538,-5.358682 -0.694102,-5.554265 -1.422427,-0.05094 -1.645518,0.131275 -1.540884,1.258387 0.112982,1.216178 -0.194903,1.366609 -3.986672,1.948359 -4.7361,0.726631 -7.44064,2.363058 -8.631299,5.22248 -1.10835,2.661793 -0.388992,4.054049 2.100611,4.065539 1.049412,0.0047 2.485856,0.353693 3.192109,0.77522 1.206947,0.720379 1.417187,0.595349 3.500636,-2.081677 1.219099,-1.56645 3.945925,-4.101768 6.059601,-5.634043 z M 42.125255,31.269962 c -0.847482,-0.139606 -2.407623,-0.531577 -3.466994,-0.871067 -1.845139,-0.59131 -1.924673,-0.722971 -1.892254,-3.132248 0.05474,-4.072473 1.263263,-12.92501 1.859,-13.617919 0.73613,-0.856186 4.030817,-1.709468 6.668422,-1.727027 3.347567,-0.02235 3.765813,-0.395893 3.765813,-3.3638962 0,-3.5335287 0.930529,-3.3575224 1.12751,0.213259 l 0.156467,2.8376752 3.852219,0.383998 c 6.823471,0.680181 6.736328,0.573332 7.681339,9.418824 0.837639,7.840316 0.793358,8.19243 -1.132596,9.008262 -1.652857,0.700155 -15.649655,1.339241 -18.619004,0.850132 z m 18.534053,-2.187119 c 0.211521,-0.246428 0.211308,-0.649677 -4.66e-4,-0.896107 -0.519251,-0.604201 -16.100495,-0.976763 -19.597404,-0.468589 -2.998914,0.435804 -3.66479,1.263585 -1.375915,1.710445 2.282334,0.445578 20.553073,0.144394 20.973785,-0.345749 z M 49.316053,25.946468 c 3.389945,0 7.376986,0.188964 8.860078,0.419905 3.151674,0.490782 3.097221,0.671335 2.114744,-7.011898 -0.516592,-4.039846 -0.73252,-4.624292 -1.92611,-5.213713 -1.776419,-0.877229 -15.810159,-0.875795 -17.587859,0.0018 -1.463485,0.722463 -1.707697,1.641337 -2.303668,8.66741 l -0.342032,4.032362 2.510665,-0.447931 c 1.380846,-0.246358 5.284237,-0.447926 8.674182,-0.447926 z"
     id="path899" />
</svg>
