<?xml version="1.0" encoding="UTF-8" standalone="no"?>
<svg
   xmlns:dc="http://purl.org/dc/elements/1.1/"
   xmlns:cc="http://creativecommons.org/ns#"
   xmlns:rdf="http://www.w3.org/1999/02/22-rdf-syntax-ns#"
   xmlns:svg="http://www.w3.org/2000/svg"
   xmlns="http://www.w3.org/2000/svg"
   xmlns:sodipodi="http://sodipodi.sourceforge.net/DTD/sodipodi-0.dtd"
   xmlns:inkscape="http://www.inkscape.org/namespaces/inkscape"
   width="60mm"
   height="40mm"
   viewBox="0 0 60 40"
   version="1.1"
   id="svg8"
   inkscape:version="1.0.1 (3bc2e813f5, 2020-09-07)"
   sodipodi:docname="wnetrzaLogo.svg">
  <defs
     id="defs2">
    <inkscape:perspective
       sodipodi:type="inkscape:persp3d"
       inkscape:vp_x="0 : 24.999999 : 1"
       inkscape:vp_y="0 : 999.99997 : 0"
       inkscape:vp_z="50.000001 : 24.999999 : 1"
       inkscape:persp3d-origin="25 : 19.999999 : 1"
       id="perspective833" />
  </defs>
  <sodipodi:namedview
     id="base"
     pagecolor="#ffffff"
     bordercolor="#666666"
     borderopacity="1.0"
     inkscape:pageopacity="0.0"
     inkscape:pageshadow="2"
     inkscape:zoom="3.959798"
     inkscape:cx="110.19487"
     inkscape:cy="90.608403"
     inkscape:document-units="mm"
     inkscape:current-layer="layer1"
     inkscape:document-rotation="0"
     showgrid="false"
     inkscape:window-width="1920"
     inkscape:window-height="1137"
     inkscape:window-x="1912"
     inkscape:window-y="-8"
     inkscape:window-maximized="1" />
  <metadata
     id="metadata5">
    <rdf:RDF>
      <cc:Work
         rdf:about="">
        <dc:format>image/svg+xml</dc:format>
        <dc:type
           rdf:resource="http://purl.org/dc/dcmitype/StillImage" />
        <dc:title></dc:title>
      </cc:Work>
    </rdf:RDF>
  </metadata>
  <g
     inkscape:label="Layer 1"
     inkscape:groupmode="layer"
     id="layer1">
    <path
       style="fill:#ffffff;stroke-width:0.264583"
       d="m 17.338155,39.52482 c -0.337295,-0.196985 -0.509848,-1.051152 -0.779054,-3.856458 -0.233043,-2.428467 -0.456892,-3.646064 -0.686509,-3.734176 -0.187393,-0.07191 -1.858463,-0.02952 -3.71349,0.0942 C 8.3493458,32.28246 8.6571343,32.05948 8.1964487,34.899149 7.9921506,36.158444 7.9388575,36.226175 7.0882895,36.307484 6.5968429,36.354466 6.0822636,36.280417 5.94478,36.142935 5.7878755,35.986029 5.9152757,33.885597 6.2869714,30.501264 L 6.879133,25.109567 5.909127,21.59241 C 5.3756237,19.657975 4.939121,17.918334 4.939121,17.726541 c 0,-0.191793 0.5290633,-0.91684 1.1756961,-1.611216 l 1.1756964,-1.262501 2.594616,0.162679 c 1.4270385,0.08947 4.4684675,0.24025 6.7587295,0.335057 2.542064,0.105232 4.257498,0.287445 4.403849,0.467776 0.131854,0.162468 0.609078,1.535222 1.060497,3.050564 0.451419,1.515341 0.890779,2.825028 0.976354,2.910417 0.08558,0.08539 1.992823,-0.477269 4.238328,-1.250346 4.088894,-1.407715 4.922527,-1.508634 5.25722,-0.636435 0.384289,1.001438 1.999792,17.618543 1.738286,17.880049 -0.171677,0.171678 -0.614143,0.178274 -1.255956,0.01873 -1.112718,-0.276612 -1.161309,-0.417328 -1.524018,-4.413517 l -0.186113,-2.050521 -2.821697,0.01524 c -1.551933,0.0084 -3.297947,0.09932 -3.88003,0.202081 l -1.058333,0.186827 -0.22668,1.760704 c -0.201757,1.567117 -0.298775,1.778799 -0.882397,1.925278 -0.360644,0.09052 -0.899599,0.08717 -1.197678,-0.0074 -0.500104,-0.158726 -0.528875,-0.312814 -0.372527,-1.995064 l 0.169435,-1.823053 h -1.044566 c -0.574511,0 -1.105432,0.09848 -1.179824,0.218853 -0.07439,0.120369 0.03646,1.757479 0.246325,3.63802 0.514379,4.609074 0.542998,4.34667 -0.473026,4.337164 -0.472942,-0.0044 -1.054861,-0.121907 -1.293153,-0.261075 z m 1.361197,-0.723066 c 10e-4,-0.254662 -0.369058,-4.153959 -0.822451,-8.665104 -0.543475,-5.407462 -0.942803,-8.327096 -1.172006,-8.568992 -0.518554,-0.547269 -1.261189,-0.165727 -1.039144,0.533877 0.09888,0.311546 0.564484,4.192748 1.034672,8.624892 0.834017,7.861705 0.972208,8.517424 1.798594,8.534297 0.10914,0.0021 0.199291,-0.204309 0.200335,-0.45897 z m 15.079352,-2.086438 c 0,-0.719336 -1.585976,-15.52821 -1.733566,-16.186988 -0.101708,-0.45398 -0.288864,-0.5893 -0.723183,-0.522885 -0.35909,0.05491 -0.548754,0.240832 -0.489865,0.480197 0.05285,0.214826 0.448323,3.902937 0.878826,8.195801 0.430504,4.292865 0.830009,7.954037 0.887791,8.135938 0.157875,0.497011 1.179997,0.408601 1.179997,-0.102063 z M 7.2206481,35.622703 C 7.3840821,35.51579 7.7776442,33.22566 8.095231,30.533525 8.4128178,27.841389 8.7388344,25.25178 8.819712,24.778837 8.93584,24.099763 8.875921,23.918942 8.5347692,23.918942 c -0.6708113,0 -0.8866457,0.846208 -1.4677858,5.754655 -0.7230321,6.106906 -0.7124728,6.5157 0.1536647,5.949106 z M 22.522465,34.436129 c 0.05733,-0.181901 0.179952,-0.896276 0.272492,-1.5875 0.151999,-1.135354 0.117287,-1.256771 -0.359295,-1.256771 -0.290151,0 -0.588321,0.208359 -0.662598,0.463021 -0.126455,0.433557 -0.251623,2.072179 -0.192,2.513541 0.04481,0.331724 0.829929,0.221396 0.941401,-0.132291 z m -7.319203,-3.263421 0.871433,-0.138324 -0.164583,-1.639491 c -0.254323,-2.533436 -0.07695,-2.392066 -2.805989,-2.236462 -2.11464,0.120571 -2.467482,0.07678 -2.904762,-0.3605 -0.2737568,-0.273757 -0.4977401,-0.683361 -0.4977401,-0.91023 0,-0.22687 -0.1016318,-0.349676 -0.2258483,-0.272907 -0.1242166,0.07677 -0.3054599,1.094192 -0.4027628,2.260938 -0.097303,1.166747 -0.2433987,2.453778 -0.324657,2.860069 l -0.1477423,0.738712 2.8656095,-0.08174 c 1.576085,-0.04496 3.257754,-0.143986 3.737042,-0.220065 z m 12.556171,-0.530575 3.373438,-0.161893 -0.0029,-0.965544 c -0.0016,-0.53105 -0.07887,-1.425347 -0.171712,-1.987327 l -0.168801,-1.021779 -5.847557,0.180732 c -3.216157,0.0994 -6.049595,0.237799 -6.29653,0.307546 -0.37204,0.105085 -0.425802,0.362537 -0.313756,1.502505 0.279791,2.846636 -0.0035,2.630355 3.220591,2.458606 1.558592,-0.08303 4.35185,-0.223808 6.207241,-0.312846 z M 14.941844,26.394166 c 0.57131,-0.153016 0.599806,-0.257709 0.449107,-1.650031 -0.269694,-2.49174 -0.343022,-2.677277 -1.058122,-2.677277 -0.560132,0 -3.703745,1.045528 -4.3563812,1.448877 -0.2034505,0.125741 0.2808462,2.185188 0.6569832,2.793791 0.173894,0.281366 3.341559,0.343596 4.308413,0.08464 z m 8.426273,-0.443111 c 0.150619,-0.150616 -2.631104,-9.33221 -2.911095,-9.60861 -0.30236,-0.298482 -12.8720677,-0.81641 -12.8720677,-0.530387 0,0.317373 1.8572643,6.61276 1.9900791,6.745573 0.080753,0.08075 1.4870956,-0.29429 3.1252056,-0.833432 4.363551,-1.43615 4.758225,-1.357773 5.056331,1.004118 0.09183,0.727604 0.231867,1.845815 0.311183,2.484913 l 0.14421,1.161997 2.54488,-0.178887 c 1.399683,-0.09839 2.574757,-0.208767 2.611274,-0.245285 z m 5.085772,-0.09108 2.21581,-0.172466 -0.181205,-2.273342 c -0.09966,-1.250342 -0.327208,-2.422261 -0.505659,-2.604265 -0.259158,-0.264324 -0.812729,-0.167163 -2.750652,0.482783 -2.63121,0.882462 -2.569622,0.812688 -2.843552,3.221574 l -0.173004,1.521354 1.011226,-0.0016 c 0.556175,-7.94e-4 2.00834,-0.0792 3.227036,-0.174054 z m -4.46882,-2.933216 c 0.0022,-0.181901 -0.18728,-0.330729 -0.421131,-0.330729 -0.279008,0 -0.369969,0.14388 -0.264583,0.418515 0.08833,0.230182 0.162422,0.557604 0.164651,0.727604 0.0054,0.412332 0.515808,-0.386376 0.521063,-0.81539 z M 8.3297989,23.191337 8.8686832,22.728317 7.9707297,19.716151 C 7.4768553,18.05946 7.0101525,16.641362 6.9336123,16.564822 6.7084251,16.339635 5.7330546,17.34809 5.7308462,17.808387 c -0.00484,1.008076 1.4288488,5.845971 1.7324235,5.845971 0.1802046,0 0.5701427,-0.208359 0.8665292,-0.463021 z M 40.260996,39.486072 c -2.775527,-1.037648 -3.364683,-3.080546 -2.108343,-7.310676 0.454149,-1.529138 0.979564,-1.906455 2.654734,-1.906455 0.570343,0 0.908817,-0.128386 0.908817,-0.344725 0,-0.731957 -2.143427,-4.728046 -3.389543,-6.319282 -2.546723,-3.252054 -3.092725,-4.713076 -1.761334,-4.713076 2.428404,0 5.944627,3.017179 5.944627,5.100929 V 24.6816 l 1.034335,-0.677201 c 1.102874,-0.722069 1.988998,-2.45845 1.829226,-3.5844 -0.07366,-0.519119 -0.280826,-0.621716 -1.503174,-0.744439 -1.591659,-0.159801 -2.154137,-0.663079 -2.154137,-1.927418 0,-0.562604 0.311557,-1.089551 1.125352,-1.903346 1.206466,-1.206465 2.492592,-1.711505 4.364752,-1.713962 1.00797,-0.0013 1.124479,-0.06681 1.124479,-0.632075 0,-0.761991 0.724067,-1.01323 2.248958,-0.78035 3.241128,0.494983 3.291854,1.710968 0.15266,3.659434 -2.076387,1.288793 -3.757957,3.067609 -4.55962,4.823309 -0.917732,2.009892 -0.92592,2.188623 -0.100264,2.188623 0.680995,0 1.280856,0.754734 1.088792,1.369896 -0.06008,0.192442 -0.178686,0.668142 -0.26356,1.057108 -0.224906,1.030743 -1.417121,2.335496 -2.134052,2.335496 -0.64443,0 -0.930831,0.444322 -0.930831,1.444085 0,0.546965 0.148395,0.61936 1.499164,0.731377 1.823421,0.151212 2.301798,0.636611 2.748627,2.788965 0.713165,3.435307 0.328795,4.865936 -1.612797,6.0028 -1.046232,0.612601 -4.934532,0.84224 -6.206868,0.36657 z m 5.855072,-0.916736 c 1.693744,-0.803736 2.01671,-2.222437 1.239237,-5.443612 -0.359388,-1.488998 -0.568867,-1.895734 -1.075557,-2.088377 -0.825064,-0.31369 -5.668841,-0.30888 -6.498225,0.0065 -0.828934,0.315161 -1.241245,1.471001 -1.42667,3.999415 -0.13488,1.839142 -0.09618,2.054524 0.492053,2.738384 1.22741,1.426948 5.049327,1.841119 7.269162,0.787739 z m -2.981814,-9.027999 c 0.07194,-0.254661 0.209489,-0.969036 0.305671,-1.5875 0.142327,-0.915199 0.09842,-1.124479 -0.235948,-1.124479 -0.48605,0 -1.056227,-0.951473 -0.866484,-1.445937 0.09121,-0.237681 -0.03277,-0.302937 -0.395385,-0.208111 -0.312664,0.08176 -0.857859,-0.105547 -1.335884,-0.458965 -0.444196,-0.328408 -0.756118,-0.493347 -0.693158,-0.366527 0.06296,0.12682 0.702781,1.450554 1.421826,2.941635 0.719045,1.491078 1.388628,2.711468 1.487961,2.711979 0.09934,5.29e-4 0.239466,-0.207433 0.311401,-0.462095 z m 1.878872,-2.083152 c 0.513382,-0.197003 1.465578,-1.973921 1.465578,-2.734952 0,-0.400712 -0.17204,-0.539708 -0.668007,-0.539708 -0.733457,0 -1.058627,0.577501 -1.349542,2.396783 -0.174826,1.093298 -0.142674,1.144437 0.551971,0.877877 z m -1.02123,-2.096357 c 0.09301,-0.370578 0.109452,-0.733435 0.03654,-0.806349 -0.202589,-0.202592 -0.989315,0.673864 -0.989315,1.102153 0,0.651894 0.775335,0.411179 0.952776,-0.295804 z m -2.276682,-1.509032 c -0.0024,-1.388986 -1.655021,-3.038785 -4.033906,-4.026793 -1.331674,-0.553076 -1.310209,-0.154502 0.100505,1.866264 1.193723,1.709935 1.480063,1.973527 1.948563,1.793745 0.171114,-0.06566 0.598631,0.119986 0.950034,0.412551 0.828898,0.690108 1.036013,0.680948 1.034804,-0.04577 z m 8.629894,-8.030899 c 2.568654,-1.600972 2.456394,-2.373294 -0.357556,-2.459915 -0.732724,-0.02256 -0.847651,0.05814 -0.79375,0.557324 0.05816,0.53863 -0.100398,0.605254 -2.05364,0.862904 -2.439683,0.321816 -3.832868,1.046569 -4.446206,2.312972 -0.570945,1.178875 -0.200385,1.795488 1.082077,1.800577 0.540583,0.0021 1.280535,0.156646 1.644337,0.343335 0.621732,0.319047 0.730039,0.263673 1.803271,-0.921949 0.627996,-0.693761 2.032656,-1.816622 3.121467,-2.495248 z M 25.179746,11.327694 c -0.436563,-0.06183 -1.240235,-0.235429 -1.785938,-0.385785 -0.950481,-0.261884 -0.991455,-0.320195 -0.974756,-1.3872337 0.02823,-1.803648 0.650747,-5.7243276 0.957627,-6.031208 0.379195,-0.3791947 2.07638,-0.7571028 3.435073,-0.7648792 1.724418,-0.00987 1.939869,-0.1753364 1.939869,-1.4898279 0,-1.5649561 0.479339,-1.4870054 0.580815,0.094453 l 0.08064,1.2567708 1.984375,0.1700681 c 3.51495,0.3012437 3.470061,0.2539216 3.956865,4.1714812 0.431485,3.4723787 0.408681,3.6283257 -0.583428,3.9896477 -0.851437,0.31009 -8.061557,0.593133 -9.591145,0.376513 z m 9.547378,-0.968648 c 0.108958,-0.10914 0.10885,-0.287734 -2.41e-4,-0.3968747 -0.267475,-0.267593 -8.293789,-0.432596 -10.095135,-0.207532 -1.544821,0.193012 -1.887836,0.5596257 -0.708773,0.7575347 1.175687,0.197341 10.587434,0.06395 10.804149,-0.153128 z M 28.883912,8.9699843 c 1.74625,0 3.800078,0.08369 4.564063,0.185971 1.623512,0.217361 1.595461,0.297326 1.089356,-3.105483 -0.26611,-1.7891985 -0.377333,-2.048042 -0.992188,-2.3090897 -0.91508,-0.3885133 -8.144224,-0.3878783 -9.059971,7.938e-4 -0.753875,0.3199698 -0.87968,0.726927 -1.186676,3.8386889 l -0.176189,1.785883 1.293303,-0.198383 c 0.711316,-0.109109 2.722052,-0.198381 4.468302,-0.198381 z"
       id="path899" />
  </g>
</svg>
